<svg xmlns="http://www.w3.org/2000/svg" viewBox="0 0 1781.49 1264.88"><defs><style>.a{fill:#010101;}.b{fill:#513220;}.c{fill:#010200;}.d{fill:#000605;}.e{fill:#020202;}.f{fill:#2c231c;}.g{fill:#8d735a;}.h{fill:#2e2216;}.i{fill:#463640;}.j{fill:#2d221e;}.k{fill:#413a26;}.l{fill:#0a0000;}.m{fill:#896c5a;}.n{fill:#604b3a;}.o{fill:#5a5247;}.p{fill:#8f7459;}.q{fill:#4d392e;}.r{fill:#3e2b24;}.s{fill:#7d634a;}.t{fill:#b0ac93;}.u{fill:#624b3b;}.v{fill:#63493b;}.w{fill:#6d5644;}.x{fill:#6e5747;}.y{fill:#4e3a2f;}.z{fill:#68523d;}.aa{fill:#d8aa89;}.ab{fill:#180c0e;}.ac{fill:#735e4b;}.ad{fill:#100c09;}.ae{fill:#836d58;}.af{fill:#644f3c;}.ag{fill:#695942;}.ah{fill:#705b46;}.ai{fill:#73614d;}.aj{fill:#594d3d;}.ak{fill:#49392c;}.al{fill:#746047;}.am{fill:#79634b;}.an{fill:#251b1a;}.ao{fill:#9e6b40;}.ap{fill:#a3826f;}.aq{fill:#6a563d;}.ar{fill:#80664d;}.as{fill:#85745a;}.at{fill:#6b5138;}.au{fill:#866f4f;}.av{fill:#9a826a;}.aw{fill:#5e4a31;}.ax{fill:#745e46;}.ay{fill:#877664;}.az{fill:#452018;}.ba{fill:#806850;}.bb{fill:#7a6248;}.bc{fill:#937958;}.bd{fill:#ccae92;}.be{fill:#8b7158;}.bf{fill:#7e5b47;}.bg{fill:#c0a781;}.bh{fill:#332a23;}.bi{fill:#9f8a6d;}.bj{fill:#705343;}.bk{fill:#62492b;}.bl{fill:#141311;}.bm{fill:#5e2e1a;}.bn{fill:#905b39;}.bo{fill:#0f0d0e;}.bp{fill:#740202;}.bq{fill:#825a37;}.br{fill:#6a3f1f;}.bs{fill:#51493e;}.bt{fill:#847058;}.bu{fill:#9a7f62;}.bv{fill:#795f48;}.bw{fill:#a38e6f;}.bx{fill:#9b8464;}.by{fill:#906b3e;}.bz{fill:#cfb59c;}.ca{fill:#805133;}.cb{fill:#9e866c;}.cc{fill:#867156;}.cd{fill:#9b8669;}.ce{fill:#957e5f;}.cf{fill:#ab9276;}.cg{fill:#c4ad8e;}.ch{fill:#9c7963;}.ci{fill:#9d8062;}.cj{fill:#c4ac8a;}.ck{fill:#6b3f24;}.cl{fill:#caab8f;}.cm{fill:#d2ba98;}.cn{fill:#4e240e;}.co{fill:#874b1b;}.cp{fill:#c9b293;}.cq{fill:#7b6452;}.cr{fill:#c3aa84;}.cs{fill:#c1aa8a;}.ct{fill:#cfb294;}.cu{fill:#b5723e;}.cv{fill:#a38762;}.cw{fill:#584439;}.cx{fill:#88745c;}.cy{fill:#bfa78f;}.cz{fill:#bea481;}.da{fill:#bda384;}.db{fill:#846e56;}.dc{fill:#b99a7d;}.dd{fill:#988877;}.de{fill:#b79e82;}.df{fill:#0b0301;}.dg{fill:#b2734a;}.dh{fill:#d0b598;}.di{fill:#030301;}.dj{fill:#cab596;}.dk{fill:#b49579;}.dl{fill:#894c20;}.dm{fill:#c6ae92;}.dn{fill:#c9b195;}.do{fill:#65423c;}.dp{fill:#975733;}.dq{fill:#3f070a;}.dr{fill:#b8a68e;}.ds{fill:#a67860;}.dt{fill:#8c6e56;}.du{fill:#5b3c1d;}.dv{fill:#9d7a50;}.dw{fill:#89512e;}.dx{fill:#785214;}.dy{fill:#5c2c18;}.dz{fill:#a25e2f;}.ea{fill:#020300;}.eb{fill:#ceb597;}.ec{fill:#504738;}.ed{fill:#c8b192;}.ee{fill:#594c3a;}.ef{fill:#c6b194;}.eg{fill:#bb9d85;}.eh{fill:#c5ac90;}.ei{fill:#816852;}.ej{fill:#733713;}.ek{fill:#7c5433;}.el{fill:#816347;}.em{fill:#61351a;}.en{fill:#5f2e1f;}.eo{fill:#3b342c;}.ep{fill:#3f0102;}.eq{fill:#62341c;}.er{fill:#b29c85;}.es{fill:#5d0104;}.et{fill:#9e8463;}.eu{fill:#210e07;}.ev{fill:#8c7762;}.ew{fill:#79512d;}.ex{fill:#b89b7b;}.ey{fill:#523226;}.ez{fill:#543c34;}.fa{fill:#2f0101;}.fb{fill:#513528;}.fc{fill:#ad9072;}.fd{fill:#38241b;}.fe{fill:#35221b;}.ff{fill:#583c2f;}.fg{fill:#79543a;}.fh{fill:#9e7c4f;}.fi{fill:#2f1e16;}.fj{fill:#5a3836;}.fk{fill:#8b6e5e;}.fl{fill:#21201c;}.fm{fill:#3b2d24;}.fn{fill:#a58c70;}.fo{fill:#876f57;}.fp{fill:#a58368;}.fq{fill:#13090a;}.fr{fill:#070300;}.fs{fill:#9d8468;}.ft{fill:#241a18;}.fu{fill:#564438;}.fv{fill:#77604e;}.fw{fill:#6e5d4b;}.fx{fill:#917961;}.fy{fill:#44332b;}.fz{fill:#c3ab85;}.ga{fill:#1c1912;}.gb{fill:#bb9775;}.gc{fill:#910d10;}.gd{fill:#8a795f;}.ge{fill:#c9b197;}.gf{fill:#a38062;}.gg{fill:#887660;}.gh{fill:#cdb498;}.gi{fill:#877159;}.gj{fill:#c3b08f;}.gk{fill:#160e0b;}.gl{fill:#211b1b;}.gm{fill:#b51414;}.gn{fill:#553121;}.go{fill:#a0886e;}.gp{fill:#998668;}.gq{fill:#a88e6b;}.gr{fill:#ab9274;}.gs{fill:#a18c6f;}.gt{fill:#6a4938;}.gu{fill:#917d64;}.gv{fill:#412b20;}.gw{fill:#c9b280;}.gx{fill:#857159;}.gy{fill:#543521;}.gz{fill:#5d3826;}.ha{fill:#91503c;}.hb{fill:#840308;}.hc{fill:#6c0000;}.hd{fill:#957b62;}.he{fill:#87735b;}.hf{fill:#907c64;}.hg{fill:#a80000;}.hh{fill:#d5be9e;}.hi{fill:#bca384;}.hj{fill:#af957c;}.hk{fill:#706049;}.hl{fill:#957f68;}.hm{fill:#7a644c;}.hn{fill:#48281b;}.ho{fill:#8f7552;}.hp{fill:#1e0500;}.hq{fill:#413326;}.hr{fill:#900309;}.hs{fill:#432711;}.ht{fill:#910305;}.hu{fill:#8c7b61;}.hv{fill:#bda485;}.hw{fill:#837260;}.hx{fill:#750102;}.hy{fill:#0a0202;}.hz{fill:#430301;}.ia{fill:#635346;}.ib{fill:#170505;}.ic{fill:#b09779;}.id{fill:#c0a88c;}.ie{fill:#bfa58e;}.if{fill:#730508;}.ig{fill:#745c44;}.ih{fill:#472f25;}.ii{fill:#9c8269;}.ij{fill:#86705b;}.ik{fill:#ad957b;}.il{fill:#a40905;}.im{fill:#a77550;}.in{fill:#bb9e80;}.io{fill:#b89f80;}.ip{fill:#685243;}.iq{fill:#826d5a;}.ir{fill:#6a513f;}.is{fill:#c51518;}.it{fill:#ac0807;}.iu{fill:#7e7556;}.iv{fill:#800004;}.iw{fill:#8f0c0a;}.ix{fill:#800802;}.iy{fill:#9a896f;}.iz{fill:#89745f;}.ja{fill:#726650;}.jb{fill:#700203;}.jc{fill:#5c4c3f;}.jd{fill:#b0967d;}.je{fill:#930605;}.jf{fill:#865535;}.jg{fill:#530201;}.jh{fill:#320605;}.ji{fill:#b7000c;}.jj{fill:#900709;}.jk{fill:#820405;}.jl{fill:#504833;}.jm{fill:#23150a;}.jn{fill:#9f8674;}.jo{fill:#060604;}.jp{fill:#695a47;}.jq{fill:#1c0500;}.jr{fill:#320202;}.js{fill:#2f2a24;}.jt{fill:#050402;}.ju{fill:#5a3d2f;}.jv{fill:#8b0806;}.jw{fill:#0f0f0d;}.jx{fill:#040404;}.jy{fill:#604a3b;}.jz{fill:#84745b;}.ka{fill:#9d000b;}.kb{fill:#780407;}.kc{fill:#730506;}.kd{fill:#040500;}.ke{fill:#745f4c;}.kf{fill:#1c130c;}.kg{fill:#8e7f62;}.kh{fill:#684f3d;}.ki{fill:#550002;}.kj{fill:#75664f;}.kk{fill:#5b0002;}.kl{fill:#130908;}.km{fill:#050503;}.kn{fill:#3a0402;}.ko{fill:#13120e;}.kp{fill:#5e3023;}.kq{fill:#1a0d05;}.kr{fill:#0c0703;}.ks{fill:#040402;}.kt{fill:#1b100e;}.ku{fill:#473a31;}.kv{fill:#0b0b0b;}.kw{fill:#090502;}.kx{fill:#0d0d0d;}.ky{fill:#807061;}.kz{fill:#100b05;}.la{fill:#4b0404;}.lb{fill:#0b0507;}.lc{fill:#080401;}.ld{fill:#140c09;}.le{fill:#594f43;}.lf{fill:#b8a386;}.lg{fill:#0c0500;}.lh{fill:#0a0502;}.li{fill:#342d25;}.lj{fill:#201c19;}.lk{fill:#240604;}.ll{fill:#270504;}.lm{fill:#161712;}.ln{fill:#0b0a06;}.lo{fill:#050100;}.lp{fill:#58261f;}.lq{fill:#070101;}.lr{fill:#110d0e;}.ls{fill:#4d7386;}.lt{fill:#2f576e;}.lu{fill:#5a4f3c;}.lv{fill:#453b32;}.lw{fill:#0f0707;}.lx{fill:#29190c;}.ly{fill:#0d0300;}.lz{fill:#b69c83;}.ma{fill:#a39072;}.mb{fill:#d2b99d;}.mc{fill:#170a04;}.md{fill:#924929;}.me{fill:#8d7961;}.mf{fill:#050601;}.mg{fill:#070604;}.mh{fill:#0b0803;}.mi{fill:#615142;}.mj{fill:#4e2718;}.mk{fill:#402011;}.ml{fill:#3e0403;}.mm{fill:#2d0506;}.mn{fill:#060503;}.mo{fill:#71442d;}.mp{fill:#896a56;}.mq{fill:#705f4b;}.mr{fill:#590102;}.ms{fill:#96876a;}.mt{fill:#6c0204;}.mu{fill:#746150;}.mv{fill:#562a1f;}.mw{fill:#796149;}.mx{fill:#050200;}.my{fill:#551f15;}.mz{fill:#4e0403;}.na{fill:#88785f;}.nb{fill:#5c060b;}.nc{fill:#63533c;}.nd{fill:#3f3229;}.ne{fill:#653920;}.nf{fill:#0c0904;}.ng{fill:#710503;}.nh{fill:#340f09;}.ni{fill:#56271d;}.nj{fill:#52462e;}.nk{fill:#5a4d3d;}.nl{fill:#866d57;}.nm{fill:#0b0602;}.nn{fill:#412115;}.no{fill:#060702;}.np{fill:#060501;}.nq{fill:#31291f;}.nr{fill:#0f0e0c;}.ns{fill:#651713;}.nt{fill:#5a0405;}.nu{fill:#0c0c0c;}.nv{fill:#30291f;}.nw{fill:#7d6e5b;}.nx{fill:#7f6d57;}.ny{fill:#867363;}.nz{fill:#564939;}.oa{fill:#1f0100;}.ob{fill:#655943;}.oc{fill:#786d51;}.od{fill:#393127;}.oe{fill:#716046;}.of{fill:#1c0d06;}.og{fill:#2c251b;}.oh{fill:#675746;}.oi{fill:#45342d;}.oj{fill:#221b13;}.ok{fill:#221f1a;}.ol{fill:#4e4139;}.om{fill:#070705;}.on{fill:#080500;}.oo{fill:#855436;}.op{fill:#090601;}.oq{fill:#927c65;}.or{fill:#76462f;}.os{fill:#680407;}.ot{fill:#330301;}.ou{fill:#c4a092;}.ov{fill:#4c0002;}.ow{fill:#8f0908;}.ox{fill:#8f7566;}.oy{fill:#61523f;}.oz{fill:#4b4233;}.pa{fill:#912a23;}.pb{fill:#99886e;}.pc{fill:#927c64;}.pd{fill:#ac9375;}.pe{fill:#4c0300;}.pf{fill:#675b43;}.pg{fill:#1f0504;}.ph{fill:#0d0301;}.pi{fill:#25201c;}.pj{fill:#8b755d;}.pk{fill:#ab9a7e;}.pl{fill:#aa010e;}.pm{fill:#9e2d29;}.pn{fill:#998465;}.po{fill:#27221e;}.pp{fill:#250302;}.pq{fill:#2b4d72;}.pr{fill:#090803;}.ps{fill:#a59176;}.pt{fill:#050400;}.pu{fill:#91856d;}.pv{fill:#3c0002;}.pw{fill:#5b0005;}.px{fill:#a00a0c;}.py{fill:#957a67;}.pz{fill:#920607;}.qa{fill:#927a5e;}.qb{fill:#89705a;}.qc{fill:#860a08;}.qd{fill:#887662;}.qe{fill:#9c6f68;}.qf{fill:#2f0509;}.qg{fill:#4a0404;}.qh{fill:#3d0000;}.qi{fill:#2f0507;}.qj{fill:#410304;}.qk{fill:#362c22;}.ql{fill:#5f4d41;}.qm{fill:#8e7d63;}.qn{fill:#92080d;}.qo{fill:#940004;}.qp{fill:#796658;}.qq{fill:#0f0e0a;}.qr{fill:#490000;}.qs{fill:#4b0402;}.qt{fill:#080403;}.qu{fill:#101010;}.qv{fill:#ac0b09;}.qw{fill:#ae0e08;}.qx{fill:#443a2e;}.qy{fill:#a80510;}.qz{fill:#c8b096;}.ra{fill:#40332a;}.rb{fill:#211916;}.rc{fill:#b39e81;}.rd{fill:#605446;}.re{fill:#530600;}.rf{fill:#615442;}.rg{fill:#870306;}.rh{fill:#540000;}.ri{fill:#453d32;}.rj{fill:#1a1512;}.rk{fill:#5b4435;}.rl{fill:#897b60;}.rm{fill:#705f4d;}.rn{fill:#383127;}.ro{fill:#675c48;}.rp{fill:#40382e;}.rq{fill:#746057;}.rr{fill:#564639;}.rs{fill:#5f5347;}.rt{fill:#231917;}.ru{fill:#070302;}.rv{fill:#2c2721;}.rw{fill:#463f39;}.rx{fill:#291d1d;}.ry{fill:#4e4236;}.rz{fill:#695a43;}.sa{fill:#241d17;}.sb{fill:#675644;}.sc{fill:#241a11;}.sd{fill:#6d5b4d;}.se{fill:#55402f;}.sf{fill:#493f35;}.sg{fill:#390200;}.sh{fill:#220807;}.si{fill:#261d18;}.sj{fill:#645649;}.sk{fill:#382e25;}.sl{fill:#210907;}.sm{fill:#181510;}.sn{fill:#8d725f;}.so{fill:#382f28;}.sp{fill:#0d0d0b;}.sq{fill:#0b090a;}.sr{fill:#0e0e0e;}.ss{fill:#0a0907;}.st{fill:#11110f;}.su{fill:#11120c;}.sv{fill:#0c0c0a;}.sw{fill:#16110d;}.sx{fill:#400001;}.sy{fill:#1c1815;}.sz{fill:#241f1b;}.ta{fill:#0c0201;}.tb{fill:#201712;}.tc{fill:#080300;}.td{fill:#2d2824;}.te{fill:#0e0d08;}.tf{fill:#130100;}.tg{fill:#0e0402;}.th{fill:#180604;}.ti{fill:#0b0102;}.tj{fill:#43352a;}.tk{fill:#6b3e2b;}.tl{fill:#685340;}.tm{fill:#281f18;}.tn{fill:#3d2d2d;}.to{fill:#1a110c;}.tp{fill:#2c1e15;}.tq{fill:#9f8a75;}.tr{fill:#4e4232;}.ts{fill:#302720;}.tt{fill:#372d23;}.tu{fill:#564936;}.tv{fill:#655347;}.tw{fill:#4e412f;}.tx{fill:#0b0001;}.ty{fill:#201a1a;}.tz{fill:#564940;}.ua{fill:#856f57;}.ub{fill:#27221c;}.uc{fill:#65503f;}.ud{fill:#28251e;}.ue{fill:#24211a;}.uf{fill:#2e2923;}.ug{fill:#3e342b;}.uh{fill:#63543f;}.ui{fill:#4d4435;}.uj{fill:#74644b;}.uk{fill:#a1896f;}.ul{fill:#685c42;}.um{fill:#484735;}.un{fill:#836d55;}.uo{fill:#5d4022;}.up{fill:#7f6954;}.uq{fill:#968068;}.ur{fill:#30251f;}.us{fill:#1e1913;}.ut{fill:#69594c;}.uu{fill:#937f66;}.uv{fill:#a48c74;}.uw{fill:#75654c;}.ux{fill:#53453c;}.uy{fill:#5e5141;}.uz{fill:#71604c;}.va{fill:#78634e;}.vb{fill:#a28a72;}.vc{fill:#6d5d46;}.vd{fill:#382a21;}.ve{fill:#726457;}.vf{fill:#aa9173;}.vg{fill:#443228;}.vh{fill:#8e795e;}.vi{fill:#8a6f5a;}.vj{fill:#8f7f65;}.vk{fill:#836759;}.vl{fill:#705e50;}.vm{fill:#675241;}.vn{fill:#7e6956;}.vo{fill:#673d27;}.vp{fill:#341912;}.vq{fill:#1d090a;}.vr{fill:#60584b;}.vs{fill:#695d4d;}.vt{fill:#130e0a;}.vu{fill:#806e4a;}.vv{fill:#40382d;}.vw{fill:#2c1912;}.vx{fill:#110c09;}.vy{fill:#57311e;}.vz{fill:#817056;}.wa{fill:#75604f;}.wb{fill:#87725d;}.wc{fill:#05090c;}.wd{fill:#392f26;}.we{fill:#614f3b;}.wf{fill:#584b3b;}.wg{fill:#453a36;}.wh{fill:#6d9bb5;}.wi{fill:#13262c;}.wj{fill:#567a94;}</style></defs><title>bottom</title><polygon points="27.01 0 0 38.93 35.6 5.22 27.01 0"/><polygon points="1772.9 1225.96 1745.89 1264.88 1781.49 1231.18 1772.9 1225.96"/><polygon class="a" points="1682.8 632.5 1264.82 1014.86 1682.8 1166 1682.8 632.5"/><polygon class="a" points="1264.82 1014.86 1234.03 1027.04 1682.8 1166 1264.82 1014.86"/><polygon class="a" points="1234.03 1027.04 1023.15 1142.31 1682.8 1166 1234.03 1027.04"/><polygon class="b" points="882.73 587.45 881.87 587.58 886.47 615.44 882.73 587.45"/><polygon class="c" points="523.19 1011.3 533.02 1027.15 533.86 1025.33 523.19 1011.3"/><polygon class="d" points="523.19 1011.3 532.6 1029.44 533.02 1027.15 523.19 1011.3"/><polygon class="e" points="82.8 1166 527.7 987.76 531.02 968.89 82.8 1166"/><polygon class="a" points="82.8 1166 531.02 968.89 533.1 950.32 82.8 1166"/><polygon class="f" points="523.19 1011.3 523.95 1009.02 527.7 987.76 523.19 1011.3"/><polygon points="82.8 1166 523.19 1011.3 527.7 987.76 82.8 1166"/><polygon class="g" points="576.03 917.69 553.31 932.19 578.65 940.9 576.03 917.69"/><polygon class="a" points="523.19 1011.3 82.8 1166 531.14 1033.16 523.19 1011.3"/><polygon class="h" points="532.21 1011.2 523.19 1011.3 532.42 1013.59 532.21 1011.2"/><polygon class="i" points="532.42 1013.59 523.19 1011.3 533.86 1025.33 532.42 1013.59"/><polygon class="j" points="523.95 1009.02 523.19 1011.3 532.21 1011.2 523.95 1009.02"/><polygon class="k" points="527.7 987.76 523.95 1009.02 532.21 1011.2 527.7 987.76"/><polygon class="l" points="523.19 1011.3 531.14 1033.16 532.6 1029.44 523.19 1011.3"/><polygon points="533.02 1027.15 532.6 1029.44 533.86 1025.33 533.02 1027.15"/><polygon class="a" points="82.8 632.5 82.8 1166 533.1 950.32 82.8 632.5"/><polygon class="m" points="542.58 972.24 527.7 987.76 551.17 987.03 542.58 972.24"/><polygon class="n" points="527.7 987.76 532.21 1011.2 551.17 987.03 527.7 987.76"/><polygon class="o" points="532.42 1013.59 533.86 1025.33 538.75 1017.93 532.42 1013.59"/><polygon class="p" points="544.79 934.82 543.72 937.55 553.31 932.19 544.79 934.82"/><polygon class="q" points="532.21 1011.2 538.75 1017.93 541.08 1018.05 532.21 1011.2"/><polygon class="r" points="532.21 1011.2 532.42 1013.59 538.75 1017.93 532.21 1011.2"/><polygon class="s" points="539.52 938.59 543.72 937.55 544.79 934.82 539.52 938.59"/><polygon class="t" points="538.75 1017.93 533.86 1025.33 541.08 1018.05 538.75 1017.93"/><polygon class="u" points="551.17 987.03 541.08 1018.05 561.91 993.89 551.17 987.03"/><polygon class="v" points="533.1 950.32 539.52 938.59 541.47 925.35 533.1 950.32"/><polygon class="w" points="541.47 925.35 539.52 938.59 544.79 934.82 541.47 925.35"/><polygon class="a" points="82.8 632.5 533.1 950.32 541.47 925.35 82.8 632.5"/><polygon class="x" points="533.1 950.32 531.02 968.89 542.58 972.24 533.1 950.32"/><polygon class="y" points="531.02 968.89 527.7 987.76 542.58 972.24 531.02 968.89"/><polygon class="z" points="533.1 950.32 542.58 972.24 543.72 937.55 533.1 950.32"/><polygon class="aa" points="541.08 1018.05 533.86 1025.33 547.19 1020.8 541.08 1018.05"/><polygon class="ab" points="533.86 1025.33 532.6 1029.44 547.19 1020.8 533.86 1025.33"/><polygon class="ac" points="539.52 938.59 533.1 950.32 543.72 937.55 539.52 938.59"/><polygon class="ad" points="532.6 1029.44 531.14 1033.16 547.19 1020.8 532.6 1029.44"/><polygon class="ae" points="574.32 989.17 561.91 993.89 581.5 1029.41 574.32 989.17"/><polygon class="af" points="532.21 1011.2 541.08 1018.05 551.17 987.03 532.21 1011.2"/><polygon class="ag" points="561.91 993.89 547.19 1020.8 581.5 1029.41 561.91 993.89"/><polygon class="ah" points="541.47 925.35 544.79 934.82 553.31 932.19 541.47 925.35"/><polygon class="ai" points="541.08 1018.05 547.19 1020.8 561.91 993.89 541.08 1018.05"/><polygon class="aj" points="569.87 843.27 564.19 876.54 573.9 844.32 569.87 843.27"/><polygon class="ak" points="541.47 925.35 564.19 876.54 569.87 843.27 541.47 925.35"/><polygon class="a" points="82.8 632.5 541.47 925.35 569.87 843.27 82.8 632.5"/><polygon class="al" points="642.63 915.14 649.9 913.43 657.24 892.07 642.63 915.14"/><polygon class="am" points="564.19 876.54 574.88 915.12 591.27 910.7 564.19 876.54"/><polygon class="an" points="598.21 834.16 573.9 844.32 617.85 875.82 598.21 834.16"/><polygon class="ao" points="592.76 1031.95 607.67 1090.27 614.7 1080.73 592.76 1031.95"/><polygon class="ap" points="574.88 915.12 553.31 932.19 576.03 917.69 574.88 915.12"/><polygon class="aq" points="561.91 993.89 571.42 988.97 572.04 987.67 561.91 993.89"/><polygon class="ar" points="551.17 987.03 561.91 993.89 572.04 987.67 551.17 987.03"/><polygon class="as" points="542.58 972.24 551.17 987.03 572.04 987.67 542.58 972.24"/><polygon class="at" points="572.04 987.67 571.42 988.97 574.32 989.17 572.04 987.67"/><polygon class="au" points="542.58 972.24 572.04 987.67 578.65 940.9 542.58 972.24"/><polygon class="av" points="572.04 987.67 574.32 989.17 578.65 940.9 572.04 987.67"/><polygon class="aw" points="571.42 988.97 561.91 993.89 574.32 989.17 571.42 988.97"/><polygon class="ax" points="541.47 925.35 553.31 932.19 574.88 915.12 541.47 925.35"/><polygon class="ay" points="564.19 876.54 541.47 925.35 574.88 915.12 564.19 876.54"/><polygon class="az" points="547.19 1020.8 531.14 1033.16 581.5 1029.41 547.19 1020.8"/><polygon class="ba" points="543.72 937.55 542.58 972.24 578.65 940.9 543.72 937.55"/><polygon class="bb" points="553.31 932.19 543.72 937.55 578.65 940.9 553.31 932.19"/><polygon class="bc" points="591.27 910.7 576.03 917.69 594.22 913.67 591.27 910.7"/><polygon class="bd" points="635.53 999.66 641.43 1019.73 642.6 1002.51 635.53 999.66"/><polygon class="be" points="617.85 875.82 591.27 910.7 628.69 890.27 617.85 875.82"/><polygon class="bf" points="574.88 915.12 576.03 917.69 591.27 910.7 574.88 915.12"/><polygon class="bg" points="634.8 987.66 635.53 999.66 635.95 990.24 634.8 987.66"/><polygon class="bh" points="569.87 843.27 573.9 844.32 598.21 834.16 569.87 843.27"/><polygon class="bi" points="574.32 989.17 581.5 1029.41 592.76 1031.95 574.32 989.17"/><polygon class="bj" points="576.03 917.69 578.65 940.9 594.22 913.67 576.03 917.69"/><polygon class="a" points="82.8 632.5 569.87 843.27 613.25 811.98 82.8 632.5"/><polygon class="bk" points="638.71 983.21 644.65 985.17 648.23 978.14 638.71 983.21"/><polygon class="bl" points="569.87 843.27 598.21 834.16 613.25 811.98 569.87 843.27"/><polygon class="bm" points="581.5 1029.41 531.14 1033.16 607.67 1090.27 581.5 1029.41"/><polygon class="bn" points="592.76 1031.95 581.5 1029.41 607.67 1090.27 592.76 1031.95"/><polygon class="bo" points="657.31 855.88 702.46 836.62 702.71 835.47 657.31 855.88"/><polygon class="bp" points="744.38 1070.32 741.93 1094.32 756.93 1080.99 744.38 1070.32"/><polygon class="bq" points="639.6 975.42 638.71 983.21 648.23 978.14 639.6 975.42"/><polygon class="br" points="614.7 1080.73 625.19 1088.96 628.07 1086.76 614.7 1080.73"/><polygon class="bs" points="573.9 844.32 564.19 876.54 617.85 875.82 573.9 844.32"/><polygon class="bt" points="564.19 876.54 591.27 910.7 617.85 875.82 564.19 876.54"/><polygon class="bu" points="574.32 989.17 592.76 1031.95 620.39 1020.66 574.32 989.17"/><polygon class="bv" points="594.22 913.67 623.21 912.88 628.69 890.27 594.22 913.67"/><polygon class="bw" points="633.75 985.91 638.71 983.21 639.6 975.42 633.75 985.91"/><polygon class="bx" points="629.82 958.99 633.75 985.91 639.6 975.42 629.82 958.99"/><polygon class="by" points="625.19 1088.96 607.67 1090.27 636.04 1107.29 625.19 1088.96"/><polygon class="bz" points="648.23 978.14 649.74 978.23 650.08 975.2 648.23 978.14"/><polygon class="ca" points="614.7 1080.73 607.67 1090.27 625.19 1088.96 614.7 1080.73"/><polygon class="cb" points="659.96 905.36 649.9 913.43 660.62 926.74 659.96 905.36"/><polygon class="cc" points="591.27 910.7 594.22 913.67 628.69 890.27 591.27 910.7"/><polygon class="cd" points="594.22 913.67 578.65 940.9 629.82 958.99 594.22 913.67"/><polygon class="ce" points="623.21 912.88 594.22 913.67 629.82 958.99 623.21 912.88"/><polygon class="cf" points="578.65 940.9 574.32 989.17 629.82 958.99 578.65 940.9"/><polygon class="cg" points="634.8 987.66 637.55 988.99 638.71 983.21 634.8 987.66"/><polygon class="ch" points="629.82 958.99 574.32 989.17 633.75 985.91 629.82 958.99"/><polygon class="ci" points="574.32 989.17 620.39 1020.66 633.75 985.91 574.32 989.17"/><polygon class="cj" points="634.8 987.66 633.75 985.91 635.53 999.66 634.8 987.66"/><polygon class="ck" points="628.07 1086.76 625.19 1088.96 636.04 1107.29 628.07 1086.76"/><polygon class="cl" points="633.75 985.91 620.39 1020.66 635.53 999.66 633.75 985.91"/><polygon class="cm" points="696.14 1094.13 700.62 1137.06 720.75 1125.72 696.14 1094.13"/><polygon class="cn" points="652.79 1062.82 640.42 1085.15 653.22 1071.32 652.79 1062.82"/><polygon class="co" points="636.04 1107.29 607.67 1090.27 648.89 1149.42 636.04 1107.29"/><polygon class="cp" points="634.8 987.66 635.95 990.24 637.55 988.99 634.8 987.66"/><polygon class="cq" points="628.69 890.27 657.24 892.07 657.31 855.88 628.69 890.27"/><polygon class="cr" points="635.95 990.24 635.53 999.66 637.55 988.99 635.95 990.24"/><polygon class="cs" points="633.75 985.91 634.8 987.66 638.71 983.21 633.75 985.91"/><polygon class="ct" points="641.43 1019.73 620.39 1020.66 643.83 1039.6 641.43 1019.73"/><polygon class="cu" points="628.07 1086.76 636.04 1107.29 640.42 1085.15 628.07 1086.76"/><polygon class="cv" points="639.6 975.42 648.23 978.14 650.08 975.2 639.6 975.42"/><polygon class="cw" points="656.17 973.46 650.08 975.2 656.48 974.85 656.17 973.46"/><polygon class="cx" points="638.71 983.21 637.55 988.99 644.65 985.17 638.71 983.21"/><polygon class="cy" points="642.6 1002.51 641.43 1019.73 643.74 1018.44 642.6 1002.51"/><polygon class="cz" points="635.53 999.66 620.39 1020.66 641.43 1019.73 635.53 999.66"/><polygon class="da" points="620.39 1020.66 592.76 1031.95 643.83 1039.6 620.39 1020.66"/><polygon class="db" points="628.69 890.27 623.21 912.88 642.63 915.14 628.69 890.27"/><polygon class="dc" points="647.51 963.39 639.6 975.42 650.08 975.2 647.51 963.39"/><polygon class="dd" points="650.08 975.2 649.74 978.23 656.48 974.85 650.08 975.2"/><polygon class="de" points="623.21 912.88 629.82 958.99 642.63 915.14 623.21 912.88"/><polygon class="df" points="657.24 892.07 667.2 889.04 667.86 876.18 657.24 892.07"/><polygon class="dg" points="592.76 1031.95 614.7 1080.73 643.83 1039.6 592.76 1031.95"/><polygon class="dh" points="642.6 1002.51 643.74 1018.44 645.87 1017.9 642.6 1002.51"/><polygon class="di" points="656.13 1097.82 657.31 1098.05 657.96 1089.16 656.13 1097.82"/><polygon class="dj" points="635.53 999.66 642.6 1002.51 647.95 991.99 635.53 999.66"/><polygon class="dk" points="642.63 915.14 656.46 947.51 660.62 926.74 642.63 915.14"/><polygon class="dl" points="636.04 1107.29 648.89 1149.42 658.19 1125.33 636.04 1107.29"/><polygon class="dm" points="637.55 988.99 635.53 999.66 647.95 991.99 637.55 988.99"/><polygon class="dn" points="629.82 958.99 639.6 975.42 647.51 963.39 629.82 958.99"/><polygon class="do" points="644.65 985.17 637.55 988.99 647.95 991.99 644.65 985.17"/><polygon points="531.14 1033.16 82.8 1166 648.89 1149.42 531.14 1033.16"/><polygon class="dp" points="607.67 1090.27 531.14 1033.16 648.89 1149.42 607.67 1090.27"/><polygon class="a" points="994.16 517.21 1178.05 796.47 1682.8 632.5 994.16 517.21"/><polygon class="dq" points="657.31 855.88 657.24 892.07 667.86 876.18 657.31 855.88"/><polygon class="dr" points="649.74 978.23 647.95 991.99 656.48 974.85 649.74 978.23"/><polygon class="ds" points="648.23 978.14 644.65 985.17 649.74 978.23 648.23 978.14"/><polygon class="dt" points="649.9 913.43 642.63 915.14 660.62 926.74 649.9 913.43"/><polygon class="du" points="644.65 985.17 647.95 991.99 649.74 978.23 644.65 985.17"/><polygon class="dv" points="614.7 1080.73 628.07 1086.76 652.79 1062.82 614.7 1080.73"/><polygon class="dw" points="628.07 1086.76 640.42 1085.15 652.79 1062.82 628.07 1086.76"/><polygon class="dx" points="643.83 1039.6 614.7 1080.73 652.79 1062.82 643.83 1039.6"/><polygon class="dy" points="652.79 1062.82 653.22 1071.32 675.05 1071.67 652.79 1062.82"/><polygon class="dz" points="640.42 1085.15 636.04 1107.29 656.13 1097.82 640.42 1085.15"/><polygon class="ea" points="657.31 1098.05 656.13 1097.82 658.19 1125.33 657.31 1098.05"/><polygon class="eb" points="641.43 1019.73 643.83 1039.6 655.91 1028.57 641.43 1019.73"/><polygon class="ec" points="617.85 875.82 628.69 890.27 657.31 855.88 617.85 875.82"/><polygon class="cp" points="643.74 1018.44 641.43 1019.73 655.91 1028.57 643.74 1018.44"/><polygon class="ed" points="645.87 1017.9 643.74 1018.44 655.91 1028.57 645.87 1017.9"/><polygon class="ee" points="598.21 834.16 617.85 875.82 657.31 855.88 598.21 834.16"/><polygon class="ef" points="629.82 958.99 647.51 963.39 656.46 947.51 629.82 958.99"/><polygon class="eg" points="642.63 915.14 629.82 958.99 656.46 947.51 642.63 915.14"/><polygon class="eh" points="647.51 963.39 650.08 975.2 656.17 973.46 647.51 963.39"/><polygon class="ei" points="657.24 892.07 649.9 913.43 659.96 905.36 657.24 892.07"/><polygon class="ej" points="656.13 1097.82 636.04 1107.29 658.19 1125.33 656.13 1097.82"/><polygon class="ek" points="666.95 1087.16 657.31 1098.05 672.35 1098.03 666.95 1087.16"/><polygon class="el" points="628.69 890.27 642.63 915.14 657.24 892.07 628.69 890.27"/><polygon class="em" points="640.42 1085.15 656.13 1097.82 657.96 1089.16 640.42 1085.15"/><polygon class="en" points="653.22 1071.32 666.95 1087.16 675.05 1071.67 653.22 1071.32"/><polygon class="eo" points="613.25 811.98 598.21 834.16 657.31 855.88 613.25 811.98"/><polygon class="ep" points="695.39 952.37 687.57 954.76 699.02 1002.08 695.39 952.37"/><polygon class="eq" points="653.22 1071.32 640.42 1085.15 657.96 1089.16 653.22 1071.32"/><polygon class="er" points="642.6 1002.51 645.87 1017.9 658 1011.97 642.6 1002.51"/><polygon class="es" points="687.57 954.76 678.95 1005.29 699.02 1002.08 687.57 954.76"/><polygon class="et" points="645.87 1017.9 655.91 1028.57 658 1011.97 645.87 1017.9"/><polygon class="eu" points="657.31 1098.05 658.19 1125.33 672.35 1098.03 657.31 1098.05"/><polygon class="ev" points="677.24 921.23 681.25 922.73 686.43 918.59 677.24 921.23"/><polygon class="ew" points="643.83 1039.6 652.79 1062.82 658.52 1048.33 643.83 1039.6"/><polygon class="ex" points="655.91 1028.57 643.83 1039.6 658.52 1048.33 655.91 1028.57"/><polygon class="ey" points="642.6 1002.51 658 1011.97 659.52 1003.75 642.6 1002.51"/><polygon class="ez" points="647.95 991.99 642.6 1002.51 659.52 1003.75 647.95 991.99"/><polygon class="fa" points="657.24 892.07 659.96 905.36 667.2 889.04 657.24 892.07"/><polygon class="fb" points="656.48 974.85 647.95 991.99 659.52 1003.75 656.48 974.85"/><polygon class="fc" points="673.58 1043.96 658.52 1048.33 675.05 1071.67 673.58 1043.96"/><polygon class="r" points="660.62 926.74 656.46 947.51 664.29 929.49 660.62 926.74"/><polygon class="fd" points="647.51 963.39 656.17 973.46 666.87 957.28 647.51 963.39"/><polygon class="fe" points="656.46 947.51 647.51 963.39 666.87 957.28 656.46 947.51"/><polygon class="ff" points="656.17 973.46 656.48 974.85 666.87 957.28 656.17 973.46"/><polygon class="fg" points="653.22 1071.32 657.96 1089.16 666.95 1087.16 653.22 1071.32"/><polygon class="fh" points="658.52 1048.33 652.79 1062.82 675.05 1071.67 658.52 1048.33"/><polygon class="fi" points="656.46 947.51 666.87 957.28 673.26 937.33 656.46 947.51"/><polygon class="fj" points="657.96 1089.16 657.31 1098.05 666.95 1087.16 657.96 1089.16"/><polygon class="fk" points="681.22 904.93 677.24 921.23 686.43 918.59 681.22 904.93"/><polygon class="fl" points="613.25 811.98 657.31 855.88 702.71 835.47 613.25 811.98"/><polygon class="fm" points="664.29 929.49 656.46 947.51 673.26 937.33 664.29 929.49"/><polygon class="fn" points="673.26 937.33 666.87 957.28 679.16 944.15 673.26 937.33"/><polygon class="fo" points="677.24 921.23 678.34 925.79 678.83 923.45 677.24 921.23"/><polygon class="fp" points="655.91 1028.57 658.52 1048.33 673.58 1043.96 655.91 1028.57"/><polygon class="fq" points="667.2 889.04 681.22 904.93 686.21 893.41 667.2 889.04"/><polygon class="fr" points="667.86 876.18 667.2 889.04 686.21 893.41 667.86 876.18"/><polygon class="fs" points="659.52 1003.75 658 1011.97 678.95 1005.29 659.52 1003.75"/><polygon class="ft" points="659.96 905.36 660.62 926.74 677.24 921.23 659.96 905.36"/><polygon class="fu" points="664.29 929.49 673.26 937.33 676.06 929.7 664.29 929.49"/><polygon class="fv" points="681.22 904.93 686.43 918.59 688.54 899.53 681.22 904.93"/><polygon class="fw" points="686.21 893.41 681.22 904.93 688.54 899.53 686.21 893.41"/><polygon class="fx" points="677.24 921.23 676.06 929.7 678.34 925.79 677.24 921.23"/><polygon class="fy" points="664.29 929.49 676.06 929.7 677.24 921.23 664.29 929.49"/><polygon class="fz" points="675.05 1071.67 666.95 1087.16 677.39 1082.5 675.05 1071.67"/><polygon class="ga" points="660.62 926.74 664.29 929.49 677.24 921.23 660.62 926.74"/><polygon class="gb" points="666.95 1087.16 672.35 1098.03 677.39 1082.5 666.95 1087.16"/><polygon class="gc" points="656.48 974.85 659.52 1003.75 678.95 1005.29 656.48 974.85"/><polygon class="gd" points="676.06 929.7 682.31 941.42 690.83 925.03 676.06 929.7"/><polygon class="ge" points="673.58 1043.96 683.53 1041.9 685.13 1032.11 673.58 1043.96"/><polygon class="gf" points="685.4 1046.38 694.2 1068.21 700.45 1050.93 685.4 1046.38"/><polygon class="gg" points="677.24 921.23 678.83 923.45 681.25 922.73 677.24 921.23"/><polygon class="gh" points="683.53 1041.9 673.58 1043.96 685.4 1046.38 683.53 1041.9"/><polygon class="gi" points="678.83 923.45 678.34 925.79 681.25 922.73 678.83 923.45"/><polygon class="gj" points="673.58 1043.96 675.05 1071.67 685.4 1046.38 673.58 1043.96"/><polygon class="gk" points="659.96 905.36 677.24 921.23 681.22 904.93 659.96 905.36"/><polygon class="gl" points="667.2 889.04 659.96 905.36 681.22 904.93 667.2 889.04"/><polygon class="gm" points="685.4 1046.38 675.05 1071.67 694.2 1068.21 685.4 1046.38"/><polygon class="gn" points="658.19 1125.33 686.94 1137.09 687.17 1134.39 658.19 1125.33"/><polygon class="go" points="673.26 937.33 679.16 944.15 682.31 941.42 673.26 937.33"/><polygon class="gp" points="676.06 929.7 673.26 937.33 682.31 941.42 676.06 929.7"/><polygon class="gq" points="655.91 1028.57 673.58 1043.96 685.13 1032.11 655.91 1028.57"/><polygon class="gr" points="658 1011.97 655.91 1028.57 685.13 1032.11 658 1011.97"/><polygon class="gs" points="678.95 1005.29 658 1011.97 685.13 1032.11 678.95 1005.29"/><polygon class="gt" points="672.35 1098.03 658.19 1125.33 687.17 1134.39 672.35 1098.03"/><polygon class="gu" points="678.34 925.79 676.06 929.7 690.83 925.03 678.34 925.79"/><polygon class="gv" points="686.94 1137.09 697.6 1150.32 700.62 1137.06 686.94 1137.09"/><polygon class="gw" points="687.17 1134.39 686.94 1137.09 700.62 1137.06 687.17 1134.39"/><polygon class="gx" points="686.43 918.59 681.25 922.73 690.83 925.03 686.43 918.59"/><polygon class="a" points="1664.5 188.1 994.16 517.21 1682.8 632.5 1664.5 188.1"/><polygon class="a" points="1178.05 796.47 1264.82 1014.86 1682.8 632.5 1178.05 796.47"/><polygon class="gy" points="686.94 1137.09 648.89 1149.42 687.08 1150.11 686.94 1137.09"/><polygon class="gz" points="658.19 1125.33 648.89 1149.42 686.94 1137.09 658.19 1125.33"/><polygon class="ha" points="679.16 944.15 666.87 957.28 687.57 954.76 679.16 944.15"/><polygon class="hb" points="666.87 957.28 656.48 974.85 687.57 954.76 666.87 957.28"/><polygon class="hc" points="656.48 974.85 678.95 1005.29 687.57 954.76 656.48 974.85"/><polygon class="hd" points="682.31 941.42 679.16 944.15 687.57 954.76 682.31 941.42"/><polygon class="he" points="688.54 899.53 686.43 918.59 690.83 925.03 688.54 899.53"/><polygon class="hf" points="681.25 922.73 678.34 925.79 690.83 925.03 681.25 922.73"/><polygon class="hg" points="675.05 1071.67 677.39 1082.5 694.2 1068.21 675.05 1071.67"/><polygon class="hh" points="696.14 1094.13 687.17 1134.39 700.62 1137.06 696.14 1094.13"/><polygon class="hi" points="685.13 1032.11 683.53 1041.9 700.45 1050.93 685.13 1032.11"/><polygon class="hj" points="725.75 1036.4 726.78 1045.29 733.37 1055.72 725.75 1036.4"/><polygon class="hk" points="678.95 1005.29 685.13 1032.11 696.97 1021.66 678.95 1005.29"/><polygon class="hl" points="682.31 941.42 687.57 954.76 695.39 952.37 682.31 941.42"/><polygon class="hm" points="690.83 925.03 682.31 941.42 695.39 952.37 690.83 925.03"/><polygon class="hn" points="672.35 1098.03 687.17 1134.39 696.14 1094.13 672.35 1098.03"/><polygon class="ho" points="677.39 1082.5 672.35 1098.03 696.14 1094.13 677.39 1082.5"/><polygon class="hp" points="694.2 1068.21 677.39 1082.5 696.14 1094.13 694.2 1068.21"/><polygon class="hq" points="678.95 1005.29 696.97 1021.66 699.02 1002.08 678.95 1005.29"/><polygon class="hr" points="825.86 1064.69 830.91 1116.28 839.32 1111.74 825.86 1064.69"/><polygon class="hs" points="686.94 1137.09 687.08 1150.11 697.6 1150.32 686.94 1137.09"/><polygon class="ht" points="728.03 1065.14 741.93 1094.32 744.38 1070.32 728.03 1065.14"/><polygon class="hu" points="857.16 1111.79 830.91 1116.28 882.8 1166 857.16 1111.79"/><polygon class="hv" points="683.53 1041.9 685.4 1046.38 700.45 1050.93 683.53 1041.9"/><polygon class="hw" points="769.23 1003.8 768.65 1006.19 769.47 1003.52 769.23 1003.8"/><polygon class="hx" points="780.57 1071.14 773.66 1110.81 785.82 1110.89 780.57 1071.14"/><polygon class="hy" points="667.86 876.18 686.21 893.41 702.46 836.62 667.86 876.18"/><polygon class="hz" points="686.21 893.41 688.54 899.53 702.46 836.62 686.21 893.41"/><polygon class="fr" points="657.31 855.88 667.86 876.18 702.46 836.62 657.31 855.88"/><polygon class="ia" points="699.02 1002.08 696.97 1021.66 711.45 1001.41 699.02 1002.08"/><polygon class="ib" points="695.39 952.37 699.02 1002.08 711.45 1001.41 695.39 952.37"/><polygon class="ic" points="726.78 1045.29 728.03 1065.14 733.37 1055.72 726.78 1045.29"/><polygon class="id" points="696.97 1021.66 685.13 1032.11 709.08 1043.76 696.97 1021.66"/><polygon class="ie" points="685.13 1032.11 700.45 1050.93 709.08 1043.76 685.13 1032.11"/><polygon class="if" points="744.65 1067.98 744.38 1070.32 756.93 1080.99 744.65 1067.98"/><polygon class="ig" points="741.93 1094.32 720.75 1125.72 743.75 1128.6 741.93 1094.32"/><polygon class="ih" points="720.75 1125.72 700.62 1137.06 733.55 1134.32 720.75 1125.72"/><polygon class="a" points="82.8 632.5 613.25 811.98 753.12 435.96 82.8 632.5"/><polygon class="ii" points="696.97 1021.66 709.08 1043.76 725.75 1036.4 696.97 1021.66"/><polygon class="ij" points="711.45 1001.41 696.97 1021.66 725.75 1036.4 711.45 1001.41"/><polygon class="ik" points="725.75 1036.4 709.08 1043.76 726.78 1045.29 725.75 1036.4"/><polygon class="il" points="694.2 1068.21 696.14 1094.13 728.03 1065.14 694.2 1068.21"/><polygon class="im" points="700.45 1050.93 694.2 1068.21 728.03 1065.14 700.45 1050.93"/><polygon class="in" points="709.08 1043.76 700.45 1050.93 728.03 1065.14 709.08 1043.76"/><polygon class="io" points="726.78 1045.29 709.08 1043.76 728.03 1065.14 726.78 1045.29"/><polygon class="ip" points="700.62 1137.06 697.6 1150.32 733.55 1134.32 700.62 1137.06"/><polygon class="iq" points="768.65 1006.19 744.65 1067.98 780.57 1071.14 768.65 1006.19"/><polygon class="ir" points="720.75 1125.72 733.55 1134.32 743.75 1128.6 720.75 1125.72"/><polygon class="is" points="696.14 1094.13 720.75 1125.72 741.93 1094.32 696.14 1094.13"/><polygon class="it" points="728.03 1065.14 696.14 1094.13 741.93 1094.32 728.03 1065.14"/><polygon class="iu" points="888.78 1057.15 888.69 1058.52 898.68 1065.94 888.78 1057.15"/><polygon class="iv" points="785.82 1110.89 773.66 1110.81 793.75 1116.25 785.82 1110.89"/><polygon class="di" points="82.8 99 82.8 632.5 753.12 435.96 82.8 99"/><polygon class="iw" points="733.37 1055.72 728.03 1065.14 744.65 1067.98 733.37 1055.72"/><polygon class="ix" points="728.03 1065.14 744.38 1070.32 744.65 1067.98 728.03 1065.14"/><polygon class="iy" points="725.75 1036.4 733.37 1055.72 768.65 1006.19 725.75 1036.4"/><polygon class="iz" points="733.37 1055.72 744.65 1067.98 768.65 1006.19 733.37 1055.72"/><polygon class="ja" points="711.45 1001.41 725.75 1036.4 768.65 1006.19 711.45 1001.41"/><polygon class="jb" points="756.93 1080.99 773.66 1110.81 780.57 1071.14 756.93 1080.99"/><polygon class="jc" points="711.45 1001.41 768.65 1006.19 769.23 1003.8 711.45 1001.41"/><polygon class="jd" points="773.66 1110.81 743.75 1128.6 793.75 1116.25 773.66 1110.81"/><polygon class="je" points="825.86 1064.69 793.75 1116.25 830.91 1116.28 825.86 1064.69"/><polygon class="a" points="882.8 99 1665.7 138.89 1682.8 99 882.8 99"/><polygon class="jf" points="817.03 708.39 885.03 654.85 886.47 615.44 817.03 708.39"/><polygon class="jg" points="803.78 992.44 825.24 1007.68 845.07 979.89 803.78 992.44"/><polygon class="jh" points="695.39 952.37 711.45 1001.41 769.47 1003.52 695.39 952.37"/><polygon class="ji" points="741.93 1094.32 743.75 1128.6 773.66 1110.81 741.93 1094.32"/><polygon class="jj" points="756.93 1080.99 741.93 1094.32 773.66 1110.81 756.93 1080.99"/><polygon class="jk" points="744.65 1067.98 756.93 1080.99 780.57 1071.14 744.65 1067.98"/><polygon class="jl" points="769.47 1003.52 768.65 1006.19 803.78 992.44 769.47 1003.52"/><polygon class="jm" points="870.01 475.2 842.95 515.31 870.17 520.86 870.01 475.2"/><polygon class="jn" points="825.24 1007.68 780.57 1071.14 825.86 1064.69 825.24 1007.68"/><polygon class="jo" points="828.7 379.97 849.07 378.88 882.8 99 828.7 379.97"/><polygon class="jp" points="880.63 928.86 869.23 942.15 881.27 933.89 880.63 928.86"/><polygon class="jq" points="690.83 925.03 695.39 952.37 803.78 992.44 690.83 925.03"/><polygon class="jr" points="695.39 952.37 769.47 1003.52 803.78 992.44 695.39 952.37"/><polygon class="js" points="688.54 899.53 690.83 925.03 803.78 992.44 688.54 899.53"/><polygon class="jt" points="817.03 708.39 860.61 734.85 883.72 667.18 817.03 708.39"/><polygon class="jo" points="860.61 734.85 874.34 738.59 883.72 667.18 860.61 734.85"/><polygon class="ju" points="769.23 1003.8 769.47 1003.52 803.78 992.44 769.23 1003.8"/><polygon class="jv" points="825.86 1064.69 839.32 1111.74 857.16 1111.79 825.86 1064.69"/><polygon class="jw" points="613.25 811.98 702.71 835.47 817.03 708.39 613.25 811.98"/><polygon class="jx" points="753.12 435.96 613.25 811.98 817.03 708.39 753.12 435.96"/><polygon class="jy" points="803.78 992.44 768.65 1006.19 825.24 1007.68 803.78 992.44"/><polygon class="jz" points="768.65 1006.19 780.57 1071.14 825.24 1007.68 768.65 1006.19"/><polygon class="ka" points="839.32 1111.74 830.91 1116.28 857.16 1111.79 839.32 1111.74"/><polygon class="kb" points="785.82 1110.89 793.75 1116.25 825.86 1064.69 785.82 1110.89"/><polygon class="kc" points="780.57 1071.14 785.82 1110.89 825.86 1064.69 780.57 1071.14"/><polygon class="kd" points="804.06 394.59 828.7 379.97 882.8 99 804.06 394.59"/><polygon class="ke" points="871.25 1056.59 888.69 1058.52 888.78 1057.15 871.25 1056.59"/><polygon class="kf" points="753.12 435.96 817.03 708.39 842.95 515.31 753.12 435.96"/><polygon class="kg" points="898.68 1065.94 901.57 1068.38 911.18 1047.25 898.68 1065.94"/><polygon class="jw" points="817.03 708.39 702.71 835.47 838.82 733.19 817.03 708.39"/><polygon class="kh" points="885 1000.85 871.25 1056.59 888.78 1057.15 885 1000.85"/><polygon class="ki" points="845.07 979.89 825.24 1007.68 855.93 1001.1 845.07 979.89"/><polygon class="kj" points="1011.28 1001.2 1005.46 998.93 1018.21 1009.27 1011.28 1001.2"/><polygon class="kk" points="966.54 987.25 950.7 1003.89 967.2 989.07 966.54 987.25"/><polygon class="kl" points="870.58 470.38 870.01 475.2 883.35 463.21 870.58 470.38"/><polygon class="km" points="849.07 378.88 828.7 379.97 861.43 462.12 849.07 378.88"/><polygon class="kn" points="803.78 992.44 845.07 979.89 869.23 942.15 803.78 992.44"/><polygon class="ko" points="817.03 708.39 838.82 733.19 860.61 734.85 817.03 708.39"/><polygon class="kp" points="870.17 520.86 868.33 535.43 874.53 532.64 870.17 520.86"/><polygon class="kq" points="868.33 535.43 881.87 587.58 882.73 587.45 868.33 535.43"/><polygon class="kr" points="874.53 532.64 868.33 535.43 882.73 587.45 874.53 532.64"/><polygon class="ks" points="828.7 379.97 804.06 394.59 861.43 462.12 828.7 379.97"/><polygon class="kt" points="753.12 435.96 842.95 515.31 861.43 462.12 753.12 435.96"/><polygon class="di" points="804.06 394.59 753.12 435.96 861.43 462.12 804.06 394.59"/><polygon class="ku" points="875.93 888.88 876.19 892.49 876.46 887.45 875.93 888.88"/><polygon class="kv" points="838.82 733.19 702.71 835.47 876.46 887.45 838.82 733.19"/><polygon class="kw" points="861.43 462.12 870.01 475.2 870.58 470.38 861.43 462.12"/><polygon class="kx" points="860.61 734.85 838.82 733.19 876.46 887.45 860.61 734.85"/><polygon class="ky" points="825.24 1007.68 825.86 1064.69 871.25 1056.59 825.24 1007.68"/><polygon class="kz" points="842.95 515.31 817.03 708.39 881.87 587.58 842.95 515.31"/><polygon class="la" points="825.86 1064.69 857.16 1111.79 871.25 1056.59 825.86 1064.69"/><polygon class="ks" points="753.12 435.96 804.06 394.59 882.8 99 753.12 435.96"/><polygon class="lb" points="842.95 515.31 868.33 535.43 870.17 520.86 842.95 515.31"/><polygon class="lc" points="861.43 462.12 842.95 515.31 870.01 475.2 861.43 462.12"/><polygon class="ld" points="870.01 475.2 870.17 520.86 896.37 470.51 870.01 475.2"/><polygon class="le" points="855.93 1001.1 825.24 1007.68 871.25 1056.59 855.93 1001.1"/><polygon class="a" points="82.8 99 753.12 435.96 882.8 99 82.8 99"/><polygon class="lf" points="830.91 1116.28 793.75 1116.25 882.8 1166 830.91 1116.28"/><polygon class="lg" points="869.89 465.99 861.43 462.12 870.58 470.38 869.89 465.99"/><polygon class="lh" points="870.56 467.73 869.89 465.99 870.58 470.38 870.56 467.73"/><polygon class="li" points="803.78 992.44 869.23 942.15 876.19 892.49 803.78 992.44"/><polygon class="lj" points="875.93 888.88 688.54 899.53 876.19 892.49 875.93 888.88"/><polygon class="lk" points="769.47 1003.52 711.45 1001.41 875.93 888.88 769.47 1003.52"/><polygon class="ll" points="803.78 992.44 769.47 1003.52 875.93 888.88 803.78 992.44"/><polygon class="lk" points="711.45 1001.41 769.23 1003.8 875.93 888.88 711.45 1001.41"/><polygon class="ll" points="769.23 1003.8 803.78 992.44 875.93 888.88 769.23 1003.8"/><polygon class="lm" points="688.54 899.53 803.78 992.44 876.19 892.49 688.54 899.53"/><polygon class="ln" points="869.89 465.99 870.56 467.73 883.35 463.21 869.89 465.99"/><polygon class="lo" points="702.46 836.62 688.54 899.53 875.93 888.88 702.46 836.62"/><polygon class="lp" points="870.17 520.86 874.53 532.64 878.33 531.11 870.17 520.86"/><polygon class="lq" points="702.71 835.47 702.46 836.62 876.46 887.45 702.71 835.47"/><polygon class="df" points="702.46 836.62 875.93 888.88 876.46 887.45 702.46 836.62"/><polygon class="lr" points="874.34 738.59 860.61 734.85 876.46 887.45 874.34 738.59"/><polygon class="ls" points="1665.7 138.89 1670.6 129.72 1682.8 99 1665.7 138.89"/><polygon class="lt" points="1667.74 162.52 1664.5 188.1 1670.75 184.82 1667.74 162.52"/><polygon class="lu" points="921.19 745.3 926.67 744.6 927.8 740.38 921.19 745.3"/><polygon class="lv" points="876.19 892.49 869.23 942.15 880.63 928.86 876.19 892.49"/><polygon class="lw" points="895.95 468.06 883.35 463.21 896.37 470.51 895.95 468.06"/><polygon class="lx" points="868.33 535.43 842.95 515.31 881.87 587.58 868.33 535.43"/><polygon class="ly" points="861.43 462.12 869.89 465.99 883.35 463.21 861.43 462.12"/><polygon class="lz" points="743.75 1128.6 733.55 1134.32 882.8 1166 743.75 1128.6"/><polygon class="ma" points="793.75 1116.25 743.75 1128.6 882.8 1166 793.75 1116.25"/><polygon class="mb" points="733.55 1134.32 697.6 1150.32 882.8 1166 733.55 1134.32"/><polygon class="mc" points="870.56 467.73 870.58 470.38 883.35 463.21 870.56 467.73"/><polygon class="md" points="883.35 463.21 870.01 475.2 896.37 470.51 883.35 463.21"/><polygon class="me" points="904.9 1012.38 888.78 1057.15 911.18 1047.25 904.9 1012.38"/><polygon class="mf" points="895.6 466.19 895.95 468.06 903.16 461.02 895.6 466.19"/><polygon class="mg" points="849.07 378.88 861.43 462.12 883.35 463.21 849.07 378.88"/><polygon class="mh" points="931.24 733.66 938.41 731.45 953.45 702.36 931.24 733.66"/><polygon class="mi" points="855.93 1001.1 871.25 1056.59 885 1000.85 855.93 1001.1"/><polygon class="mj" points="883.35 463.21 895.6 466.19 903.16 461.02 883.35 463.21"/><polygon class="mk" points="881.87 587.58 817.03 708.39 886.47 615.44 881.87 587.58"/><polygon class="ml" points="845.07 979.89 855.93 1001.1 885 1000.85 845.07 979.89"/><polygon class="mm" points="869.23 942.15 845.07 979.89 885 1000.85 869.23 942.15"/><polygon class="mn" points="849.07 378.88 883.35 463.21 903.16 461.02 849.07 378.88"/><polygon class="mo" points="817.03 708.39 883.72 667.18 885.03 654.85 817.03 708.39"/><polygon class="mp" points="888.69 1058.52 871.25 1056.59 898.68 1065.94 888.69 1058.52"/><polygon class="mq" points="897.02 1000.09 885 1000.85 904.9 1012.38 897.02 1000.09"/><polygon class="mr" points="871.25 1056.59 857.16 1111.79 898.68 1065.94 871.25 1056.59"/><polygon class="ms" points="885 1000.85 888.78 1057.15 904.9 1012.38 885 1000.85"/><polygon class="mt" points="898.68 1065.94 857.16 1111.79 901.57 1068.38 898.68 1065.94"/><polygon class="mu" points="931.24 733.66 927.8 740.38 933.07 739.06 931.24 733.66"/><polygon class="mv" points="895.6 466.19 883.35 463.21 895.95 468.06 895.6 466.19"/><polygon class="mw" points="888.78 1057.15 898.68 1065.94 911.18 1047.25 888.78 1057.15"/><polygon class="mx" points="895.95 468.06 896.37 470.51 903.16 461.02 895.95 468.06"/><polygon class="my" points="870.17 520.86 878.33 531.11 898.85 534.56 870.17 520.86"/><polygon class="mz" points="869.23 942.15 885 1000.85 897.02 1000.09 869.23 942.15"/><polygon class="na" points="950.7 1003.89 952.57 1007.03 967.2 989.07 950.7 1003.89"/><polygon class="nb" points="881.27 933.89 869.23 942.15 897.02 1000.09 881.27 933.89"/><polygon class="nc" points="980.12 997.61 952.57 1007.03 982.65 1007.19 980.12 997.61"/><polygon class="nd" points="857.16 1111.79 882.8 1166 897.17 1128.06 857.16 1111.79"/><polygon class="ne" points="878.33 531.11 874.53 532.64 898.85 534.56 878.33 531.11"/><polygon class="nf" points="874.53 532.64 882.73 587.45 898.85 534.56 874.53 532.64"/><polygon class="ng" points="901.57 1068.38 857.16 1111.79 910.62 1106.6 901.57 1068.38"/><polygon class="nh" points="870.17 520.86 898.85 534.56 917.25 526.5 870.17 520.86"/><polygon class="ni" points="896.37 470.51 870.17 520.86 917.25 526.5 896.37 470.51"/><polygon class="nj" points="857.16 1111.79 897.17 1128.06 910.62 1106.6 857.16 1111.79"/><polygon class="nk" points="927.8 740.38 926.67 744.6 933.07 739.06 927.8 740.38"/><polygon class="nl" points="1059.45 1044.71 1027.4 1059.84 1062.16 1065.09 1059.45 1044.71"/><polygon class="nm" points="898.85 534.56 882.73 587.45 917.25 526.5 898.85 534.56"/><polygon class="nn" points="882.73 587.45 886.47 615.44 917.25 526.5 882.73 587.45"/><polygon class="no" points="883.72 667.18 931.24 733.66 953.45 702.36 883.72 667.18"/><polygon class="np" points="903.16 461.02 896.37 470.51 917.25 526.5 903.16 461.02"/><polygon class="nq" points="1147.27 984.35 1145.26 1012.94 1152.51 990.24 1147.27 984.35"/><polygon class="nr" points="874.34 738.59 876.46 887.45 921.19 745.3 874.34 738.59"/><polygon class="ns" points="897.02 1000.09 904.9 1012.38 930.45 979.41 897.02 1000.09"/><polygon class="nt" points="881.27 933.89 897.02 1000.09 930.45 979.41 881.27 933.89"/><polygon class="nu" points="921.19 745.3 876.46 887.45 926.67 744.6 921.19 745.3"/><polygon class="nv" points="1165.95 847.86 1172.19 863.87 1175.69 836.54 1165.95 847.86"/><polygon class="nw" points="938.41 731.45 931.24 733.66 938.44 735.25 938.41 731.45"/><polygon class="nx" points="952.57 1007.03 976.23 1027.2 982.65 1007.19 952.57 1007.03"/><polygon class="ny" points="931.24 733.66 933.07 739.06 938.44 735.25 931.24 733.66"/><polygon class="nz" points="933.07 739.06 926.67 744.6 938.44 735.25 933.07 739.06"/><polygon class="mg" points="883.72 667.18 874.34 738.59 931.24 733.66 883.72 667.18"/><polygon class="oa" points="881.27 933.89 930.45 979.41 937.02 943.01 881.27 933.89"/><polygon class="ob" points="921.19 745.3 927.8 740.38 931.24 733.66 921.19 745.3"/><polygon class="oc" points="874.34 738.59 921.19 745.3 931.24 733.66 874.34 738.59"/><polygon class="od" points="880.63 928.86 881.27 933.89 937.02 943.01 880.63 928.86"/><polygon class="oe" points="1005.46 998.93 987.57 1033.2 1018.21 1009.27 1005.46 998.93"/><polygon class="of" points="886.47 615.44 953.45 702.36 994.16 517.21 886.47 615.44"/><polygon class="og" points="950.7 1003.89 904.9 1012.38 952.57 1007.03 950.7 1003.89"/><polygon class="oh" points="904.9 1012.38 911.18 1047.25 952.57 1007.03 904.9 1012.38"/><polygon class="oi" points="930.45 979.41 904.9 1012.38 950.7 1003.89 930.45 979.41"/><polygon class="oj" points="876.46 887.45 876.19 892.49 943.14 937.08 876.46 887.45"/><polygon class="ok" points="880.63 928.86 937.02 943.01 943.14 937.08 880.63 928.86"/><polygon class="ol" points="876.19 892.49 880.63 928.86 943.14 937.08 876.19 892.49"/><polygon class="ks" points="849.07 378.88 903.16 461.02 963.22 396.76 849.07 378.88"/><polygon class="om" points="882.8 99 849.07 378.88 963.22 396.76 882.8 99"/><polygon class="on" points="938.41 731.45 938.44 735.25 953.45 702.36 938.41 731.45"/><polygon class="oo" points="885.03 654.85 883.72 667.18 953.45 702.36 885.03 654.85"/><polygon class="op" points="917.25 526.5 886.47 615.44 994.16 517.21 917.25 526.5"/><polygon class="oq" points="952.57 1007.03 972.73 1052.37 976.23 1027.2 952.57 1007.03"/><polygon class="or" points="886.47 615.44 885.03 654.85 953.45 702.36 886.47 615.44"/><polygon class="os" points="930.45 979.41 950.7 1003.89 966.54 987.25 930.45 979.41"/><polygon class="ot" points="943.14 937.08 937.02 943.01 966.54 987.25 943.14 937.08"/><polygon class="ou" points="984.43 1040.75 972.73 1052.37 985.2 1059.91 984.43 1040.75"/><polygon class="ov" points="937.02 943.01 930.45 979.41 966.54 987.25 937.02 943.01"/><polygon class="ow" points="901.57 1068.38 910.62 1106.6 971.56 1060.11 901.57 1068.38"/><polygon class="ox" points="911.18 1047.25 901.57 1068.38 971.56 1060.11 911.18 1047.25"/><polygon class="oy" points="911.18 1047.25 971.56 1060.11 972.73 1052.37 911.18 1047.25"/><polygon class="oz" points="952.57 1007.03 911.18 1047.25 972.73 1052.37 952.57 1007.03"/><polygon class="pa" points="972.73 1052.37 971.56 1060.11 974.89 1059.86 972.73 1052.37"/><polygon class="pb" points="897.17 1128.06 882.8 1166 986.53 1120.24 897.17 1128.06"/><polygon class="pc" points="976.23 1027.2 972.73 1052.37 984.43 1040.75 976.23 1027.2"/><polygon class="pd" points="910.62 1106.6 897.17 1128.06 986.53 1120.24 910.62 1106.6"/><polygon class="pe" points="966.54 987.25 967.2 989.07 980.12 997.61 966.54 987.25"/><polygon class="pf" points="967.2 989.07 952.57 1007.03 980.12 997.61 967.2 989.07"/><polygon class="pg" points="943.14 937.08 966.54 987.25 983.92 936 943.14 937.08"/><polygon class="ph" points="926.67 744.6 876.46 887.45 983.92 936 926.67 744.6"/><polygon class="pi" points="876.46 887.45 943.14 937.08 983.92 936 876.46 887.45"/><polygon class="pj" points="982.65 1007.19 987.57 1033.2 1005.46 998.93 982.65 1007.19"/><polygon class="pk" points="976.23 1027.2 984.43 1040.75 987.57 1033.2 976.23 1027.2"/><polygon class="pl" points="1050.41 1106.27 1041.61 1113.28 1056.97 1106.96 1050.41 1106.27"/><polygon class="pm" points="972.73 1052.37 974.89 1059.86 985.2 1059.91 972.73 1052.37"/><polygon class="pn" points="1009.86 1095.3 1017.76 1129.34 1041.61 1113.28 1009.86 1095.3"/><polygon class="po" points="983.92 936 1021 961.75 1047.78 898.84 983.92 936"/><polygon class="pp" points="971.56 1060.11 910.62 1106.6 986.53 1120.24 971.56 1060.11"/><polygon class="hr" points="974.89 1059.86 971.56 1060.11 986.53 1120.24 974.89 1059.86"/><polygon class="pq" points="1665.7 138.89 1664.5 188.1 1667.74 162.52 1665.7 138.89"/><polygon class="pr" points="963.22 396.76 903.16 461.02 994.16 517.21 963.22 396.76"/><polygon class="ps" points="982.65 1007.19 976.23 1027.2 987.57 1033.2 982.65 1007.19"/><polygon class="pt" points="903.16 461.02 917.25 526.5 994.16 517.21 903.16 461.02"/><polygon class="pu" points="980.12 997.61 982.65 1007.19 1005.46 998.93 980.12 997.61"/><polygon class="pv" points="1005.46 998.93 1011.28 1001.2 1021 961.75 1005.46 998.93"/><polygon class="pw" points="1007.15 1071.29 985.2 1059.91 1009.86 1095.3 1007.15 1071.29"/><polygon class="px" points="974.89 1059.86 986.53 1120.24 1009.86 1095.3 974.89 1059.86"/><polygon class="py" points="1013.47 1062.07 1027.4 1059.84 1030.33 1045.25 1013.47 1062.07"/><polygon class="pz" points="985.2 1059.91 974.89 1059.86 1009.86 1095.3 985.2 1059.91"/><polygon class="qa" points="1017.76 1129.34 1023.15 1142.31 1041.61 1113.28 1017.76 1129.34"/><polygon class="qb" points="1009.86 1095.3 986.53 1120.24 1017.76 1129.34 1009.86 1095.3"/><polygon class="qc" points="985.2 1059.91 1007.15 1071.29 1013.47 1062.07 985.2 1059.91"/><polygon class="qd" points="987.57 1033.2 984.43 1040.75 1013.47 1062.07 987.57 1033.2"/><polygon class="qe" points="984.43 1040.75 985.2 1059.91 1013.47 1062.07 984.43 1040.75"/><polygon class="qf" points="1021 961.75 1011.28 1001.2 1044.56 974.47 1021 961.75"/><polygon class="qg" points="1011.28 1001.2 1018.21 1009.27 1044.56 974.47 1011.28 1001.2"/><polygon class="qh" points="966.54 987.25 980.12 997.61 1021 961.75 966.54 987.25"/><polygon class="qi" points="983.92 936 966.54 987.25 1021 961.75 983.92 936"/><polygon class="qj" points="980.12 997.61 1005.46 998.93 1021 961.75 980.12 997.61"/><polygon class="qk" points="986.53 1120.24 882.8 1166 1023.15 1142.31 986.53 1120.24"/><polygon class="ql" points="1017.76 1129.34 986.53 1120.24 1023.15 1142.31 1017.76 1129.34"/><polygon class="qm" points="1018.21 1009.27 987.57 1033.2 1030.33 1045.25 1018.21 1009.27"/><polygon class="qn" points="1013.47 1062.07 1007.15 1071.29 1027.4 1059.84 1013.47 1062.07"/><polygon class="qo" points="1007.15 1071.29 1009.86 1095.3 1027.4 1059.84 1007.15 1071.29"/><polygon class="qp" points="987.57 1033.2 1013.47 1062.07 1030.33 1045.25 987.57 1033.2"/><polygon class="qq" points="1123.01 885.09 1104.86 904.8 1128.39 886.43 1123.01 885.09"/><polygon class="qr" points="1050.41 1106.27 1056.97 1106.96 1062.16 1065.09 1050.41 1106.27"/><polygon class="qs" points="1044.56 974.47 1071.96 1003.17 1073.24 1003.6 1044.56 974.47"/><polygon class="qt" points="926.67 744.6 983.92 936 1047.78 898.84 926.67 744.6"/><polygon class="qu" points="938.44 735.25 926.67 744.6 1047.78 898.84 938.44 735.25"/><polygon class="qv" points="1027.4 1059.84 1009.86 1095.3 1048.77 1106.44 1027.4 1059.84"/><polygon class="qw" points="1009.86 1095.3 1041.61 1113.28 1048.77 1106.44 1009.86 1095.3"/><polygon class="qx" points="1057.2 1001.74 1030.33 1045.25 1059.45 1044.71 1057.2 1001.74"/><polygon class="qy" points="1048.77 1106.44 1041.61 1113.28 1050.41 1106.27 1048.77 1106.44"/><polygon class="qz" points="1041.61 1113.28 1023.15 1142.31 1056.97 1106.96 1041.61 1113.28"/><polygon class="ra" points="1133.17 887.92 1143.58 888.82 1154.9 847.36 1133.17 887.92"/><polygon class="lq" points="1044.56 974.47 1102.84 970.23 1103.4 936.59 1044.56 974.47"/><polygon class="rb" points="1102.84 970.23 1093.62 1022.11 1103.43 1024.36 1102.84 970.23"/><polygon class="rc" points="1030.33 1045.25 1027.4 1059.84 1059.45 1044.71 1030.33 1045.25"/><polygon class="rd" points="1018.21 1009.27 1030.33 1045.25 1057.2 1001.74 1018.21 1009.27"/><polygon class="re" points="1044.56 974.47 1018.21 1009.27 1057.2 1001.74 1044.56 974.47"/><polygon class="rf" points="1071.96 1003.17 1069.52 1004.79 1073.24 1003.6 1071.96 1003.17"/><polygon class="rg" points="1027.4 1059.84 1048.77 1106.44 1062.16 1065.09 1027.4 1059.84"/><polygon class="rh" points="1048.77 1106.44 1050.41 1106.27 1062.16 1065.09 1048.77 1106.44"/><polygon class="ri" points="1069.52 1004.79 1069.93 1032.27 1073.24 1003.6 1069.52 1004.79"/><polygon class="rj" points="1075.1 916.44 1044.56 974.47 1103.4 936.59 1075.1 916.44"/><polygon class="rk" points="1134.82 976.65 1145.26 1012.94 1147.27 984.35 1134.82 976.65"/><polygon class="rl" points="1069.93 1032.27 1059.45 1044.71 1071.63 1037.27 1069.93 1032.27"/><polygon class="rm" points="1071.63 1037.27 1059.45 1044.71 1072.99 1042.03 1071.63 1037.27"/><polygon class="rn" points="1069.52 1004.79 1057.2 1001.74 1069.93 1032.27 1069.52 1004.79"/><polygon class="ro" points="1057.2 1001.74 1059.45 1044.71 1069.93 1032.27 1057.2 1001.74"/><polygon class="rp" points="1062.64 899.59 1075.1 916.44 1075.24 899.18 1062.64 899.59"/><polygon class="rq" points="1132.29 923.51 1133.48 940.35 1137.1 921.49 1132.29 923.51"/><polygon class="rh" points="1044.56 974.47 1057.2 1001.74 1071.96 1003.17 1044.56 974.47"/><polygon class="rr" points="1057.2 1001.74 1069.52 1004.79 1071.96 1003.17 1057.2 1001.74"/><polygon class="rs" points="1075.24 899.18 1075.1 916.44 1079.04 903.61 1075.24 899.18"/><polygon class="po" points="1103.49 899.52 1079.04 903.61 1104.86 904.8 1103.49 899.52"/><polygon class="rt" points="1088.74 1037.22 1077.21 1051.55 1095.5 1063.81 1088.74 1037.22"/><polygon class="ru" points="1021 961.75 1044.56 974.47 1075.1 916.44 1021 961.75"/><polygon class="rv" points="1047.78 898.84 1021 961.75 1075.1 916.44 1047.78 898.84"/><polygon class="rw" points="1062.64 899.59 1047.78 898.84 1075.1 916.44 1062.64 899.59"/><polygon class="rx" points="1059.45 1044.71 1062.16 1065.09 1077.21 1051.55 1059.45 1044.71"/><polygon class="ry" points="1079.04 903.61 1075.1 916.44 1104.86 904.8 1079.04 903.61"/><polygon class="rz" points="1072.99 1042.03 1059.45 1044.71 1077.21 1051.55 1072.99 1042.03"/><polygon class="sa" points="1087.62 1033.99 1072.99 1042.03 1088.74 1037.22 1087.62 1033.99"/><polygon class="sb" points="1072.99 1042.03 1077.21 1051.55 1088.74 1037.22 1072.99 1042.03"/><polygon class="sc" points="1069.93 1032.27 1087.62 1033.99 1093.62 1022.11 1069.93 1032.27"/><polygon class="sd" points="1071.63 1037.27 1072.99 1042.03 1087.62 1033.99 1071.63 1037.27"/><polygon class="se" points="1069.93 1032.27 1071.63 1037.27 1087.62 1033.99 1069.93 1032.27"/><polygon class="sf" points="1073.24 1003.6 1069.93 1032.27 1093.62 1022.11 1073.24 1003.6"/><polygon class="sg" points="1077.21 1051.55 1062.16 1065.09 1095.5 1063.81 1077.21 1051.55"/><polygon class="sh" points="1062.16 1065.09 1056.97 1106.96 1095.5 1063.81 1062.16 1065.09"/><polygon class="si" points="1075.1 916.44 1103.4 936.59 1104.86 904.8 1075.1 916.44"/><polygon class="sj" points="1133.17 887.92 1132.29 923.51 1137.1 921.49 1133.17 887.92"/><polygon class="ph" points="1044.56 974.47 1073.24 1003.6 1102.84 970.23 1044.56 974.47"/><polygon class="sk" points="1103.43 1024.36 1088.74 1037.22 1106.78 1049.36 1103.43 1024.36"/><polygon class="sl" points="1073.24 1003.6 1093.62 1022.11 1102.84 970.23 1073.24 1003.6"/><polygon class="sm" points="1088.74 1037.22 1095.5 1063.81 1106.78 1049.36 1088.74 1037.22"/><polygon class="ft" points="1087.62 1033.99 1088.74 1037.22 1103.43 1024.36 1087.62 1033.99"/><polygon class="sn" points="1093.62 1022.11 1087.62 1033.99 1103.43 1024.36 1093.62 1022.11"/><polygon class="so" points="1075.24 899.18 1079.04 903.61 1103.49 899.52 1075.24 899.18"/><polygon class="sp" points="953.45 702.36 938.44 735.25 1113.96 866.63 953.45 702.36"/><polygon class="sq" points="938.44 735.25 1047.78 898.84 1113.96 866.63 938.44 735.25"/><polygon class="sr" points="1047.78 898.84 1062.64 899.59 1113.96 866.63 1047.78 898.84"/><polygon class="ss" points="1251.65 1019.02 1234.03 1027.04 1264.82 1014.86 1251.65 1019.02"/><polygon class="st" points="1075.24 899.18 1103.49 899.52 1113.96 866.63 1075.24 899.18"/><polygon class="su" points="1132.29 923.51 1103.4 936.59 1133.48 940.35 1132.29 923.51"/><polygon class="sv" points="1062.64 899.59 1075.24 899.18 1113.96 866.63 1062.64 899.59"/><polygon class="lw" points="1103.4 936.59 1102.84 970.23 1117.08 955.62 1103.4 936.59"/><polygon class="sw" points="1103.4 936.59 1123.99 952.82 1133.48 940.35 1103.4 936.59"/><polygon class="sx" points="1133.48 940.35 1123.99 952.82 1136.62 958.2 1133.48 940.35"/><polygon class="ru" points="1113.96 866.63 1103.49 899.52 1123.01 885.09 1113.96 866.63"/><polygon class="sy" points="1103.49 899.52 1104.86 904.8 1123.01 885.09 1103.49 899.52"/><polygon class="sz" points="1128.39 886.43 1132.29 923.51 1133.17 887.92 1128.39 886.43"/><polygon class="pc" points="1152.51 990.24 1169.26 996.26 1171.91 964.12 1152.51 990.24"/><polygon class="ta" points="1117.08 955.62 1120.19 954.82 1123.99 952.82 1117.08 955.62"/><polygon class="tb" points="1103.4 936.59 1117.08 955.62 1123.99 952.82 1103.4 936.59"/><polygon class="tc" points="1113.96 866.63 1128.39 886.43 1133.17 887.92 1113.96 866.63"/><polygon class="tc" points="1113.96 866.63 1123.01 885.09 1128.39 886.43 1113.96 866.63"/><polygon class="td" points="1104.86 904.8 1103.4 936.59 1132.29 923.51 1104.86 904.8"/><polygon class="qq" points="994.16 517.21 953.45 702.36 1178.05 796.47 994.16 517.21"/><polygon class="te" points="1128.39 886.43 1104.86 904.8 1132.29 923.51 1128.39 886.43"/><polygon class="tf" points="1123.99 952.82 1120.19 954.82 1136.62 958.2 1123.99 952.82"/><polygon class="tg" points="1102.84 970.23 1103.43 1024.36 1134.82 976.65 1102.84 970.23"/><polygon class="th" points="1117.08 955.62 1102.84 970.23 1134.82 976.65 1117.08 955.62"/><polygon class="ti" points="1120.19 954.82 1117.08 955.62 1134.82 976.65 1120.19 954.82"/><polygon class="tj" points="1120.19 954.82 1134.82 976.65 1136.62 958.2 1120.19 954.82"/><polygon class="hj" points="1172.85 1006.6 1145.2 1042.9 1205.71 1027.41 1172.85 1006.6"/><polygon class="tk" points="1145.2 1042.9 1143.33 1049.19 1205.71 1027.41 1145.2 1042.9"/><polygon class="tc" points="1095.5 1063.81 1056.97 1106.96 1143.33 1049.19 1095.5 1063.81"/><polygon class="tl" points="1178.05 796.47 1175.69 836.54 1188.37 894.2 1178.05 796.47"/><polygon class="tm" points="1106.78 1049.36 1095.5 1063.81 1143.33 1049.19 1106.78 1049.36"/><polygon class="tn" points="1133.17 887.92 1137.1 921.49 1143.58 888.82 1133.17 887.92"/><polygon class="oy" points="1146.01 1016.46 1145.2 1042.9 1172.85 1006.6 1146.01 1016.46"/><polygon class="to" points="1106.78 1049.36 1143.33 1049.19 1145.2 1042.9 1106.78 1049.36"/><polygon class="tp" points="1103.43 1024.36 1106.78 1049.36 1145.2 1042.9 1103.43 1024.36"/><polygon class="tq" points="1169.26 996.26 1145.26 1012.94 1172.85 1006.6 1169.26 996.26"/><polygon class="tr" points="1145.26 1012.94 1103.43 1024.36 1146.01 1016.46 1145.26 1012.94"/><polygon class="ts" points="1103.43 1024.36 1145.2 1042.9 1146.01 1016.46 1103.43 1024.36"/><polygon class="tt" points="1134.82 976.65 1103.43 1024.36 1145.26 1012.94 1134.82 976.65"/><polygon class="tu" points="1134.82 976.65 1147.27 984.35 1147.48 960.52 1134.82 976.65"/><polygon class="tv" points="1136.62 958.2 1134.82 976.65 1147.48 960.52 1136.62 958.2"/><polygon class="tw" points="1133.48 940.35 1136.62 958.2 1147.48 960.52 1133.48 940.35"/><polygon class="tx" points="1113.96 866.63 1133.17 887.92 1154.9 847.36 1113.96 866.63"/><polygon class="ty" points="1165.95 847.86 1154.9 847.36 1171.37 863.12 1165.95 847.86"/><polygon class="tz" points="1155.74 885.95 1155.64 911.65 1160.34 884.48 1155.74 885.95"/><polygon class="ua" points="1145.26 1012.94 1146.01 1016.46 1172.85 1006.6 1145.26 1012.94"/><polygon class="ub" points="1154.9 847.36 1175.69 836.54 1178.05 796.47 1154.9 847.36"/><polygon class="uc" points="1143.58 888.82 1137.1 921.49 1155.64 911.65 1143.58 888.82"/><polygon class="ud" points="1143.58 888.82 1155.64 911.65 1155.74 885.95 1143.58 888.82"/><polygon class="ga" points="1154.9 847.36 1143.58 888.82 1155.74 885.95 1154.9 847.36"/><polygon class="ue" points="1155.64 911.65 1137.1 921.49 1156.4 930.86 1155.64 911.65"/><polygon class="uf" points="1154.9 847.36 1155.74 885.95 1160.34 884.48 1154.9 847.36"/><polygon class="ug" points="1133.48 940.35 1147.48 960.52 1156.4 930.86 1133.48 940.35"/><polygon class="uh" points="1137.1 921.49 1133.48 940.35 1156.4 930.86 1137.1 921.49"/><polygon class="ui" points="1171.37 863.12 1160.34 884.48 1172.19 863.87 1171.37 863.12"/><polygon class="uj" points="1152.51 990.24 1145.26 1012.94 1169.26 996.26 1152.51 990.24"/><polygon class="uk" points="1179.71 966.1 1169.26 996.26 1186.75 995.05 1179.71 966.1"/><polygon class="nu" points="1113.96 866.63 1154.9 847.36 1178.05 796.47 1113.96 866.63"/><polygon class="ul" points="1165.95 847.86 1171.37 863.12 1172.19 863.87 1165.95 847.86"/><polygon class="um" points="1154.9 847.36 1160.34 884.48 1171.37 863.12 1154.9 847.36"/><polygon class="un" points="1156.4 930.86 1147.48 960.52 1171.91 964.12 1156.4 930.86"/><polygon class="uo" points="1169.26 996.26 1172.85 1006.6 1186.75 995.05 1169.26 996.26"/><polygon class="up" points="1147.27 984.35 1152.51 990.24 1171.91 964.12 1147.27 984.35"/><polygon class="uq" points="1147.48 960.52 1147.27 984.35 1171.91 964.12 1147.48 960.52"/><polygon class="ur" points="1172.19 863.87 1187.04 894.14 1188.37 894.2 1172.19 863.87"/><polygon class="us" points="1154.9 847.36 1165.95 847.86 1175.69 836.54 1154.9 847.36"/><polygon class="sr" points="953.45 702.36 1113.96 866.63 1178.05 796.47 953.45 702.36"/><polygon class="a" points="963.22 396.76 1664.5 188.1 1665.7 138.89 963.22 396.76"/><polygon class="ja" points="1188.37 894.2 1229.54 982.43 1264.82 1014.86 1188.37 894.2"/><polygon class="ut" points="1175.69 836.54 1172.19 863.87 1188.37 894.2 1175.69 836.54"/><polygon class="uu" points="1156.4 930.86 1171.91 964.12 1179.71 966.1 1156.4 930.86"/><polygon class="uv" points="1171.91 964.12 1169.26 996.26 1179.71 966.1 1171.91 964.12"/><polygon class="uw" points="1187.04 894.14 1156.4 930.86 1188.37 894.2 1187.04 894.14"/><polygon class="ux" points="1160.34 884.48 1155.64 911.65 1187.04 894.14 1160.34 884.48"/><polygon class="uy" points="1172.19 863.87 1160.34 884.48 1187.04 894.14 1172.19 863.87"/><polygon class="uz" points="1155.64 911.65 1156.4 930.86 1187.04 894.14 1155.64 911.65"/><polygon class="va" points="1231.75 996.34 1235.31 1002.62 1235.69 996.31 1231.75 996.34"/><polygon class="hf" points="1156.4 930.86 1179.71 966.1 1188.37 894.2 1156.4 930.86"/><polygon class="vb" points="1204.61 999.93 1186.75 995.05 1205.71 1027.41 1204.61 999.93"/><polygon class="vc" points="1207.55 991.21 1208.97 990.8 1219.87 980.7 1207.55 991.21"/><polygon class="vd" points="1208.97 990.8 1207.55 991.21 1213.17 998.33 1208.97 990.8"/><polygon class="ve" points="1207.55 991.21 1204.61 999.93 1213.17 998.33 1207.55 991.21"/><polygon class="vf" points="1186.75 995.05 1172.85 1006.6 1205.71 1027.41 1186.75 995.05"/><polygon class="vg" points="1186.75 995.05 1204.61 999.93 1207.55 991.21 1186.75 995.05"/><polygon class="vh" points="1179.71 966.1 1186.75 995.05 1207.55 991.21 1179.71 966.1"/><polygon class="vi" points="1213.17 998.33 1204.61 999.93 1219.35 1025.83 1213.17 998.33"/><polygon class="vj" points="1204.61 999.93 1205.71 1027.41 1219.35 1025.83 1204.61 999.93"/><polygon class="vk" points="1179.71 966.1 1207.55 991.21 1219.87 980.7 1179.71 966.1"/><polygon class="vl" points="1188.37 894.2 1179.71 966.1 1219.87 980.7 1188.37 894.2"/><polygon class="vm" points="1188.37 894.2 1219.87 980.7 1229.54 982.43 1188.37 894.2"/><polygon class="vn" points="1208.97 990.8 1213.17 998.33 1219.87 980.7 1208.97 990.8"/><polygon class="vo" points="1205.71 1027.41 1143.33 1049.19 1220.9 1027.99 1205.71 1027.41"/><polygon class="vp" points="1219.35 1025.83 1205.71 1027.41 1220.9 1027.99 1219.35 1025.83"/><polygon class="vq" points="1230.43 1023.98 1220.9 1027.99 1234.03 1027.04 1230.43 1023.98"/><polygon class="vr" points="1235.31 1002.62 1230.43 1023.98 1251.65 1019.02 1235.31 1002.62"/><polygon class="vs" points="1229.54 982.43 1231.75 996.34 1235.69 996.31 1229.54 982.43"/><polygon class="vt" points="1230.43 1023.98 1234.03 1027.04 1251.65 1019.02 1230.43 1023.98"/><polygon class="vu" points="1229.54 982.43 1219.87 980.7 1231.75 996.34 1229.54 982.43"/><polygon class="vv" points="1219.87 980.7 1213.17 998.33 1231.75 996.34 1219.87 980.7"/><polygon class="vw" points="1219.35 1025.83 1220.9 1027.99 1230.43 1023.98 1219.35 1025.83"/><polygon class="vx" points="1056.97 1106.96 1023.15 1142.31 1234.03 1027.04 1056.97 1106.96"/><polygon class="di" points="1143.33 1049.19 1056.97 1106.96 1234.03 1027.04 1143.33 1049.19"/><polygon class="vy" points="1220.9 1027.99 1143.33 1049.19 1234.03 1027.04 1220.9 1027.99"/><polygon class="vz" points="1213.17 998.33 1219.35 1025.83 1235.31 1002.62 1213.17 998.33"/><polygon class="wa" points="1219.35 1025.83 1230.43 1023.98 1235.31 1002.62 1219.35 1025.83"/><polygon class="wb" points="1231.75 996.34 1213.17 998.33 1235.31 1002.62 1231.75 996.34"/><polygon class="a" points="882.8 99 963.22 396.76 1665.7 138.89 882.8 99"/><polygon class="wc" points="1670.75 184.82 1664.5 188.1 1682.8 632.5 1670.75 184.82"/><polygon class="wd" points="1178.05 796.47 1188.37 894.2 1264.82 1014.86 1178.05 796.47"/><polygon class="we" points="1229.54 982.43 1235.69 996.31 1264.82 1014.86 1229.54 982.43"/><polygon class="wf" points="1235.69 996.31 1235.31 1002.62 1264.82 1014.86 1235.69 996.31"/><polygon class="wg" points="1235.31 1002.62 1251.65 1019.02 1264.82 1014.86 1235.31 1002.62"/><polygon class="a" points="963.22 396.76 994.16 517.21 1664.5 188.1 963.22 396.76"/><polygon class="wh" points="1667.74 162.52 1670.75 184.82 1682.8 99 1667.74 162.52"/><polygon class="wi" points="1665.7 138.89 1667.74 162.52 1670.6 129.72 1665.7 138.89"/><polygon class="wj" points="1670.6 129.72 1667.74 162.52 1682.8 99 1670.6 129.72"/></svg>