<svg xmlns="http://www.w3.org/2000/svg" viewBox="0 0 1781.49 1264.88"><defs><style>.a{fill:#375055;}.b{fill:#0a0b06;}.c{fill:#070705;}.d{fill:#957b5c;}.e{fill:#645445;}.f{fill:#010101;}.g{fill:#020202;}.h{fill:#060604;}.i{fill:#030400;}.j{fill:#614f3b;}.k{fill:#020403;}.l{fill:#040402;}.m{fill:#504434;}.n{fill:#5e523a;}.o{fill:#030303;}.p{fill:#050601;}.q{fill:#060702;}.r{fill:#6e5c48;}.s{fill:#645244;}.t{fill:#0b0704;}.u{fill:#080904;}.v{fill:#6d5d43;}.w{fill:#6b5a48;}.x{fill:#050402;}.y{fill:#080703;}.z{fill:#050306;}.aa{fill:#7e644d;}.ab{fill:#786a4f;}.ac{fill:#090502;}.ad{fill:#020b06;}.ae{fill:#79604c;}.af{fill:#5f533b;}.ag{fill:#66583e;}.ah{fill:#2a190f;}.ai{fill:#1f1410;}.aj{fill:#635d43;}.ak{fill:#6c543c;}.al{fill:#6f6b50;}.am{fill:#74584a;}.an{fill:#63543f;}.ao{fill:#473a27;}.ap{fill:#78634e;}.aq{fill:#544532;}.ar{fill:#100b07;}.as{fill:#19110e;}.at{fill:#16110d;}.au{fill:#8b7152;}.av{fill:#876c4f;}.aw{fill:#7a6047;}.ax{fill:#544832;}.ay{fill:#705b48;}.az{fill:#634e3b;}.ba{fill:#0d0a05;}.bb{fill:#584d3a;}.bc{fill:#564b38;}.bd{fill:#615144;}.be{fill:#140f0b;}.bf{fill:#5b4c37;}.bg{fill:#896e53;}.bh{fill:#81654f;}.bi{fill:#584837;}.bj{fill:#5c4938;}.bk{fill:#614e3d;}.bl{fill:#060200;}.bm{fill:#433a2b;}.bn{fill:#66563d;}.bo{fill:#1a1208;}.bp{fill:#766247;}.bq{fill:#786346;}.br{fill:#81694f;}.bs{fill:#3a2417;}.bt{fill:#856d51;}.bu{fill:#897655;}.bv{fill:#331d10;}.bw{fill:#25170a;}.bx{fill:#520203;}.by{fill:#0d0d05;}.bz{fill:#7b6857;}.ca{fill:#67523f;}.cb{fill:#3a0402;}.cc{fill:#51402f;}.cd{fill:#0c0904;}.ce{fill:#68573d;}.cf{fill:#610102;}.cg{fill:#867058;}.ch{fill:#6e533e;}.ci{fill:#7c644a;}.cj{fill:#5d4b37;}.ck{fill:#510006;}.cl{fill:#8e6e55;}.cm{fill:#060503;}.cn{fill:#3a0301;}.co{fill:#541b0a;}.cp{fill:#5e0302;}.cq{fill:#766048;}.cr{fill:#826a50;}.cs{fill:#79654d;}.ct{fill:#846b4d;}.cu{fill:#352d23;}.cv{fill:#312620;}.cw{fill:#6c0204;}.cx{fill:#6e0106;}.cy{fill:#8d6e4f;}.cz{fill:#221a17;}.da{fill:#251c15;}.db{fill:#755a45;}.dc{fill:#755b42;}.dd{fill:#560202;}.de{fill:#745b47;}.df{fill:#846f52;}.dg{fill:#433326;}.dh{fill:#705f45;}.di{fill:#8a7057;}.dj{fill:#8d7455;}.dk{fill:#836e53;}.dl{fill:#836e4f;}.dm{fill:#050706;}.dn{fill:#856b54;}.do{fill:#927a58;}.dp{fill:#79654a;}.dq{fill:#3a3024;}.dr{fill:#937b59;}.ds{fill:#700205;}.dt{fill:#8c6e54;}.du{fill:#92745a;}.dv{fill:#6a0203;}.dw{fill:#866c55;}.dx{fill:#530304;}.dy{fill:#8e7559;}.dz{fill:#470303;}.ea{fill:#735f44;}.eb{fill:#310502;}.ec{fill:#765c45;}.ed{fill:#660204;}.ee{fill:#927259;}.ef{fill:#917560;}.eg{fill:#6e5e45;}.eh{fill:#886f51;}.ei{fill:#6f5f46;}.ej{fill:#6e5d4b;}.ek{fill:#520404;}.el{fill:#846e57;}.em{fill:#937a5c;}.en{fill:#90775b;}.eo{fill:#917859;}.ep{fill:#250506;}.eq{fill:#360405;}.er{fill:#5b4e3b;}.es{fill:#8a6c50;}.et{fill:#655345;}.eu{fill:#80684e;}.ev{fill:#8a7250;}.ew{fill:#866c53;}.ex{fill:#978267;}.ey{fill:#111518;}.ez{fill:#876f4b;}.fa{fill:#720407;}.fb{fill:#6b0304;}.fc{fill:#836952;}.fd{fill:#5f3a20;}.fe{fill:#897656;}.ff{fill:#937a5e;}.fg{fill:#7c6748;}.fh{fill:#030504;}.fi{fill:#9c8164;}.fj{fill:#2f281e;}.fk{fill:#3a3026;}.fl{fill:#3c291b;}.fm{fill:#907759;}.fn{fill:#583b2b;}.fo{fill:#896f58;}.fp{fill:#8e6f5a;}.fq{fill:#836b51;}.fr{fill:#917357;}.fs{fill:#603b21;}.ft{fill:#8b7359;}.fu{fill:#7c674c;}.fv{fill:#5c0001;}.fw{fill:#897455;}.fx{fill:#650304;}.fy{fill:#580301;}.fz{fill:#7e664a;}.ga{fill:#625437;}.gb{fill:#590100;}.gc{fill:#957e5e;}.gd{fill:#97785b;}.ge{fill:#867154;}.gf{fill:#472b16;}.gg{fill:#4a0303;}.gh{fill:#450305;}.gi{fill:#8e725a;}.gj{fill:#5d0102;}.gk{fill:#7e4a25;}.gl{fill:#6c3f28;}.gm{fill:#7c6d50;}.gn{fill:#710306;}.go{fill:#91765b;}.gp{fill:#794a2c;}.gq{fill:#710304;}.gr{fill:#8a725a;}.gs{fill:#8d7961;}.gt{fill:#6e5d4c;}.gu{fill:#693922;}.gv{fill:#620203;}.gw{fill:#600202;}.gx{fill:#4d0304;}.gy{fill:#693720;}.gz{fill:#733e1f;}.ha{fill:#600203;}.hb{fill:#884d2f;}.hc{fill:#242625;}.hd{fill:#977c61;}.he{fill:#9d8265;}.hf{fill:#534737;}.hg{fill:#66331e;}.hh{fill:#632b14;}.hi{fill:#7c6048;}.hj{fill:#766450;}.hk{fill:#480203;}.hl{fill:#332b20;}.hm{fill:#85b1cc;}.hn{fill:#673922;}.ho{fill:#705e46;}.hp{fill:#5e0203;}.hq{fill:#978265;}.hr{fill:#7e6d53;}.hs{fill:#864b23;}.ht{fill:#402216;}.hu{fill:#0b0b09;}.hv{fill:#924928;}.hw{fill:#753b27;}.hx{fill:#780405;}.hy{fill:#750305;}.hz{fill:#623a23;}.ia{fill:#9a7c62;}.ib{fill:#412112;}.ic{fill:#8d4d34;}.id{fill:#934e2f;}.ie{fill:#6c3c26;}.if{fill:#783b1e;}.ig{fill:#744126;}.ih{fill:#720206;}.ii{fill:#763e27;}.ij{fill:#84745b;}.ik{fill:#490303;}.il{fill:#6b5945;}.im{fill:#7f6d59;}.in{fill:#997e61;}.io{fill:#6a5e46;}.ip{fill:#5b0302;}.iq{fill:#760406;}.ir{fill:#630304;}.is{fill:#6c0206;}.it{fill:#440403;}.iu{fill:#7e6a52;}.iv{fill:#8b715a;}.iw{fill:#1d120c;}.ix{fill:#5f3624;}.iy{fill:#693d24;}.iz{fill:#393627;}.ja{fill:#997f66;}.jb{fill:#836853;}.jc{fill:#7b0305;}.jd{fill:#6b0e09;}.je{fill:#5d2e1c;}.jf{fill:#893e39;}.jg{fill:#887356;}.jh{fill:#680303;}.ji{fill:#5f0102;}.jj{fill:#5c0202;}.jk{fill:#705f4d;}.jl{fill:#9c8269;}.jm{fill:#740204;}.jn{fill:#720204;}.jo{fill:#8a6f5c;}.jp{fill:#512814;}.jq{fill:#9c8c6b;}.jr{fill:#231c16;}.js{fill:#8a7155;}.jt{fill:#967e64;}.ju{fill:#620204;}.jv{fill:#29180e;}.jw{fill:#000200;}.jx{fill:#2b1d14;}.jy{fill:#69301f;}.jz{fill:#968166;}.ka{fill:#99856a;}.kb{fill:#452a19;}.kc{fill:#51321d;}.kd{fill:#816d54;}.ke{fill:#7c6a52;}.kf{fill:#733828;}.kg{fill:#635548;}.kh{fill:#490202;}.ki{fill:#0f0d01;}.kj{fill:#9a8069;}.kk{fill:#700203;}.kl{fill:#977d64;}.km{fill:#5f0403;}.kn{fill:#640203;}.ko{fill:#000201;}.kp{fill:#8f735d;}.kq{fill:#210303;}.kr{fill:#010300;}.ks{fill:#91785c;}.kt{fill:#6a5d4a;}.ku{fill:#750303;}.kv{fill:#5f0505;}.kw{fill:#8e745d;}.kx{fill:#3d0604;}.ky{fill:#8d7352;}.kz{fill:#796950;}.la{fill:#998165;}.lb{fill:#3f3325;}.lc{fill:#4b0404;}.ld{fill:#766345;}.le{fill:#524938;}.lf{fill:#7b614a;}.lg{fill:#6a5b44;}.lh{fill:#8e7054;}.li{fill:#4d433a;}.lj{fill:#54463b;}.lk{fill:#483a2d;}.ll{fill:#010302;}.lm{fill:#423626;}.ln{fill:#3c0201;}.lo{fill:#5f0000;}.lp{fill:#806c53;}.lq{fill:#453526;}.lr{fill:#350302;}.ls{fill:#2e0201;}.lt{fill:#6d4734;}.lu{fill:#590102;}.lv{fill:#7c634d;}.lw{fill:#1e0403;}.lx{fill:#886c54;}.ly{fill:#7b6244;}.lz{fill:#877255;}.ma{fill:#593223;}.mb{fill:#493b32;}.mc{fill:#1a0202;}.md{fill:#44382a;}.me{fill:#020200;}.mf{fill:#5e4737;}.mg{fill:#634e39;}.mh{fill:#604e40;}.mi{fill:#3a0704;}.mj{fill:#947b5f;}.mk{fill:#8d7559;}.ml{fill:#65553b;}.mm{fill:#8b6c57;}.mn{fill:#55493b;}.mo{fill:#7f6652;}.mp{fill:#690404;}.mq{fill:#655943;}.mr{fill:#856951;}.ms{fill:#413328;}.mt{fill:#82684f;}.mu{fill:#3e1d14;}.mv{fill:#716650;}.mw{fill:#836d58;}.mx{fill:#544639;}.my{fill:#5b452d;}.mz{fill:#7d6849;}.na{fill:#47392e;}.nb{fill:#54422e;}.nc{fill:#282016;}.nd{fill:#443123;}.ne{fill:#625640;}.nf{fill:#47392c;}.ng{fill:#4f3f2e;}.nh{fill:#310708;}.ni{fill:#4b0909;}.nj{fill:#685340;}.nk{fill:#4d3f34;}.nl{fill:#2b1e16;}.nm{fill:#897157;}.nn{fill:#92765e;}.no{fill:#927b5c;}.np{fill:#91775e;}.nq{fill:#77654d;}.nr{fill:#6a5840;}.ns{fill:#170d0c;}.nt{fill:#7e6c54;}.nu{fill:#6b5941;}.nv{fill:#361b14;}.nw{fill:#392115;}.nx{fill:#0b0d0a;}.ny{fill:#2e1a11;}.nz{fill:#705b46;}.oa{fill:#745f4c;}.ob{fill:#847058;}.oc{fill:#564d3c;}.od{fill:#6a5a49;}.oe{fill:#907a62;}.of{fill:#90785e;}.og{fill:#0d0804;}.oh{fill:#8f775d;}.oi{fill:#60503f;}.oj{fill:#251a18;}.ok{fill:#79634c;}.ol{fill:#3d2113;}.om{fill:#766549;}.on{fill:#554a37;}.oo{fill:#462a1d;}.op{fill:#4e2a1c;}.oq{fill:#4d2c1d;}.or{fill:#3a2c1f;}.os{fill:#412414;}.ot{fill:#2a180e;}.ou{fill:#3a1f14;}.ov{fill:#68583f;}.ow{fill:#846852;}.ox{fill:#715c47;}.oy{fill:#6c5b47;}.oz{fill:#76604b;}.pa{fill:#77614a;}.pb{fill:#6d5941;}.pc{fill:#836d56;}.pd{fill:#756149;}.pe{fill:#887c64;}.pf{fill:#0b0600;}.pg{fill:#0e0906;}.ph{fill:#847153;}.pi{fill:#6e5a42;}.pj{fill:#644f3e;}.pk{fill:#8c7d66;}.pl{fill:#564734;}.pm{fill:#72604c;}.pn{fill:#0b0803;}.po{fill:#6a5844;}.pp{fill:#705e4a;}.pq{fill:#7c6850;}.pr{fill:#8e745b;}.ps{fill:#050503;}.pt{fill:#000100;}.pu{fill:#010100;}.pv{fill:#090804;}.pw{fill:#2b140f;}.px{fill:#726249;}.py{fill:#020001;}.pz{fill:#080806;}.qa{fill:#322826;}.qb{fill:#020401;}.qc{fill:#271410;}.qd{fill:#3b6571;}.qe{fill:#6a88a0;}.qf{fill:#141d1a;}.qg{fill:#0e0f09;}.qh{fill:#101010;}.qi{fill:#070707;}.qj{fill:#18211c;}.qk{fill:#161c1a;}.ql{fill:#528195;}.qm{fill:#0e0e0c;}.qn{fill:#111310;}.qo{fill:#040603;}.qp{fill:#6f96b3;}</style></defs><title>full</title><polygon points="27.01 0 0 38.93 35.6 5.22 27.01 0"/><polygon points="1772.9 1225.96 1745.89 1264.88 1781.49 1231.18 1772.9 1225.96"/><polygon class="a" points="1682.8 99 1666.54 537.58 1682.8 632.5 1682.8 99"/><polygon class="b" points="1666.54 537.58 1566.71 587.24 1682.8 632.5 1666.54 537.58"/><polygon class="c" points="1566.71 587.24 1558.89 596.59 1682.8 632.5 1566.71 587.24"/><polygon class="d" points="867.8 744 752.8 768 868.8 815 867.8 744"/><polygon class="e" points="518.87 980.57 516.8 1024 524.95 983.73 518.87 980.57"/><polygon class="f" points="480.8 1100 501.8 1120 504.8 1080 480.8 1100"/><polygon class="g" points="480.8 1100 82.8 1166 501.8 1120 480.8 1100"/><polygon class="h" points="520.8 1088 530.8 1118 535.8 1099 520.8 1088"/><polygon class="h" points="527.8 1078 520.8 1088 535.8 1099 527.8 1078"/><polygon class="i" points="515.8 1123 529.8 1138 530.8 1118 515.8 1123"/><polygon class="f" points="480.8 1100 504.8 1080 516.8 1024 480.8 1100"/><polygon class="j" points="632.8 713 634.81 743.17 645.8 741 632.8 713"/><polygon class="f" points="82.8 632.5 82.8 1166 518.87 980.57 82.8 632.5"/><polygon class="k" points="82.8 1166 480.8 1100 518.87 980.57 82.8 1166"/><polygon class="f" points="480.8 1100 516.8 1024 518.87 980.57 480.8 1100"/><polygon points="504.8 1080 501.8 1120 520.8 1088 504.8 1080"/><polygon class="l" points="501.8 1120 515.8 1123 520.8 1088 501.8 1120"/><polygon class="l" points="541.61 1031.3 529.8 1031 543.16 1035.66 541.61 1031.3"/><polygon class="m" points="518.87 980.57 524.95 983.73 535.49 932.14 518.87 980.57"/><polygon class="n" points="544.17 901.39 535.49 932.14 545.74 921.5 544.17 901.39"/><polygon class="l" points="504.8 1080 520.8 1088 527.8 1078 504.8 1080"/><polygon class="o" points="501.8 1120 82.8 1166 529.8 1138 501.8 1120"/><polygon class="p" points="515.8 1123 501.8 1120 529.8 1138 515.8 1123"/><polygon class="c" points="1558.89 596.59 1512.7 950.42 1682.8 632.5 1558.89 596.59"/><polygon class="q" points="520.8 1088 515.8 1123 530.8 1118 520.8 1088"/><polygon class="f" points="82.8 632.5 518.87 980.57 535.49 932.14 82.8 632.5"/><polygon class="h" points="528.8 1026 516.8 1024 529.8 1031 528.8 1026"/><polygon class="r" points="545.74 921.5 535.49 932.14 555.88 992.68 545.74 921.5"/><polygon class="s" points="524.95 983.73 516.8 1024 532.24 1016.89 524.95 983.73"/><polygon class="t" points="516.8 1024 528.8 1026 532.24 1016.89 516.8 1024"/><polygon class="u" points="529.8 1031 516.8 1024 535.83 1051.82 529.8 1031"/><polygon class="v" points="532.24 1016.89 537.64 1014.68 538.81 1010.75 532.24 1016.89"/><polygon class="w" points="524.95 983.73 532.24 1016.89 538.81 1010.75 524.95 983.73"/><polygon class="x" points="504.8 1080 527.8 1078 535.83 1051.82 504.8 1080"/><polygon class="y" points="516.8 1024 504.8 1080 535.83 1051.82 516.8 1024"/><polygon class="p" points="535.8 1099 530.8 1118 538.8 1132 535.8 1099"/><polygon class="q" points="530.8 1118 529.8 1138 538.8 1132 530.8 1118"/><polygon class="z" points="555.88 992.68 544.27 1039.46 572.8 1071 555.88 992.68"/><polygon class="aa" points="645.8 741 634.81 743.17 646.51 744.11 645.8 741"/><polygon class="ab" points="538.81 1010.75 537.64 1014.68 541.61 1031.3 538.81 1010.75"/><polygon class="ac" points="528.8 1026 529.8 1031 541.61 1031.3 528.8 1026"/><polygon class="ad" points="532.24 1016.89 528.8 1026 541.61 1031.3 532.24 1016.89"/><polygon class="ae" points="537.64 1014.68 532.24 1016.89 541.61 1031.3 537.64 1014.68"/><polygon class="af" points="535.49 932.14 524.95 983.73 555.88 992.68 535.49 932.14"/><polygon class="ag" points="543.58 897.88 535.49 932.14 544.17 901.39 543.58 897.88"/><polygon class="ah" points="572.8 1071 535.8 1099 580.8 1116 572.8 1071"/><polygon class="ai" points="535.8 1099 538.8 1132 580.8 1116 535.8 1099"/><polygon class="aj" points="535.49 932.14 543.58 897.88 543.62 890.65 535.49 932.14"/><polygon class="f" points="82.8 632.5 535.49 932.14 543.62 890.65 82.8 632.5"/><polygon class="ak" points="524.95 983.73 538.81 1010.75 555.88 992.68 524.95 983.73"/><polygon class="al" points="541.61 1031.3 543.16 1035.66 555.88 992.68 541.61 1031.3"/><polygon class="c" points="529.8 1031 535.83 1051.82 544.27 1039.46 529.8 1031"/><polygon class="g" points="543.16 1035.66 529.8 1031 544.27 1039.46 543.16 1035.66"/><polygon class="am" points="543.16 1035.66 544.27 1039.46 555.88 992.68 543.16 1035.66"/><polygon class="an" points="544.17 901.39 545.74 921.5 567.78 874.84 544.17 901.39"/><polygon class="ao" points="543.58 897.88 544.17 901.39 567.78 874.84 543.58 897.88"/><polygon class="ap" points="538.81 1010.75 541.61 1031.3 555.88 992.68 538.81 1010.75"/><polygon class="aq" points="543.62 890.65 543.58 897.88 567.78 874.84 543.62 890.65"/><polygon class="ar" points="527.8 1078 535.8 1099 572.8 1071 527.8 1078"/><polygon class="as" points="535.83 1051.82 527.8 1078 572.8 1071 535.83 1051.82"/><polygon class="at" points="544.27 1039.46 535.83 1051.82 572.8 1071 544.27 1039.46"/><polygon class="au" points="646.51 744.11 676.04 828.41 685.8 750 646.51 744.11"/><polygon class="av" points="603.13 756.47 646.44 844.32 646.51 744.11 603.13 756.47"/><polygon class="aw" points="634.81 743.17 603.13 756.47 646.51 744.11 634.81 743.17"/><polygon class="ax" points="585.24 782.95 586.74 772.94 587.08 769.04 585.24 782.95"/><polygon class="o" points="82.8 632.5 543.62 890.65 583.06 794.75 82.8 632.5"/><polygon class="ay" points="543.62 890.65 567.78 874.84 583.06 794.75 543.62 890.65"/><polygon class="az" points="583.06 794.75 585.24 782.95 587.08 769.04 583.06 794.75"/><polygon class="f" points="82.8 632.5 583.06 794.75 587.08 769.04 82.8 632.5"/><polygon class="f" points="82.8 632.5 587.08 769.04 596.64 753.43 82.8 632.5"/><polygon class="ba" points="596.64 753.43 632.8 713 668.8 521 596.64 753.43"/><polygon class="bb" points="586.74 772.94 585.24 782.95 603.13 756.47 586.74 772.94"/><polygon class="bc" points="587.08 769.04 586.74 772.94 603.13 756.47 587.08 769.04"/><polygon class="bd" points="600.36 753.56 596.64 753.43 603.13 756.47 600.36 753.56"/><polygon class="be" points="596.64 753.43 600.36 753.56 632.8 713 596.64 753.43"/><polygon class="bf" points="596.64 753.43 587.08 769.04 603.13 756.47 596.64 753.43"/><polygon class="bg" points="646.44 844.32 634.2 923.72 668.67 876.25 646.44 844.32"/><polygon class="bh" points="675.65 894.77 687.83 905.58 696.29 893.83 675.65 894.77"/><polygon class="bi" points="545.74 921.5 555.88 992.68 634.2 923.72 545.74 921.5"/><polygon class="bj" points="567.78 874.84 545.74 921.5 634.2 923.72 567.78 874.84"/><polygon class="bk" points="634.2 923.72 555.88 992.68 641.68 978.29 634.2 923.72"/><polygon class="bl" points="674 1119.45 648.8 1128 674.75 1119.59 674 1119.45"/><polygon class="bm" points="632.8 713 600.36 753.56 634.81 743.17 632.8 713"/><polygon class="bn" points="600.36 753.56 603.13 756.47 634.81 743.17 600.36 753.56"/><polygon class="bo" points="580.8 1116 648.8 1128 651.01 1056.72 580.8 1116"/><polygon class="bp" points="634.2 923.72 655.04 949.19 662.91 935.56 634.2 923.72"/><polygon class="bq" points="583.06 794.75 567.78 874.84 646.44 844.32 583.06 794.75"/><polygon class="br" points="567.78 874.84 634.2 923.72 646.44 844.32 567.78 874.84"/><polygon class="bs" points="572.8 1071 580.8 1116 651.01 1056.72 572.8 1071"/><polygon class="bt" points="585.24 782.95 583.06 794.75 646.44 844.32 585.24 782.95"/><polygon class="bu" points="603.13 756.47 585.24 782.95 646.44 844.32 603.13 756.47"/><polygon class="bv" points="580.8 1116 538.8 1132 648.8 1128 580.8 1116"/><polygon class="bw" points="538.8 1132 529.8 1138 648.8 1128 538.8 1132"/><polygon class="bx" points="881.8 1089 847.8 1113 882.71 1117.4 881.8 1089"/><polygon class="by" points="555.88 992.68 572.8 1071 651.01 1056.72 555.88 992.68"/><polygon class="bz" points="641.68 978.29 555.88 992.68 651.01 1056.72 641.68 978.29"/><polygon class="ca" points="655.04 949.19 641.68 978.29 655.93 950.35 655.04 949.19"/><polygon class="cb" points="641.68 978.29 678.55 1007.77 684 976.4 641.68 978.29"/><polygon class="cc" points="634.2 923.72 641.68 978.29 655.04 949.19 634.2 923.72"/><polygon class="g" points="82.8 632.5 596.64 753.43 668.8 521 82.8 632.5"/><polygon class="cd" points="82.8 99 82.8 632.5 668.8 521 82.8 99"/><polygon class="ce" points="655.04 949.19 655.93 950.35 662.91 935.56 655.04 949.19"/><polygon class="cf" points="668.67 876.25 675.65 894.77 676.56 869.63 668.67 876.25"/><polygon class="cg" points="828.8 884 802.8 952 850.8 963 828.8 884"/><polygon class="ch" points="655.93 950.35 641.68 978.29 684 976.4 655.93 950.35"/><polygon class="ci" points="712.8 728 699.8 740 726.8 739 712.8 728"/><polygon class="cj" points="634.2 923.72 662.91 935.56 672.42 901.96 634.2 923.72"/><polygon class="ck" points="668.67 876.25 634.2 923.72 672.42 901.96 668.67 876.25"/><polygon class="cl" points="676.04 828.41 709.66 840.07 711.2 835.71 676.04 828.41"/><polygon class="cm" points="651.01 1056.72 648.8 1128 674 1119.45 651.01 1056.72"/><polygon class="cn" points="684 976.4 678.55 1007.77 714.75 1008.78 684 976.4"/><polygon class="co" points="662.91 935.56 655.93 950.35 684 976.4 662.91 935.56"/><polygon class="cp" points="668.67 876.25 672.42 901.96 675.65 894.77 668.67 876.25"/><polygon class="cq" points="672.42 901.96 662.91 935.56 675.77 908.53 672.42 901.96"/><polygon class="cr" points="696.29 893.83 704.11 912.53 712.8 891.07 696.29 893.83"/><polygon class="cf" points="676.56 869.63 675.65 894.77 696.29 893.83 676.56 869.63"/><polygon class="cs" points="704.11 912.53 662.91 935.56 706.53 958.44 704.11 912.53"/><polygon class="ct" points="646.51 744.11 646.44 844.32 676.04 828.41 646.51 744.11"/><polygon class="cu" points="678.55 1007.77 651.01 1056.72 691.15 1067.92 678.55 1007.77"/><polygon class="cv" points="641.68 978.29 651.01 1056.72 678.55 1007.77 641.68 978.29"/><polygon class="cw" points="668.67 876.25 676.56 869.63 679.12 854.72 668.67 876.25"/><polygon class="cx" points="646.44 844.32 668.67 876.25 679.12 854.72 646.44 844.32"/><polygon class="cy" points="676.04 828.41 646.44 844.32 679.12 854.72 676.04 828.41"/><polygon class="cz" points="674 1119.45 674.75 1119.59 691.15 1067.92 674 1119.45"/><polygon class="da" points="651.01 1056.72 674 1119.45 691.15 1067.92 651.01 1056.72"/><polygon class="av" points="645.8 741 646.51 744.11 685.8 750 645.8 741"/><polygon class="db" points="675.65 894.77 672.42 901.96 687.83 905.58 675.65 894.77"/><polygon class="dc" points="672.42 901.96 675.77 908.53 687.83 905.58 672.42 901.96"/><polygon class="dd" points="662.91 935.56 684 976.4 706.53 958.44 662.91 935.56"/><polygon class="de" points="704.11 912.53 706.53 958.44 712.8 958 704.11 912.53"/><polygon class="df" points="696.29 893.83 687.83 905.58 704.11 912.53 696.29 893.83"/><polygon class="dg" points="678.55 1007.77 714.65 1050.05 714.75 1008.78 678.55 1007.77"/><polygon class="dh" points="760.8 990 738.8 989 761.37 1030.18 760.8 990"/><polygon class="di" points="705.8 724 699.8 740 712.8 728 705.8 724"/><polygon class="dj" points="727.8 724 726.8 739 732.8 725 727.8 724"/><polygon class="dk" points="675.77 908.53 662.91 935.56 704.11 912.53 675.77 908.53"/><polygon class="dl" points="687.83 905.58 675.77 908.53 704.11 912.53 687.83 905.58"/><polygon class="dm" points="668.8 521 632.8 713 705.8 633 668.8 521"/><polygon class="dn" points="645.8 741 685.8 750 705.8 724 645.8 741"/><polygon class="do" points="685.8 750 699.8 740 705.8 724 685.8 750"/><polygon class="dp" points="632.8 713 645.8 741 705.8 724 632.8 713"/><polygon class="dq" points="678.55 1007.77 691.15 1067.92 714.65 1050.05 678.55 1007.77"/><polygon class="dr" points="712.8 728 726.8 739 727.8 724 712.8 728"/><polygon class="ds" points="676.56 869.63 696.29 893.83 712.8 891.07 676.56 869.63"/><polygon class="dt" points="676.04 828.41 679.12 854.72 709.66 840.07 676.04 828.41"/><polygon class="du" points="676.04 828.41 711.2 835.71 716 833.11 676.04 828.41"/><polygon class="dv" points="709.66 840.07 679.12 854.72 712.8 891.07 709.66 840.07"/><polygon class="dw" points="761.8 721 740.8 714 761.8 732 761.8 721"/><polygon class="dx" points="712.8 958 706.53 958.44 714.75 1008.78 712.8 958"/><polygon class="dy" points="685.8 750 676.04 828.41 716 833.11 685.8 750"/><polygon class="dz" points="706.53 958.44 684 976.4 714.75 1008.78 706.53 958.44"/><polygon class="ea" points="720.8 681 705.8 724 727.8 724 720.8 681"/><polygon class="eb" points="691.15 1067.92 726.9 1113.22 730.8 1101 691.15 1067.92"/><polygon class="ec" points="705.8 724 712.8 728 727.8 724 705.8 724"/><polygon class="ed" points="679.12 854.72 676.56 869.63 712.8 891.07 679.12 854.72"/><polygon class="ee" points="711.2 835.71 709.66 840.07 716 833.11 711.2 835.71"/><polygon class="ef" points="720.8 681 740.8 714 752.8 700 720.8 681"/><polygon class="ba" points="705.8 633 632.8 713 720.8 681 705.8 633"/><polygon class="eg" points="632.8 713 705.8 724 720.8 681 632.8 713"/><polygon class="eh" points="727.8 724 732.8 725 740.8 714 727.8 724"/><polygon class="ei" points="760.8 990 761.37 1030.18 829.8 993 760.8 990"/><polygon class="ej" points="738.8 989 714.75 1008.78 761.37 1030.18 738.8 989"/><polygon class="ek" points="712.8 958 714.75 1008.78 738.8 989 712.8 958"/><polygon class="el" points="712.8 891.07 704.11 912.53 723.16 894.98 712.8 891.07"/><polygon class="em" points="699.8 740 685.8 750 726.8 739 699.8 740"/><polygon class="en" points="726.8 739 685.8 750 752.8 768 726.8 739"/><polygon class="eo" points="685.8 750 716 833.11 752.8 768 685.8 750"/><polygon class="ep" points="691.15 1067.92 674.75 1119.59 726.9 1113.22 691.15 1067.92"/><polygon class="eq" points="714.65 1050.05 691.15 1067.92 730.8 1101 714.65 1050.05"/><polygon class="er" points="714.75 1008.78 714.65 1050.05 761.37 1030.18 714.75 1008.78"/><polygon class="es" points="740.8 714 732.8 725 761.8 732 740.8 714"/><polygon class="et" points="882.71 1117.4 847.8 1113 882.8 1166 882.71 1117.4"/><polygon class="eu" points="704.11 912.53 712.8 958 734.5 917.3 704.11 912.53"/><polygon class="ev" points="720.8 681 727.8 724 740.8 714 720.8 681"/><polygon class="ew" points="723.16 894.98 704.11 912.53 734.5 917.3 723.16 894.98"/><polygon class="ex" points="792.8 696 761.8 721 799.8 717 792.8 696"/><polygon class="ey" points="668.8 521 705.8 633 759.8 622 668.8 521"/><polygon class="ez" points="723.16 894.98 734.5 917.3 742.97 889.85 723.16 894.98"/><polygon class="fa" points="716 833.11 709.66 840.07 742.97 889.85 716 833.11"/><polygon class="fb" points="709.66 840.07 712.8 891.07 742.97 889.85 709.66 840.07"/><polygon class="fc" points="712.8 891.07 723.16 894.98 742.97 889.85 712.8 891.07"/><polygon class="fd" points="792.8 696 829.8 697 839.8 681 792.8 696"/><polygon class="fe" points="752.8 700 740.8 714 753.8 712 752.8 700"/><polygon class="ff" points="799.8 717 752.8 768 815.8 716 799.8 717"/><polygon class="fg" points="753.8 712 761.8 721 777.8 689 753.8 712"/><polygon class="fh" points="705.8 633 720.8 681 759.8 622 705.8 633"/><polygon class="fi" points="946.8 727 938.8 758 970.8 798 946.8 727"/><polygon class="fj" points="674.75 1119.59 648.8 1128 753.23 1119.48 674.75 1119.59"/><polygon class="fk" points="726.9 1113.22 674.75 1119.59 753.23 1119.48 726.9 1113.22"/><polygon class="fl" points="730.8 1101 726.9 1113.22 753.23 1119.48 730.8 1101"/><polygon class="fm" points="726.8 739 752.8 768 761.8 732 726.8 739"/><polygon class="fn" points="714.65 1050.05 730.8 1101 761.37 1030.18 714.65 1050.05"/><polygon class="fo" points="734.5 917.3 766.8 956 768.04 919.1 734.5 917.3"/><polygon class="fp" points="732.8 725 726.8 739 761.8 732 732.8 725"/><polygon class="fq" points="742.97 889.85 734.5 917.3 768.04 919.1 742.97 889.85"/><polygon class="fr" points="752.8 700 753.8 712 777.8 689 752.8 700"/><polygon class="fs" points="777.8 689 792.8 696 839.8 681 777.8 689"/><polygon class="ft" points="753.8 712 740.8 714 761.8 721 753.8 712"/><polygon class="fu" points="734.5 917.3 712.8 958 766.8 956 734.5 917.3"/><polygon class="fv" points="712.8 958 738.8 989 766.8 956 712.8 958"/><polygon class="fw" points="761.8 721 761.8 732 799.8 717 761.8 721"/><polygon class="fx" points="802.8 952 766.8 956 810.8 965 802.8 952"/><polygon class="fy" points="738.8 989 760.8 990 766.8 956 738.8 989"/><polygon class="fz" points="720.8 681 752.8 700 777.8 689 720.8 681"/><polygon class="ga" points="759.8 622 720.8 681 777.8 689 759.8 622"/><polygon class="gb" points="820.8 971 810.8 965 829.8 993 820.8 971"/><polygon class="cp" points="766.8 956 760.8 990 810.8 965 766.8 956"/><polygon class="gc" points="777.8 689 761.8 721 792.8 696 777.8 689"/><polygon class="gd" points="761.8 732 752.8 768 799.8 717 761.8 732"/><polygon class="s" points="847.8 1113 753.23 1119.48 882.8 1166 847.8 1113"/><polygon class="ge" points="768.04 919.1 766.8 956 802.8 952 768.04 919.1"/><polygon class="gf" points="759.8 622 777.8 689 839.8 681 759.8 622"/><polygon class="gg" points="761.37 1030.18 730.8 1101 805.8 1081 761.37 1030.18"/><polygon class="gh" points="730.8 1101 753.23 1119.48 805.8 1081 730.8 1101"/><polygon class="gi" points="752.8 768 825.8 857 868.8 815 752.8 768"/><polygon class="gj" points="810.8 965 760.8 990 829.8 993 810.8 965"/><polygon class="gk" points="792.8 696 799.8 717 815.8 716 792.8 696"/><polygon class="gl" points="792.8 696 826.8 707 829.8 697 792.8 696"/><polygon class="gm" points="850.8 963 902.8 970 916.88 891.43 850.8 963"/><polygon class="gn" points="716 833.11 742.97 889.85 825.8 857 716 833.11"/><polygon class="go" points="752.8 768 716 833.11 825.8 857 752.8 768"/><polygon class="gp" points="792.8 696 815.8 716 826.8 707 792.8 696"/><polygon class="y" points="82.8 99 668.8 521 864.8 103 82.8 99"/><polygon class="gq" points="825.8 857 742.97 889.85 828.8 884 825.8 857"/><polygon class="gr" points="768.04 919.1 802.8 952 828.8 884 768.04 919.1"/><polygon class="gs" points="742.97 889.85 768.04 919.1 828.8 884 742.97 889.85"/><polygon class="gl" points="839.8 681 829.8 697 850.8 709 839.8 681"/><polygon class="gt" points="761.37 1030.18 805.8 1081 829.8 993 761.37 1030.18"/><polygon class="gu" points="829.8 697 826.8 707 850.8 709 829.8 697"/><polygon class="gv" points="810.8 965 820.8 971 850.8 963 810.8 965"/><polygon class="gw" points="802.8 952 810.8 965 850.8 963 802.8 952"/><polygon class="gx" points="805.8 1081 753.23 1119.48 847.8 1113 805.8 1081"/><polygon class="gy" points="920.8 677 850.8 709 924.8 700 920.8 677"/><polygon class="c" points="1512.7 950.42 1682.8 1166 1682.8 632.5 1512.7 950.42"/><polygon class="gz" points="826.8 707 815.8 716 850.8 709 826.8 707"/><polygon class="ha" points="820.8 971 829.8 993 850.8 963 820.8 971"/><polygon class="hb" points="850.8 709 815.8 716 867.8 744 850.8 709"/><polygon class="hc" points="1667.56 185.83 1666.54 537.58 1682.8 99 1667.56 185.83"/><polygon class="gj" points="850.8 963 900.8 989 902.8 970 850.8 963"/><polygon class="hd" points="924.8 788 868.8 815 949.53 867.84 924.8 788"/><polygon class="he" points="815.8 716 752.8 768 867.8 744 815.8 716"/><polygon class="hf" points="753.23 1119.48 648.8 1128 882.8 1166 753.23 1119.48"/><polygon class="hg" points="864.8 103 668.8 521 897.8 380 864.8 103"/><polygon class="hh" points="864.8 103 897.8 380 904.8 373 864.8 103"/><polygon class="hi" points="923.8 745 867.8 744 924.8 788 923.8 745"/><polygon class="hj" points="829.8 993 805.8 1081 881.8 1089 829.8 993"/><polygon class="hk" points="805.8 1081 847.8 1113 881.8 1089 805.8 1081"/><polygon class="hl" points="648.8 1128 529.8 1138 882.8 1166 648.8 1128"/><polygon class="hm" points="1665.53 147.53 1667.56 185.83 1682.8 99 1665.53 147.53"/><polygon class="hn" points="920.8 677 924.8 700 931.8 651 920.8 677"/><polygon class="ho" points="829.8 993 881.8 1089 900.8 989 829.8 993"/><polygon class="hp" points="850.8 963 829.8 993 900.8 989 850.8 963"/><polygon class="hq" points="923.8 745 938.8 758 946.8 727 923.8 745"/><polygon class="hr" points="828.8 884 850.8 963 916.88 891.43 828.8 884"/><polygon class="hs" points="908.8 464 759.8 622 908.8 593 908.8 464"/><polygon class="ht" points="759.8 622 839.8 681 908.8 593 759.8 622"/><polygon class="hu" points="668.8 521 759.8 622 908.8 464 668.8 521"/><polygon class="hv" points="897.8 380 668.8 521 908.8 464 897.8 380"/><polygon class="hw" points="850.8 709 867.8 744 924.8 700 850.8 709"/><polygon class="fb" points="825.8 857 828.8 884 916.88 891.43 825.8 857"/><polygon class="hx" points="868.8 815 825.8 857 916.88 891.43 868.8 815"/><polygon class="hy" points="868.8 815 916.88 891.43 949.53 867.84 868.8 815"/><polygon class="hz" points="839.8 681 920.8 677 931.8 651 839.8 681"/><polygon class="ia" points="867.8 744 868.8 815 924.8 788 867.8 744"/><polygon class="ib" points="908.8 593 839.8 681 931.8 651 908.8 593"/><polygon class="ic" points="924.8 700 923.8 745 946.8 727 924.8 700"/><polygon class="id" points="867.8 744 923.8 745 924.8 700 867.8 744"/><polygon class="ie" points="839.8 681 850.8 709 920.8 677 839.8 681"/><polygon class="if" points="904.8 373 897.8 380 923.8 387 904.8 373"/><polygon class="ig" points="897.8 380 908.8 464 923.8 387 897.8 380"/><polygon class="ih" points="981.99 864.87 980.82 874.82 1013.63 887.29 981.99 864.87"/><polygon class="ii" points="923.8 387 908.8 464 1002.58 470.02 923.8 387"/><polygon class="ij" points="984.72 916.58 935.08 942.74 987.9 924.15 984.72 916.58"/><polygon class="ik" points="881.8 1089 882.71 1117.4 966.62 1066.19 881.8 1089"/><polygon class="il" points="900.8 989 966.62 1066.19 970.65 1057.41 900.8 989"/><polygon class="im" points="916.88 891.43 902.8 970 935.08 942.74 916.88 891.43"/><polygon class="in" points="923.8 745 924.8 788 938.8 758 923.8 745"/><polygon class="io" points="900.8 989 881.8 1089 966.62 1066.19 900.8 989"/><polygon class="ip" points="935.08 942.74 902.8 970 939.32 971.11 935.08 942.74"/><polygon class="iq" points="980.82 874.82 949.53 867.84 980.88 878.45 980.82 874.82"/><polygon class="ir" points="902.8 970 900.8 989 939.32 971.11 902.8 970"/><polygon class="is" points="1070.92 838 1013.63 887.29 1072.81 888.57 1070.92 838"/><polygon class="it" points="1015.97 1053.75 971.21 1060.73 1020.65 1113.36 1015.97 1053.75"/><polygon class="hk" points="971.21 1060.73 966.62 1066.19 1020.65 1113.36 971.21 1060.73"/><polygon class="hk" points="970.65 1057.41 966.62 1066.19 971.21 1060.73 970.65 1057.41"/><polygon class="iu" points="978.53 1004.74 1015.97 1053.75 1024.83 1026.62 978.53 1004.74"/><polygon class="iv" points="935.08 942.74 977.8 961 987.9 924.15 935.08 942.74"/><polygon class="iw" points="908.8 593 931.8 651 968.8 635 908.8 593"/><polygon class="ds" points="980.82 874.82 980.88 878.45 1013.63 887.29 980.82 874.82"/><polygon class="ix" points="924.8 700 946.8 727 968.8 635 924.8 700"/><polygon class="iy" points="931.8 651 924.8 700 968.8 635 931.8 651"/><polygon class="iz" points="1566.62 586.32 1558.89 596.59 1566.71 587.24 1566.62 586.32"/><polygon class="ja" points="938.8 758 924.8 788 970.8 798 938.8 758"/><polygon class="dy" points="924.8 788 949.53 867.84 970.8 798 924.8 788"/><polygon class="jb" points="1039.24 670.07 1045.83 686.16 1049.69 663.45 1039.24 670.07"/><polygon class="jc" points="970.8 798 949.53 867.84 979.06 861.16 970.8 798"/><polygon class="jd" points="949.53 867.84 976.6 893.65 976.8 892.26 949.53 867.84"/><polygon class="je" points="904.8 373 923.8 387 1003.8 168 904.8 373"/><polygon class="jf" points="949.53 867.84 916.88 891.43 976.6 893.65 949.53 867.84"/><polygon class="jg" points="916.88 891.43 935.08 942.74 976.6 893.65 916.88 891.43"/><polygon class="jh" points="935.08 942.74 939.32 971.11 977.8 961 935.08 942.74"/><polygon points="864.8 103 904.8 373 1003.8 168 864.8 103"/><polygon class="ji" points="977.8 961 939.32 971.11 978.53 1004.74 977.8 961"/><polygon class="jj" points="939.32 971.11 900.8 989 978.53 1004.74 939.32 971.11"/><polygon class="jk" points="900.8 989 970.65 1057.41 978.53 1004.74 900.8 989"/><polygon class="ds" points="979.06 861.16 980.82 874.82 981.99 864.87 979.06 861.16"/><polygon class="jl" points="976.8 892.26 981.72 903.93 1013.63 887.29 976.8 892.26"/><polygon class="jm" points="979.06 861.16 949.53 867.84 980.82 874.82 979.06 861.16"/><polygon class="jn" points="949.53 867.84 976.8 892.26 980.88 878.45 949.53 867.84"/><polygon class="jo" points="976.6 893.65 935.08 942.74 981.72 903.93 976.6 893.65"/><polygon class="jp" points="908.8 464 908.8 593 1002.58 470.02 908.8 464"/><polygon class="jq" points="976.8 892.26 976.6 893.65 981.72 903.93 976.8 892.26"/><polygon class="jr" points="908.8 593 1000.8 605 1002.58 470.02 908.8 593"/><polygon class="jn" points="1072.81 888.57 1074.65 887.29 1075.73 841.84 1072.81 888.57"/><polygon class="js" points="981.72 903.93 935.08 942.74 984.72 916.58 981.72 903.93"/><polygon class="jt" points="1057.98 825.45 1100.94 820.72 1104.36 722.61 1057.98 825.45"/><polygon class="ju" points="1029.8 963 978.53 1004.74 1034.8 1000 1029.8 963"/><polygon class="jv" points="908.8 593 968.8 635 1000.8 605 908.8 593"/><polygon class="f" points="1053.72 643.72 1049.69 663.45 1055.45 662.82 1053.72 643.72"/><polygon class="jw" points="1000.8 605 968.8 635 1023.68 647.57 1000.8 605"/><polygon class="jx" points="1003.8 168 923.8 387 1014.77 453.42 1003.8 168"/><polygon class="jy" points="1002.58 470.02 1013.87 457.43 1014.77 453.42 1002.58 470.02"/><polygon class="jz" points="981.72 903.93 984.72 916.58 1013.63 887.29 981.72 903.93"/><polygon class="ka" points="984.72 916.58 987.9 924.15 1013.63 887.29 984.72 916.58"/><polygon class="kb" points="923.8 387 1002.58 470.02 1014.77 453.42 923.8 387"/><polygon class="f" points="1038.29 643.36 1039.24 670.07 1049.69 663.45 1038.29 643.36"/><polygon class="gq" points="980.88 878.45 976.8 892.26 1013.63 887.29 980.88 878.45"/><polygon class="kc" points="968.8 635 946.8 727 1023.68 647.57 968.8 635"/><polygon class="kd" points="978.53 1004.74 1024.83 1026.62 1034.8 1000 978.53 1004.74"/><polygon class="ke" points="978.53 1004.74 970.65 1057.41 1015.97 1053.75 978.53 1004.74"/><polygon class="kf" points="970.65 1057.41 971.21 1060.73 1015.97 1053.75 970.65 1057.41"/><polygon class="kg" points="882.71 1117.4 882.8 1166 1020.65 1113.36 882.71 1117.4"/><polygon class="kh" points="966.62 1066.19 882.71 1117.4 1020.65 1113.36 966.62 1066.19"/><polygon class="ki" points="1049.69 663.45 1045.83 686.16 1055.45 662.82 1049.69 663.45"/><polygon class="f" points="1038.29 643.36 1028.13 647.11 1039.24 670.07 1038.29 643.36"/><polygon class="kj" points="1039.24 670.07 946.8 727 1045.83 686.16 1039.24 670.07"/><polygon class="kk" points="987.9 924.15 977.8 961 1029.8 963 987.9 924.15"/><polygon class="kl" points="1013.63 887.29 987.9 924.15 1029.8 963 1013.63 887.29"/><polygon class="km" points="1029.8 963 1034.8 1000 1038.8 985 1029.8 963"/><polygon points="1038.29 643.36 1049.69 663.45 1053.72 643.72 1038.29 643.36"/><polygon class="kn" points="977.8 961 978.53 1004.74 1029.8 963 977.8 961"/><polygon class="kl" points="946.8 727 970.8 798 1045.83 686.16 946.8 727"/><polygon class="ko" points="1000.8 605 1023.68 647.57 1038.29 643.36 1000.8 605"/><polygon class="f" points="1023.68 647.57 1028.13 647.11 1038.29 643.36 1023.68 647.57"/><polygon class="kp" points="1045.83 686.16 970.8 798 1057.98 825.45 1045.83 686.16"/><polygon class="kq" points="1072.83 1079.91 1090.65 1102.98 1099.9 1058.45 1072.83 1079.91"/><polygon class="kr" points="1000.8 605 1038.29 643.36 1053.72 643.72 1000.8 605"/><polygon class="ks" points="1023.68 647.57 946.8 727 1039.24 670.07 1023.68 647.57"/><polygon class="f" points="1028.13 647.11 1023.68 647.57 1039.24 670.07 1028.13 647.11"/><polygon class="kt" points="1024.83 1026.62 1015.97 1053.75 1039.92 1050.28 1024.83 1026.62"/><polygon class="hk" points="1015.97 1053.75 1020.65 1113.36 1039.92 1050.28 1015.97 1053.75"/><polygon class="ke" points="1024.83 1026.62 1039.92 1050.28 1067.8 1002 1024.83 1026.62"/><polygon class="ku" points="1070.92 838 1072.81 888.57 1075.73 841.84 1070.92 838"/><polygon class="o" points="1013.87 457.43 1002.58 470.02 1077 641.24 1013.87 457.43"/><polygon class="kv" points="1075.73 841.84 1083.54 879.58 1087.27 833.74 1075.73 841.84"/><polygon class="kw" points="1092.28 889.32 1095.13 896.59 1095.36 893.45 1092.28 889.32"/><polygon class="kx" points="1039.92 1050.28 1020.65 1113.36 1072.83 1079.91 1039.92 1050.28"/><polygon class="ky" points="970.8 798 979.06 861.16 1057.98 825.45 970.8 798"/><polygon class="ku" points="979.06 861.16 981.99 864.87 1057.98 825.45 979.06 861.16"/><polygon class="jm" points="981.99 864.87 1013.63 887.29 1057.98 825.45 981.99 864.87"/><polygon class="kz" points="1034.8 1000 1024.83 1026.62 1067.8 1002 1034.8 1000"/><polygon class="la" points="1013.63 887.29 1029.8 963 1072.81 888.57 1013.63 887.29"/><polygon class="lb" points="1085.29 1027.46 1084.93 1057.28 1090.88 1050.94 1085.29 1027.46"/><polygon class="lc" points="1038.8 985 1034.8 1000 1067.8 1002 1038.8 985"/><polygon class="ld" points="1072.81 888.57 1029.8 963 1094.12 974.76 1072.81 888.57"/><polygon class="le" points="1039.92 1050.28 1084.93 1057.28 1085.29 1027.46 1039.92 1050.28"/><polygon class="lf" points="1045.83 686.16 1057.98 825.45 1104.36 722.61 1045.83 686.16"/><polygon class="kk" points="1057.98 825.45 1013.63 887.29 1070.92 838 1057.98 825.45"/><polygon class="lg" points="1067.8 1002 1039.92 1050.28 1085.29 1027.46 1067.8 1002"/><polygon class="lh" points="1057.98 825.45 1070.92 838 1087.27 833.74 1057.98 825.45"/><polygon class="li" points="1122.9 681.81 1112.74 709.3 1138.34 727.33 1122.9 681.81"/><polygon class="f" points="1053.72 643.72 1055.45 662.82 1077 641.24 1053.72 643.72"/><polygon class="lj" points="1122.9 681.81 1138.34 727.33 1169.8 735 1122.9 681.81"/><polygon class="lk" points="1096.81 1055.36 1099.9 1058.45 1134.41 1038.56 1096.81 1055.36"/><polygon class="f" points="1077 641.24 1055.45 662.82 1112.37 656.35 1077 641.24"/><polygon class="f" points="1000.8 605 1053.72 643.72 1077 641.24 1000.8 605"/><polygon class="ll" points="1002.58 470.02 1000.8 605 1077 641.24 1002.58 470.02"/><polygon class="ir" points="1075.73 841.84 1074.65 887.29 1083.54 879.58 1075.73 841.84"/><polygon class="lm" points="1090.65 1102.98 1020.65 1113.36 1103.65 1108.9 1090.65 1102.98"/><polygon class="lk" points="1105.76 1000.03 1085.29 1027.46 1134.41 1038.56 1105.76 1000.03"/><polygon class="ln" points="1039.92 1050.28 1072.83 1079.91 1084.93 1057.28 1039.92 1050.28"/><polygon class="lo" points="1070.92 838 1075.73 841.84 1087.27 833.74 1070.92 838"/><polygon class="en" points="1087.27 833.74 1100.83 829.55 1100.94 820.72 1087.27 833.74"/><polygon class="lp" points="1057.98 825.45 1087.27 833.74 1100.94 820.72 1057.98 825.45"/><polygon class="lq" points="1090.65 1102.98 1103.65 1108.9 1106.8 1101 1090.65 1102.98"/><polygon class="lr" points="1072.83 1079.91 1020.65 1113.36 1090.65 1102.98 1072.83 1079.91"/><polygon class="ls" points="1099.9 1058.45 1090.65 1102.98 1106.8 1101 1099.9 1058.45"/><polygon class="lt" points="1083.54 879.58 1074.65 887.29 1092.28 889.32 1083.54 879.58"/><polygon class="cf" points="1029.8 963 1038.8 985 1094.12 974.76 1029.8 963"/><polygon class="lu" points="1038.8 985 1067.8 1002 1094.12 974.76 1038.8 985"/><polygon class="lv" points="1045.83 686.16 1107.22 715.6 1112.74 709.3 1045.83 686.16"/><polygon class="lw" points="1096.81 1055.36 1084.93 1057.28 1099.9 1058.45 1096.81 1055.36"/><polygon class="lx" points="1092.28 889.32 1074.65 887.29 1095.13 896.59 1092.28 889.32"/><polygon class="ly" points="1074.65 887.29 1072.81 888.57 1095.13 896.59 1074.65 887.29"/><polygon class="lz" points="1072.81 888.57 1094.12 974.76 1095.13 896.59 1072.81 888.57"/><polygon class="ma" points="1090.88 1050.94 1084.93 1057.28 1096.81 1055.36 1090.88 1050.94"/><polygon class="mb" points="1085.29 1027.46 1090.88 1050.94 1096.81 1055.36 1085.29 1027.46"/><polygon class="mc" points="1084.93 1057.28 1072.83 1079.91 1099.9 1058.45 1084.93 1057.28"/><polygon class="md" points="1105.76 1000.03 1134.41 1038.56 1136.6 1009.86 1105.76 1000.03"/><polygon class="f" points="1238.4 914.21 1270.08 998.67 1512.7 950.42 1238.4 914.21"/><polygon class="ax" points="1020.65 1113.36 882.8 1166 1103.65 1108.9 1020.65 1113.36"/><polygon class="me" points="1013.87 457.43 1077 641.24 1112.37 656.35 1013.87 457.43"/><polygon class="g" points="1014.77 453.42 1013.87 457.43 1112.37 656.35 1014.77 453.42"/><polygon class="mf" points="1141.69 995.2 1183.6 1027.14 1186.99 926.85 1141.69 995.2"/><polygon class="mg" points="1141.74 1016.3 1134.41 1038.56 1145.44 1021.31 1141.74 1016.3"/><polygon class="mh" points="1067.8 1002 1085.29 1027.46 1105.76 1000.03 1067.8 1002"/><polygon class="mi" points="1094.12 974.76 1067.8 1002 1105.76 1000.03 1094.12 974.76"/><polygon class="mj" points="1100.94 820.72 1100.83 829.55 1112.45 834.7 1100.94 820.72"/><polygon class="mk" points="1123.12 907.12 1119.8 944.12 1125.97 938.02 1123.12 907.12"/><polygon class="ml" points="1122.09 902.97 1095.13 896.59 1123.12 907.12 1122.09 902.97"/><polygon class="mm" points="1045.83 686.16 1104.36 722.61 1107.22 715.6 1045.83 686.16"/><polygon class="mn" points="1055.45 662.82 1045.83 686.16 1112.74 709.3 1055.45 662.82"/><polygon class="gq" points="1087.27 833.74 1083.54 879.58 1112.45 834.7 1087.27 833.74"/><polygon class="ks" points="1100.83 829.55 1087.27 833.74 1112.45 834.7 1100.83 829.55"/><polygon class="f" points="1121.26 674.25 1122.9 681.81 1169.8 735 1121.26 674.25"/><polygon class="mo" points="1112.74 709.3 1107.22 715.6 1138.34 727.33 1112.74 709.3"/><polygon class="mp" points="1083.54 879.58 1092.28 889.32 1112.45 834.7 1083.54 879.58"/><polygon class="mq" points="1095.13 896.59 1094.12 974.76 1119.8 944.12 1095.13 896.59"/><polygon class="mp" points="1112.45 834.7 1092.28 889.32 1117.97 894.4 1112.45 834.7"/><polygon class="mr" points="1092.28 889.32 1095.36 893.45 1117.97 894.4 1092.28 889.32"/><polygon class="g" points="1055.45 662.82 1112.74 709.3 1121.26 674.25 1055.45 662.82"/><polygon class="ms" points="1099.9 1058.45 1106.8 1101 1134.41 1038.56 1099.9 1058.45"/><polygon class="mt" points="1095.36 893.45 1095.13 896.59 1117.97 894.4 1095.36 893.45"/><polygon class="mu" points="1174.8 1097 1103.65 1108.9 1189.8 1112 1174.8 1097"/><polygon class="mv" points="1171.76 905.62 1163.02 906.14 1173.53 906.62 1171.76 905.62"/><polygon class="mw" points="1219 887.14 1227.08 887.89 1227.37 877.29 1219 887.14"/><polygon class="ll" points="1112.37 656.35 1055.45 662.82 1121.26 674.25 1112.37 656.35"/><polygon class="mx" points="1085.29 1027.46 1096.81 1055.36 1134.41 1038.56 1085.29 1027.46"/><polygon class="g" points="1112.37 656.35 1121.26 674.25 1169.8 735 1112.37 656.35"/><polygon class="my" points="1117.97 894.4 1095.13 896.59 1122.09 902.97 1117.97 894.4"/><polygon class="mz" points="1121.56 899.57 1117.97 894.4 1122.09 902.97 1121.56 899.57"/><polygon class="na" points="1141.69 995.2 1136.6 1009.86 1141.74 1016.3 1141.69 995.2"/><polygon class="g" points="1121.26 674.25 1112.74 709.3 1122.9 681.81 1121.26 674.25"/><polygon class="nb" points="1095.13 896.59 1119.8 944.12 1123.12 907.12 1095.13 896.59"/><polygon class="nc" points="1136.6 1009.86 1134.41 1038.56 1141.74 1016.3 1136.6 1009.86"/><polygon class="nd" points="1256.8 1012.78 1260.15 1011.67 1270.08 998.67 1256.8 1012.78"/><polygon class="ne" points="1141.74 1016.3 1145.44 1021.31 1152.85 1018.76 1141.74 1016.3"/><polygon class="nf" points="1141.69 995.2 1141.74 1016.3 1152.85 1018.76 1141.69 995.2"/><polygon class="ng" points="1123.12 907.12 1125.97 938.02 1163.02 906.14 1123.12 907.12"/><polygon class="di" points="1107.22 715.6 1104.36 722.61 1138.34 727.33 1107.22 715.6"/><polygon class="nh" points="1094.12 974.76 1105.76 1000.03 1141.69 995.2 1094.12 974.76"/><polygon class="ni" points="1119.8 944.12 1094.12 974.76 1141.69 995.2 1119.8 944.12"/><polygon class="nj" points="1125.97 938.02 1119.8 944.12 1141.69 995.2 1125.97 938.02"/><polygon class="nk" points="1105.76 1000.03 1136.6 1009.86 1141.69 995.2 1105.76 1000.03"/><polygon class="nl" points="1247.08 1015.75 1256.8 1012.78 1270.08 998.67 1247.08 1015.75"/><polygon class="nm" points="1138.34 727.33 1156.8 768 1169.8 735 1138.34 727.33"/><polygon class="nn" points="1100.94 820.72 1112.45 834.7 1156.8 768 1100.94 820.72"/><polygon class="no" points="1138.34 727.33 1104.36 722.61 1156.8 768 1138.34 727.33"/><polygon class="np" points="1104.36 722.61 1100.94 820.72 1156.8 768 1104.36 722.61"/><polygon class="nq" points="1121.56 899.57 1122.09 902.97 1163.02 906.14 1121.56 899.57"/><polygon class="nr" points="1122.09 902.97 1123.12 907.12 1163.02 906.14 1122.09 902.97"/><polygon class="ns" points="1106.8 1101 1103.65 1108.9 1174.8 1097 1106.8 1101"/><polygon class="nt" points="1117.97 894.4 1121.56 899.57 1163.02 906.14 1117.97 894.4"/><polygon class="nu" points="1152.85 1018.76 1170.16 1027.48 1183.6 1027.14 1152.85 1018.76"/><polygon class="nv" points="1145.44 1021.31 1134.41 1038.56 1170.16 1027.48 1145.44 1021.31"/><polygon class="il" points="1152.85 1018.76 1145.44 1021.31 1170.16 1027.48 1152.85 1018.76"/><polygon class="nw" points="1193.8 1078 1189.8 1112 1210.8 1112 1193.8 1078"/><polygon class="nx" points="1183.6 1027.14 1204.07 1028.11 1204.67 1025.63 1183.6 1027.14"/><polygon class="ny" points="1134.41 1038.56 1106.8 1101 1174.8 1097 1134.41 1038.56"/><polygon class="nz" points="1156.8 768 1181.88 871.93 1218.6 847.59 1156.8 768"/><polygon class="o" points="1240.66 1017.92 1240.94 1019.91 1242.68 1019.47 1240.66 1017.92"/><polygon class="oa" points="1171.76 905.62 1173.53 906.62 1177.49 885.92 1171.76 905.62"/><polygon class="ob" points="1117.97 894.4 1163.02 906.14 1177.49 885.92 1117.97 894.4"/><polygon class="oc" points="1163.02 906.14 1171.76 905.62 1177.49 885.92 1163.02 906.14"/><polygon class="od" points="1141.69 995.2 1152.85 1018.76 1183.6 1027.14 1141.69 995.2"/><polygon class="oe" points="1117.97 894.4 1177.49 885.92 1179.9 878.41 1117.97 894.4"/><polygon class="no" points="1112.45 834.7 1117.97 894.4 1181.88 871.93 1112.45 834.7"/><polygon class="of" points="1117.97 894.4 1179.9 878.41 1181.88 871.93 1117.97 894.4"/><polygon class="og" points="1217.93 1030.89 1204.07 1028.11 1218.46 1034.74 1217.93 1030.89"/><polygon class="oh" points="1156.8 768 1112.45 834.7 1181.88 871.93 1156.8 768"/><polygon class="oi" points="1125.97 938.02 1141.69 995.2 1186.99 926.85 1125.97 938.02"/><polygon class="oj" points="1163.02 906.14 1125.97 938.02 1186.99 926.85 1163.02 906.14"/><polygon class="ok" points="1173.53 906.62 1163.02 906.14 1186.99 926.85 1173.53 906.62"/><polygon class="ol" points="1174.8 1097 1189.8 1112 1193.8 1078 1174.8 1097"/><polygon class="om" points="1186.99 926.85 1183.6 1027.14 1204.67 1025.63 1186.99 926.85"/><polygon class="on" points="1103.65 1108.9 882.8 1166 1189.8 1112 1103.65 1108.9"/><polygon class="oo" points="1183.6 1027.14 1170.16 1027.48 1193.8 1078 1183.6 1027.14"/><polygon class="op" points="1134.41 1038.56 1174.8 1097 1193.8 1078 1134.41 1038.56"/><polygon class="oq" points="1170.16 1027.48 1134.41 1038.56 1193.8 1078 1170.16 1027.48"/><polygon class="or" points="1189.8 1112 882.8 1166 1210.8 1112 1189.8 1112"/><polygon class="os" points="1183.6 1027.14 1193.8 1078 1204.07 1028.11 1183.6 1027.14"/><polygon class="o" points="1248.8 1055 1210.8 1112 1259.8 1113 1248.8 1055"/><polygon class="ot" points="1193.8 1078 1210.8 1112 1248.8 1055 1193.8 1078"/><polygon class="ou" points="1204.07 1028.11 1193.8 1078 1218.46 1034.74 1204.07 1028.11"/><polygon class="nt" points="1219 887.14 1226.06 913.26 1227.08 887.89 1219 887.14"/><polygon class="ov" points="1169.8 735 1218.6 847.59 1222.73 848.22 1169.8 735"/><polygon class="t" points="1204.67 1025.63 1204.07 1028.11 1217.93 1030.89 1204.67 1025.63"/><polygon class="ow" points="1169.8 735 1156.8 768 1218.6 847.59 1169.8 735"/><polygon class="ox" points="1179.9 878.41 1177.49 885.92 1219 887.14 1179.9 878.41"/><polygon class="oy" points="1226.06 913.26 1247.08 1015.75 1270.08 998.67 1226.06 913.26"/><polygon class="oz" points="1181.88 871.93 1179.9 878.41 1219 887.14 1181.88 871.93"/><polygon class="pa" points="1173.53 906.62 1186.99 926.85 1219 887.14 1173.53 906.62"/><polygon class="pb" points="1177.49 885.92 1173.53 906.62 1219 887.14 1177.49 885.92"/><polygon class="pc" points="1219 887.14 1227.37 877.29 1228.8 868.7 1219 887.14"/><polygon class="pd" points="1222.73 848.22 1218.6 847.59 1228.8 868.7 1222.73 848.22"/><polygon class="pe" points="1186.99 926.85 1204.67 1025.63 1223.86 1022.01 1186.99 926.85"/><polygon class="pf" points="1204.67 1025.63 1217.93 1030.89 1223.86 1022.01 1204.67 1025.63"/><polygon class="pg" points="1217.93 1030.89 1218.46 1034.74 1223.86 1022.01 1217.93 1030.89"/><polygon class="f" points="1260.15 1011.67 1260.06 1013.7 1262.56 1010.91 1260.15 1011.67"/><polygon class="ph" points="1219 887.14 1186.99 926.85 1226.06 913.26 1219 887.14"/><polygon class="pi" points="1218.6 847.59 1181.88 871.93 1228.8 868.7 1218.6 847.59"/><polygon class="pj" points="1181.88 871.93 1219 887.14 1228.8 868.7 1181.88 871.93"/><polygon class="pk" points="1186.99 926.85 1223.86 1022.01 1228.94 1020.86 1186.99 926.85"/><polygon class="pl" points="1238.4 914.21 1226.06 913.26 1270.08 998.67 1238.4 914.21"/><polygon class="pm" points="1228.8 868.7 1227.37 877.29 1238.4 914.21 1228.8 868.7"/><polygon class="pn" points="1223.86 1022.01 1218.46 1034.74 1228.94 1020.86 1223.86 1022.01"/><polygon class="po" points="1227.37 877.29 1227.08 887.89 1238.4 914.21 1227.37 877.29"/><polygon class="pp" points="1227.08 887.89 1226.06 913.26 1238.4 914.21 1227.08 887.89"/><polygon class="pq" points="1226.06 913.26 1186.99 926.85 1240.66 1017.92 1226.06 913.26"/><polygon class="pr" points="1186.99 926.85 1228.94 1020.86 1240.66 1017.92 1186.99 926.85"/><polygon class="ps" points="1245.88 1035.82 1218.46 1034.74 1246.74 1042.19 1245.88 1035.82"/><polygon class="p" points="1240.66 1017.92 1228.94 1020.86 1240.94 1019.91 1240.66 1017.92"/><polygon class="pt" points="1240.66 1017.92 1242.68 1019.47 1247.08 1015.75 1240.66 1017.92"/><polygon class="f" points="1242.68 1019.47 1240.94 1019.91 1245.88 1035.82 1242.68 1019.47"/><polygon class="pu" points="1246.74 1042.19 1218.46 1034.74 1248.8 1055 1246.74 1042.19"/><polygon class="pv" points="1228.94 1020.86 1218.46 1034.74 1245.88 1035.82 1228.94 1020.86"/><polygon class="me" points="1240.94 1019.91 1228.94 1020.86 1245.88 1035.82 1240.94 1019.91"/><polygon class="pw" points="1218.46 1034.74 1193.8 1078 1248.8 1055 1218.46 1034.74"/><polygon class="g" points="1260.06 1013.7 1248.8 1055 1262.56 1010.91 1260.06 1013.7"/><polygon class="px" points="1226.06 913.26 1240.66 1017.92 1247.08 1015.75 1226.06 913.26"/><polygon class="pt" points="1254.04 1015.88 1257.01 1016.77 1257.11 1014.82 1254.04 1015.88"/><polygon class="me" points="1256.8 1012.78 1254.04 1015.88 1257.11 1014.82 1256.8 1012.78"/><polygon class="f" points="1242.68 1019.47 1245.88 1035.82 1254.04 1015.88 1242.68 1019.47"/><polygon class="py" points="1247.08 1015.75 1242.68 1019.47 1254.04 1015.88 1247.08 1015.75"/><polygon class="cm" points="1247.08 1015.75 1254.04 1015.88 1256.8 1012.78 1247.08 1015.75"/><polygon class="pu" points="1262.56 1010.91 1259.8 1113 1270.08 998.67 1262.56 1010.91"/><polygon class="f" points="1248.8 1055 1259.8 1113 1262.56 1010.91 1248.8 1055"/><polygon class="f" points="1245.88 1035.82 1246.74 1042.19 1257.01 1016.77 1245.88 1035.82"/><polygon class="f" points="1254.04 1015.88 1245.88 1035.82 1257.01 1016.77 1254.04 1015.88"/><polygon class="f" points="1246.74 1042.19 1248.8 1055 1257.01 1016.77 1246.74 1042.19"/><polygon class="pz" points="1658.41 188.97 1558.06 420.11 1667.56 185.83 1658.41 188.97"/><polygon class="qa" points="1210.8 1112 882.8 1166 1259.8 1113 1210.8 1112"/><polygon class="pt" points="1256.8 1012.78 1257.11 1014.82 1260.06 1013.7 1256.8 1012.78"/><polygon class="f" points="1257.01 1016.77 1248.8 1055 1260.06 1013.7 1257.01 1016.77"/><polygon class="f" points="1256.8 1012.78 1260.06 1013.7 1260.15 1011.67 1256.8 1012.78"/><polygon class="qb" points="1257.11 1014.82 1257.01 1016.77 1260.06 1013.7 1257.11 1014.82"/><polygon class="qc" points="1260.15 1011.67 1262.56 1010.91 1270.08 998.67 1260.15 1011.67"/><polygon class="f" points="1228.8 868.7 1238.4 914.21 1512.7 950.42 1228.8 868.7"/><polygon class="f" points="1270.08 998.67 1259.8 1113 1512.7 950.42 1270.08 998.67"/><polygon class="f" points="1003.8 168 1664.49 113.77 1682.8 99 1003.8 168"/><polygon class="f" points="864.8 103 1003.8 168 1682.8 99 864.8 103"/><polygon class="f" points="1222.73 848.22 1228.8 868.7 1512.7 950.42 1222.73 848.22"/><polygon class="g" points="1003.8 168 1014.77 453.42 1558.06 420.11 1003.8 168"/><polygon class="f" points="1014.77 453.42 1112.37 656.35 1558.06 420.11 1014.77 453.42"/><polygon class="qd" points="1664.49 113.77 1659.45 140.77 1665.53 147.53 1664.49 113.77"/><polygon class="g" points="1112.37 656.35 1169.8 735 1558.19 537.54 1112.37 656.35"/><polygon class="g" points="1558.06 420.11 1112.37 656.35 1558.19 537.54 1558.06 420.11"/><polygon class="o" points="1558.19 537.54 1169.8 735 1558.89 596.59 1558.19 537.54"/><polygon class="f" points="1222.73 848.22 1512.7 950.42 1558.89 596.59 1222.73 848.22"/><polygon class="f" points="1169.8 735 1222.73 848.22 1558.89 596.59 1169.8 735"/><polygon class="qe" points="1665.53 147.53 1662.19 163.75 1667.56 185.83 1665.53 147.53"/><polygon class="qf" points="1657.83 140.62 1659.45 140.77 1664.49 113.77 1657.83 140.62"/><polygon class="qg" points="1558.19 537.54 1558.89 596.59 1566.62 586.32 1558.19 537.54"/><polygon class="qh" points="1653.13 144.66 1658.41 188.97 1662.19 163.75 1653.13 144.66"/><polygon class="f" points="1003.8 168 1558.06 420.11 1653.13 144.66 1003.8 168"/><polygon class="me" points="1512.7 950.42 1259.8 1113 1682.8 1166 1512.7 950.42"/><polygon class="qi" points="1566.62 586.32 1566.71 587.24 1666.54 537.58 1566.62 586.32"/><polygon class="qj" points="1653.13 144.66 1662.19 163.75 1665.53 147.53 1653.13 144.66"/><polygon class="ps" points="1653.13 144.66 1558.06 420.11 1658.41 188.97 1653.13 144.66"/><polygon class="qk" points="1659.45 140.77 1653.13 144.66 1665.53 147.53 1659.45 140.77"/><polygon class="ql" points="1662.19 163.75 1658.41 188.97 1667.56 185.83 1662.19 163.75"/><polygon class="qm" points="1657.83 140.62 1653.13 144.66 1659.45 140.77 1657.83 140.62"/><polygon class="f" points="1003.8 168 1653.13 144.66 1664.49 113.77 1003.8 168"/><polygon class="qn" points="1653.13 144.66 1657.83 140.62 1664.49 113.77 1653.13 144.66"/><polygon class="qo" points="1558.19 537.54 1566.62 586.32 1666.54 537.58 1558.19 537.54"/><polygon class="qp" points="1664.49 113.77 1665.53 147.53 1682.8 99 1664.49 113.77"/><polygon class="u" points="1558.06 420.11 1666.54 537.58 1667.56 185.83 1558.06 420.11"/><polygon class="c" points="1558.06 420.11 1558.19 537.54 1666.54 537.58 1558.06 420.11"/></svg>