<svg xmlns="http://www.w3.org/2000/svg" viewBox="0 0 1781.49 1264.88"><defs><style>.a{fill:#030502;}.b{fill:#010101;}.c{fill:#1e0f08;}.d{fill:#42362a;}.e{fill:#42352c;}.f{fill:#050601;}.g{fill:#050503;}.h{fill:#514633;}.i{fill:#322924;}.j{fill:#4f4337;}.k{fill:#070604;}.l{fill:#030301;}.m{fill:#7e6d53;}.n{fill:#040402;}.o{fill:#090b0a;}.p{fill:#77654f;}.q{fill:#836b53;}.r{fill:#7b674f;}.s{fill:#645542;}.t{fill:#161510;}.u{fill:#000002;}.v{fill:#584c3c;}.w{fill:#817255;}.x{fill:#030400;}.y{fill:#816550;}.z{fill:#88725b;}.aa{fill:#867058;}.ab{fill:#74644a;}.ac{fill:#040500;}.ad{fill:#866f4f;}.ae{fill:#847055;}.af{fill:#816c51;}.ag{fill:#060300;}.ah{fill:#90765f;}.ai{fill:#90745c;}.aj{fill:#866659;}.ak{fill:#8d735a;}.al{fill:#380200;}.am{fill:#3b322b;}.an{fill:#826c54;}.ao{fill:#070803;}.ap{fill:#564637;}.aq{fill:#080705;}.ar{fill:#8e765a;}.as{fill:#856d51;}.at{fill:#887555;}.au{fill:#11100e;}.av{fill:#320001;}.aw{fill:#917760;}.ax{fill:#070802;}.ay{fill:#0b0400;}.az{fill:#210303;}.ba{fill:#856b52;}.bb{fill:#7e644b;}.bc{fill:#887358;}.bd{fill:#070705;}.be{fill:#26110c;}.bf{fill:#7c634d;}.bg{fill:#8b7359;}.bh{fill:#92785f;}.bi{fill:#8d785d;}.bj{fill:#5b4e3b;}.bk{fill:#544530;}.bl{fill:#3b372b;}.bm{fill:#0b0b09;}.bn{fill:#8f7859;}.bo{fill:#816849;}.bp{fill:#826b4c;}.bq{fill:#705e46;}.br{fill:#7a6344;}.bs{fill:#86734b;}.bt{fill:#927d62;}.bu{fill:#8f7961;}.bv{fill:#917c5f;}.bw{fill:#460003;}.bx{fill:#060702;}.by{fill:#816852;}.bz{fill:#6d5e47;}.ca{fill:#91795d;}.cb{fill:#89785c;}.cc{fill:#927661;}.cd{fill:#947c64;}.ce{fill:#7a694f;}.cf{fill:#070602;}.cg{fill:#0b0603;}.ch{fill:#837052;}.ci{fill:#957d61;}.cj{fill:#8a7556;}.ck{fill:#000201;}.cl{fill:#040509;}.cm{fill:#010302;}.cn{fill:#020403;}.co{fill:#844826;}.cp{fill:#02070b;}.cq{fill:#934b27;}.cr{fill:#924929;}.cs{fill:#6c3a1f;}.ct{fill:#120d09;}.cu{fill:#371c13;}.cv{fill:#6d3a1d;}.cw{fill:#894727;}.cx{fill:#442813;}.cy{fill:#0c0805;}.cz{fill:#964c2b;}.da{fill:#040404;}.db{fill:#080806;}.dc{fill:#984e2b;}.dd{fill:#904a29;}.de{fill:#170c06;}.df{fill:#4c2214;}.dg{fill:#090907;}.dh{fill:#050400;}.di{fill:#090803;}.dj{fill:#0d0c08;}.dk{fill:#210502;}.dl{fill:#11100c;}.dm{fill:#060503;}.dn{fill:#010100;}.do{fill:#6e4333;}.dp{fill:#020200;}.dq{fill:#25110a;}.dr{fill:#020300;}.ds{fill:#5c2f18;}.dt{fill:#4b1f12;}.du{fill:#7b3c2a;}.dv{fill:#7c4d33;}.dw{fill:#986645;}.dx{fill:#622918;}.dy{fill:#75432a;}.dz{fill:#1d1a11;}.ea{fill:#030303;}.eb{fill:#030200;}.ec{fill:#b97342;}.ed{fill:#b77044;}.ee{fill:#b2683d;}.ef{fill:#442719;}.eg{fill:#743c25;}.eh{fill:#61331c;}.ei{fill:#390305;}.ej{fill:#837a5d;}.ek{fill:#0a0a0a;}.el{fill:#10110c;}.em{fill:#4d3d30;}.en{fill:#7b654d;}.eo{fill:#3c0103;}.ep{fill:#3d0302;}.eq{fill:#060000;}.er{fill:#846a53;}.es{fill:#3c0600;}.et{fill:#000100;}.eu{fill:#776750;}.ev{fill:#2a1b14;}.ew{fill:#483b32;}.ex{fill:#6e5e4d;}.ey{fill:#340201;}.ez{fill:#000004;}.fa{fill:#806e5a;}.fb{fill:#4e443a;}.fc{fill:#2f0707;}.fd{fill:#080904;}.fe{fill:#76644c;}.ff{fill:#060501;}.fg{fill:#807059;}.fh{fill:#82715d;}.fi{fill:#040605;}.fj{fill:#010000;}.fk{fill:#120800;}.fl{fill:#876d54;}.fm{fill:#020202;}.fn{fill:#50483b;}.fo{fill:#8e7861;}.fp{fill:#7d6951;}.fq{fill:#252614;}.fr{fill:#59493a;}.fs{fill:#433228;}.ft{fill:#8a7767;}.fu{fill:#48382b;}.fv{fill:#4f3f30;}.fw{fill:#2a231d;}.fx{fill:#6d624f;}.fy{fill:#30221f;}.fz{fill:#000403;}.ga{fill:#3c382d;}.gb{fill:#000005;}.gc{fill:#6a5945;}.gd{fill:#766249;}.ge{fill:#6f654c;}.gf{fill:#211e19;}.gg{fill:#181411;}.gh{fill:#5b533f;}.gi{fill:#221d19;}.gj{fill:#56453b;}.gk{fill:#473e2d;}.gl{fill:#151110;}.gm{fill:#292117;}.gn{fill:#554c3b;}.go{fill:#2f221c;}.gp{fill:#1b1610;}.gq{fill:#766957;}.gr{fill:#71604e;}.gs{fill:#261e1b;}.gt{fill:#7d6752;}.gu{fill:#534133;}.gv{fill:#72664c;}.gw{fill:#52432e;}.gx{fill:#715f55;}.gy{fill:#443725;}.gz{fill:#28251c;}.ha{fill:#26211d;}.hb{fill:#14130f;}.hc{fill:#0b0b0b;}.hd{fill:#0a0a08;}.he{fill:#060606;}.hf{fill:#201f1a;}.hg{fill:#1a1613;}.hh{fill:#0f0b08;}.hi{fill:#15110e;}.hj{fill:#0a0b06;}.hk{fill:#29261f;}.hl{fill:#27221e;}.hm{fill:#484036;}.hn{fill:#090909;}.ho{fill:#2f2820;}.hp{fill:#2d2413;}.hq{fill:#3d3329;}.hr{fill:#1e1915;}.hs{fill:#060604;}.ht{fill:#1d1a15;}.hu{fill:#598d98;}</style></defs><title>top</title><polygon points="27.01 0 0 38.93 35.6 5.22 27.01 0"/><polygon points="1772.9 1225.96 1745.89 1264.88 1781.49 1231.18 1772.9 1225.96"/><polygon class="a" points="1682.8 632.5 1274.64 1001.6 1682.8 1166 1682.8 632.5"/><polygon class="b" points="1274.64 1001.6 1273.53 1002.9 1682.8 1166 1274.64 1001.6"/><polygon class="c" points="908.16 239.84 935.16 296.15 941.96 252.13 908.16 239.84"/><polygon class="b" points="1273.53 1002.9 882.8 1166 1682.8 1166 1273.53 1002.9"/><polygon class="d" points="614.24 769.3 581.5 790.87 614.7 823.26 614.24 769.3"/><polygon class="e" points="749.6 816.36 698.29 855.47 882.8 1166 749.6 816.36"/><polygon class="b" points="82.8 632.5 82.8 1166 528.63 1023.73 82.8 632.5"/><polygon class="f" points="573.78 714.57 599.77 753.61 613.04 742.88 573.78 714.57"/><polygon class="g" points="573.78 714.57 613.04 742.88 613.64 713.72 573.78 714.57"/><polygon class="b" points="573.78 714.57 82.8 632.5 574.08 783.71 573.78 714.57"/><polygon class="b" points="82.8 632.5 528.63 1023.73 574.08 783.71 82.8 632.5"/><polygon class="h" points="574.08 783.71 582.74 782.32 584.33 772.87 574.08 783.71"/><polygon class="i" points="574.08 783.71 528.63 1023.73 581.5 790.87 574.08 783.71"/><polygon class="j" points="574.08 783.71 581.5 790.87 582.74 782.32 574.08 783.71"/><polygon class="k" points="573.78 714.57 574.08 783.71 584.33 772.87 573.78 714.57"/><polygon class="g" points="573.78 714.57 584.33 772.87 599.77 753.61 573.78 714.57"/><polygon class="f" points="610.75 690.57 573.78 714.57 612.4 706.19 610.75 690.57"/><polygon class="l" points="612.4 706.19 573.78 714.57 613.64 713.72 612.4 706.19"/><polygon class="m" points="599.77 753.61 584.33 772.87 601.77 756.35 599.77 753.61"/><polygon class="n" points="612.4 706.19 613.64 713.72 622.94 699.19 612.4 706.19"/><polygon class="b" points="82.8 632.5 573.78 714.57 610.75 690.57 82.8 632.5"/><polygon class="o" points="82.8 99 82.8 632.5 610.75 690.57 82.8 99"/><polygon class="p" points="613.04 742.88 616.65 745.24 620.1 743.69 613.04 742.88"/><polygon class="q" points="601.77 756.35 614.24 769.3 616.65 745.24 601.77 756.35"/><polygon class="r" points="599.77 753.61 601.77 756.35 613.04 742.88 599.77 753.61"/><polygon class="s" points="582.74 782.32 581.5 790.87 614.24 769.3 582.74 782.32"/><polygon class="t" points="581.5 790.87 528.63 1023.73 614.7 823.26 581.5 790.87"/><polygon class="u" points="613.64 713.72 645.58 730.97 651.17 719.77 613.64 713.72"/><polygon class="v" points="584.33 772.87 582.74 782.32 614.24 769.3 584.33 772.87"/><polygon class="w" points="601.77 756.35 584.33 772.87 614.24 769.3 601.77 756.35"/><polygon class="x" points="622.94 699.19 613.64 713.72 651.17 719.77 622.94 699.19"/><polygon class="y" points="613.04 742.88 601.77 756.35 616.65 745.24 613.04 742.88"/><polygon class="z" points="616.65 745.24 614.24 769.3 620.1 743.69 616.65 745.24"/><polygon class="f" points="610.75 690.57 612.4 706.19 622.94 699.19 610.75 690.57"/><polygon class="aa" points="709.12 690.77 712.93 697.14 713.22 692.93 709.12 690.77"/><polygon class="ab" points="613.04 742.88 620.1 743.69 620.99 738.95 613.04 742.88"/><polygon class="ac" points="613.64 713.72 613.04 742.88 620.99 738.95 613.64 713.72"/><polygon class="ad" points="631.23 736.57 620.1 743.69 656.63 744.2 631.23 736.57"/><polygon class="ae" points="620.99 738.95 620.1 743.69 631.23 736.57 620.99 738.95"/><polygon class="af" points="620.1 743.69 614.24 769.3 656.63 744.2 620.1 743.69"/><polygon class="x" points="613.64 713.72 620.99 738.95 631.23 736.57 613.64 713.72"/><polygon class="ag" points="613.64 713.72 631.23 736.57 645.58 730.97 613.64 713.72"/><polygon class="ah" points="645.58 730.97 656.63 744.2 657.36 721.02 645.58 730.97"/><polygon class="ai" points="651.17 719.77 645.58 730.97 657.36 721.02 651.17 719.77"/><polygon class="aj" points="722.08 684.07 725.94 683.26 730.15 679.09 722.08 684.07"/><polygon class="ak" points="645.58 730.97 631.23 736.57 656.63 744.2 645.58 730.97"/><polygon class="al" points="678.58 843.42 662.64 867.61 679.66 877.04 678.58 843.42"/><polygon class="am" points="662.64 867.61 614.7 823.26 668.54 880.24 662.64 867.61"/><polygon class="an" points="664.14 716.07 664.63 717.45 665.82 715.18 664.14 716.07"/><polygon class="ao" points="610.75 690.57 663.18 685.59 673.63 657.64 610.75 690.57"/><polygon class="ap" points="678.58 843.42 698.29 855.47 749.6 816.36 678.58 843.42"/><polygon class="g" points="610.75 690.57 622.94 699.19 663.18 685.59 610.75 690.57"/><polygon class="aq" points="622.94 699.19 651.17 719.77 663.18 685.59 622.94 699.19"/><polygon class="ar" points="651.17 719.77 657.36 721.02 664.14 716.07 651.17 719.77"/><polygon class="a" points="663.18 685.59 651.17 719.77 664.14 716.07 663.18 685.59"/><polygon class="as" points="664.14 716.07 657.36 721.02 664.63 717.45 664.14 716.07"/><polygon class="at" points="657.36 721.02 656.63 744.2 664.63 717.45 657.36 721.02"/><polygon class="au" points="614.7 823.26 528.63 1023.73 668.54 880.24 614.7 823.26"/><polygon class="av" points="662.64 867.61 668.54 880.24 679.66 877.04 662.64 867.61"/><polygon class="aw" points="664.14 716.07 665.82 715.18 672.84 711.44 664.14 716.07"/><polygon class="ax" points="663.18 685.59 664.14 716.07 672.84 711.44 663.18 685.59"/><polygon class="ay" points="701.28 666.46 704.91 693.12 709.12 690.77 701.28 666.46"/><polygon class="az" points="698.29 855.47 679.66 877.04 882.8 1166 698.29 855.47"/><polygon class="ba" points="665.82 715.18 664.63 717.45 672.85 713.13 665.82 715.18"/><polygon class="bb" points="672.84 711.44 665.82 715.18 672.85 713.13 672.84 711.44"/><polygon class="bc" points="672.84 711.44 676.84 711.11 677.59 706.97 672.84 711.44"/><polygon class="bd" points="663.18 685.59 672.84 711.44 677.59 706.97 663.18 685.59"/><polygon class="be" points="827.78 462.99 848.28 487.74 879.51 478.57 827.78 462.99"/><polygon class="bf" points="672.84 711.44 672.85 713.13 676.84 711.11 672.84 711.44"/><polygon class="bg" points="664.63 717.45 656.63 744.2 677.62 718.9 664.63 717.45"/><polygon class="bh" points="672.85 713.13 664.63 717.45 677.62 718.9 672.85 713.13"/><polygon class="bi" points="676.84 711.11 672.85 713.13 677.62 718.9 676.84 711.11"/><polygon class="bj" points="614.24 769.3 614.7 823.26 678.58 843.42 614.24 769.3"/><polygon class="bk" points="656.63 744.2 614.24 769.3 678.58 843.42 656.63 744.2"/><polygon class="bl" points="614.7 823.26 662.64 867.61 678.58 843.42 614.7 823.26"/><polygon class="bm" points="701.28 666.46 722.08 684.07 730.15 679.09 701.28 666.46"/><polygon class="g" points="663.18 685.59 677.59 706.97 684.2 703.75 663.18 685.59"/><polygon class="bn" points="676.84 711.11 677.62 718.9 684.47 711.05 676.84 711.11"/><polygon class="bo" points="684.2 703.75 677.59 706.97 684.47 711.05 684.2 703.75"/><polygon class="bp" points="677.59 706.97 676.84 711.11 684.47 711.05 677.59 706.97"/><polygon class="l" points="663.18 685.59 684.2 703.75 689.24 700.75 663.18 685.59"/><polygon class="bq" points="732.47 716 656.63 744.2 749.6 816.36 732.47 716"/><polygon class="br" points="689.24 700.75 684.2 703.75 690.99 702.15 689.24 700.75"/><polygon class="bs" points="684.2 703.75 684.47 711.05 690.99 702.15 684.2 703.75"/><polygon class="bt" points="722.08 684.07 712.93 697.14 725.94 683.26 722.08 684.07"/><polygon class="bu" points="725.94 683.26 712.93 697.14 732.47 716 725.94 683.26"/><polygon class="bv" points="730.15 679.09 725.94 683.26 732.47 716 730.15 679.09"/><polygon class="bw" points="678.58 843.42 679.66 877.04 698.29 855.47 678.58 843.42"/><polygon class="l" points="697.71 660.34 673.63 657.64 701.28 666.46 697.71 660.34"/><polygon class="bx" points="663.18 685.59 689.24 700.75 701.28 666.46 663.18 685.59"/><polygon class="n" points="673.63 657.64 663.18 685.59 701.28 666.46 673.63 657.64"/><polygon class="g" points="701.28 666.46 701.33 695.06 704.91 693.12 701.28 666.46"/><polygon class="bx" points="701.28 666.46 689.24 700.75 701.33 695.06 701.28 666.46"/><polygon class="by" points="689.24 700.75 690.99 702.15 701.33 695.06 689.24 700.75"/><polygon class="k" points="697.71 660.34 701.28 666.46 730.15 679.09 697.71 660.34"/><polygon class="bz" points="656.63 744.2 678.58 843.42 749.6 816.36 656.63 744.2"/><polygon class="ca" points="690.99 702.15 684.47 711.05 712.93 697.14 690.99 702.15"/><polygon class="cb" points="701.33 695.06 690.99 702.15 712.93 697.14 701.33 695.06"/><polygon class="cc" points="704.91 693.12 701.33 695.06 712.93 697.14 704.91 693.12"/><polygon class="cd" points="709.12 690.77 704.91 693.12 712.93 697.14 709.12 690.77"/><polygon class="ca" points="713.22 692.93 712.93 697.14 722.08 684.07 713.22 692.93"/><polygon class="ce" points="709.12 690.77 713.22 692.93 722.08 684.07 709.12 690.77"/><polygon class="cf" points="701.28 666.46 709.12 690.77 722.08 684.07 701.28 666.46"/><polygon class="cg" points="893.91 431.67 903.95 456 922.13 398.4 893.91 431.67"/><polygon class="ch" points="677.62 718.9 656.63 744.2 732.47 716 677.62 718.9"/><polygon class="ci" points="712.93 697.14 684.47 711.05 732.47 716 712.93 697.14"/><polygon class="cj" points="684.47 711.05 677.62 718.9 732.47 716 684.47 711.05"/><polygon class="g" points="879.51 478.57 882.98 483.09 903.95 456 879.51 478.57"/><polygon class="ck" points="82.8 99 800.09 243.31 882.8 99 82.8 99"/><polygon class="b" points="82.8 99 610.75 690.57 758.44 492.53 82.8 99"/><polygon class="cl" points="610.75 690.57 673.63 657.64 758.44 492.53 610.75 690.57"/><polygon class="cm" points="673.63 657.64 697.71 660.34 758.44 492.53 673.63 657.64"/><polygon class="cn" points="697.71 660.34 730.15 679.09 758.44 492.53 697.71 660.34"/><polygon class="co" points="822.08 284.06 828.51 281.14 829.55 278.89 822.08 284.06"/><polygon class="cp" points="847.35 396.52 883.99 423.11 884.7 415.02 847.35 396.52"/><polygon class="cq" points="819.27 290.56 818.36 295.82 819.57 298.86 819.27 290.56"/><polygon class="cr" points="816.95 288.01 819.27 290.56 822.08 284.06 816.95 288.01"/><polygon class="b" points="1208.37 696.34 1211.52 745.73 1682.8 632.5 1208.37 696.34"/><polygon class="l" points="82.8 99 758.44 492.53 800.09 243.31 82.8 99"/><polygon class="cs" points="818.36 295.82 809.36 371.29 819.57 298.86 818.36 295.82"/><polygon class="ct" points="800.09 243.31 758.44 492.53 809.36 371.29 800.09 243.31"/><polygon class="cu" points="758.44 492.53 794.72 444.59 809.36 371.29 758.44 492.53"/><polygon class="cv" points="816.95 288.01 809.36 371.29 818.36 295.82 816.95 288.01"/><polygon class="cw" points="800.09 243.31 809.36 371.29 816.95 288.01 800.09 243.31"/><polygon class="cx" points="819.57 298.86 809.36 371.29 819.9 369.47 819.57 298.86"/><polygon class="cy" points="827.78 462.99 758.44 492.53 846.12 496.3 827.78 462.99"/><polygon class="cz" points="816.95 288.01 818.36 295.82 819.27 290.56 816.95 288.01"/><polygon class="l" points="800.09 243.31 816.95 288.01 822.08 284.06 800.09 243.31"/><polygon class="n" points="800.09 243.31 822.08 284.06 829.55 278.89 800.09 243.31"/><polygon class="da" points="758.44 492.53 730.15 679.09 846.12 496.3 758.44 492.53"/><polygon class="db" points="794.72 444.59 758.44 492.53 827.78 462.99 794.72 444.59"/><polygon class="b" points="1670.93 187.72 1208.37 696.34 1682.8 632.5 1670.93 187.72"/><polygon class="dc" points="819.27 290.56 819.57 298.86 828.51 281.14 819.27 290.56"/><polygon class="dd" points="822.08 284.06 819.27 290.56 828.51 281.14 822.08 284.06"/><polygon class="de" points="827.78 462.99 846.12 496.3 848.28 487.74 827.78 462.99"/><polygon class="df" points="893.91 431.67 884.38 433.81 903.95 456 893.91 431.67"/><polygon class="l" points="794.72 444.59 827.78 462.99 847.35 396.52 794.72 444.59"/><polygon class="dg" points="882.8 99 908.16 239.84 941.96 252.13 882.8 99"/><polygon class="dh" points="809.36 371.29 794.72 444.59 847.35 396.52 809.36 371.29"/><polygon class="di" points="819.9 369.47 809.36 371.29 847.35 396.52 819.9 369.47"/><polygon class="dj" points="922.13 398.4 903.95 456 922.66 498.37 922.13 398.4"/><polygon class="dk" points="679.66 877.04 668.54 880.24 882.8 1166 679.66 877.04"/><polygon class="b" points="1230.99 898.7 1274.64 1001.6 1682.8 632.5 1230.99 898.7"/><polygon class="b" points="528.63 1023.73 82.8 1166 882.8 1166 528.63 1023.73"/><polygon class="dl" points="668.54 880.24 528.63 1023.73 882.8 1166 668.54 880.24"/><polygon class="dm" points="848.28 487.74 846.12 496.3 882.98 483.09 848.28 487.74"/><polygon class="dn" points="879.51 478.57 848.28 487.74 882.98 483.09 879.51 478.57"/><polygon class="l" points="903.95 456 882.98 483.09 922.66 498.37 903.95 456"/><polygon class="b" points="1211.52 745.73 1230.99 898.7 1682.8 632.5 1211.52 745.73"/><polygon class="do" points="847.35 396.52 884.7 415.02 922.13 398.4 847.35 396.52"/><polygon class="dp" points="847.35 396.52 827.78 462.99 883.89 432.09 847.35 396.52"/><polygon class="dq" points="884.38 433.81 879.51 478.57 903.95 456 884.38 433.81"/><polygon class="dm" points="884.7 415.02 893.91 431.67 922.13 398.4 884.7 415.02"/><polygon class="dr" points="847.35 396.52 883.89 432.09 883.99 423.11 847.35 396.52"/><polygon class="ds" points="883.89 432.09 827.78 462.99 884.38 433.81 883.89 432.09"/><polygon class="dt" points="827.78 462.99 879.51 478.57 884.38 433.81 827.78 462.99"/><polygon class="du" points="883.89 432.09 884.38 433.81 892.72 430.82 883.89 432.09"/><polygon class="dv" points="883.99 423.11 883.89 432.09 892.72 430.82 883.99 423.11"/><polygon class="dw" points="884.7 415.02 883.99 423.11 892.72 430.82 884.7 415.02"/><polygon class="dx" points="892.72 430.82 884.38 433.81 893.91 431.67 892.72 430.82"/><polygon class="dy" points="884.7 415.02 892.72 430.82 893.91 431.67 884.7 415.02"/><polygon class="dp" points="882.98 483.09 846.12 496.3 922.66 498.37 882.98 483.09"/><polygon class="n" points="800.09 243.31 829.55 278.89 908.16 239.84 800.09 243.31"/><polygon class="dz" points="882.8 99 800.09 243.31 908.16 239.84 882.8 99"/><polygon class="ea" points="846.12 496.3 730.15 679.09 922.66 498.37 846.12 496.3"/><polygon class="eb" points="749.6 816.36 1031.99 917.16 1067.24 814.66 749.6 816.36"/><polygon class="ec" points="828.51 281.14 819.57 298.86 935.16 296.15 828.51 281.14"/><polygon class="ed" points="829.55 278.89 828.51 281.14 935.16 296.15 829.55 278.89"/><polygon class="ee" points="908.16 239.84 829.55 278.89 935.16 296.15 908.16 239.84"/><polygon class="dn" points="749.6 816.36 882.8 1166 1031.99 917.16 749.6 816.36"/><polygon class="ef" points="847.35 396.52 922.13 398.4 935.16 296.15 847.35 396.52"/><polygon class="eg" points="819.57 298.86 819.9 369.47 935.16 296.15 819.57 298.86"/><polygon class="eh" points="819.9 369.47 847.35 396.52 935.16 296.15 819.9 369.47"/><polygon class="ei" points="1067.24 814.66 1031.99 917.16 1083.73 849.47 1067.24 814.66"/><polygon class="ej" points="1101.87 687.82 1083.28 688.2 1112 701.95 1101.87 687.82"/><polygon class="ek" points="732.47 716 749.6 816.36 1067.24 814.66 732.47 716"/><polygon class="el" points="732.47 716 1067.24 814.66 1083.28 688.2 732.47 716"/><polygon class="da" points="730.15 679.09 732.47 716 1083.28 688.2 730.15 679.09"/><polygon class="ea" points="922.66 498.37 730.15 679.09 1083.28 688.2 922.66 498.37"/><polygon class="em" points="1067.24 814.66 1083.73 849.47 1104.85 833.51 1067.24 814.66"/><polygon class="dn" points="1086.37 672.42 1084.04 677.7 1086.7 676.55 1086.37 672.42"/><polygon class="b" points="1086.37 672.42 1086.7 676.55 1101.87 687.82 1086.37 672.42"/><polygon class="dn" points="1084.04 677.7 1083.28 688.2 1084.72 680.07 1084.04 677.7"/><polygon class="b" points="922.66 498.37 1083.28 688.2 1084.04 677.7 922.66 498.37"/><polygon class="dn" points="1084.04 677.7 1084.72 680.07 1086.7 676.55 1084.04 677.7"/><polygon class="ck" points="922.66 498.37 1084.04 677.7 1086.37 672.42 922.66 498.37"/><polygon class="en" points="1083.28 688.2 1067.24 814.66 1112 701.95 1083.28 688.2"/><polygon class="eo" points="1104.85 833.51 1121.42 867.86 1127.11 855.54 1104.85 833.51"/><polygon class="dn" points="1122.74 686.93 1101.87 687.82 1123.06 690.47 1122.74 686.93"/><polygon class="ep" points="1083.73 849.47 1121.06 869.96 1121.42 867.86 1083.73 849.47"/><polygon class="b" points="1086.7 676.55 1084.72 680.07 1101.87 687.82 1086.7 676.55"/><polygon class="eq" points="1084.72 680.07 1083.28 688.2 1101.87 687.82 1084.72 680.07"/><polygon class="er" points="1112 701.95 1067.24 814.66 1119.16 707.36 1112 701.95"/><polygon class="b" points="1118.15 668.39 1130.48 674.55 1136.07 660.64 1118.15 668.39"/><polygon class="b" points="1086.37 672.42 1101.87 687.82 1118.15 668.39 1086.37 672.42"/><polygon class="es" points="1104.85 833.51 1083.73 849.47 1121.42 867.86 1104.85 833.51"/><polygon class="et" points="1132.55 701.04 1125.31 699.16 1133.35 709.97 1132.55 701.04"/><polygon class="eu" points="1125.31 699.16 1119.16 707.36 1133.35 709.97 1125.31 699.16"/><polygon class="ea" points="941.96 252.13 935.16 296.15 1136.07 660.64 941.96 252.13"/><polygon class="ev" points="1121.06 869.96 1133.13 901.86 1170.27 889.66 1121.06 869.96"/><polygon class="ew" points="1121.06 869.96 1031.99 917.16 1132.07 901.64 1121.06 869.96"/><polygon class="ex" points="1188.03 742.96 1163.58 765.4 1191.3 746.33 1188.03 742.96"/><polygon class="b" points="1122.79 678.72 1122.74 686.93 1130.48 674.55 1122.79 678.72"/><polygon class="ey" points="1083.73 849.47 1031.99 917.16 1121.06 869.96 1083.73 849.47"/><polygon class="ck" points="1123.06 690.47 1112 701.95 1125.31 699.16 1123.06 690.47"/><polygon class="dn" points="1101.87 687.82 1122.74 686.93 1122.79 678.72 1101.87 687.82"/><polygon class="b" points="1118.15 668.39 1101.87 687.82 1122.79 678.72 1118.15 668.39"/><polygon class="b" points="1130.48 674.55 1122.74 686.93 1132.55 701.04 1130.48 674.55"/><polygon class="ez" points="1101.87 687.82 1112 701.95 1123.06 690.47 1101.87 687.82"/><polygon class="fa" points="1112 701.95 1119.16 707.36 1125.31 699.16 1112 701.95"/><polygon class="fb" points="1178.58 795.84 1167.05 819.12 1180.8 828.38 1178.58 795.84"/><polygon class="b" points="1122.74 686.93 1123.06 690.47 1132.55 701.04 1122.74 686.93"/><polygon class="ck" points="1152.16 706.02 1155.9 707.71 1164.99 702.39 1152.16 706.02"/><polygon class="b" points="1086.37 672.42 1118.15 668.39 1136.07 660.64 1086.37 672.42"/><polygon class="b" points="922.66 498.37 1086.37 672.42 1136.07 660.64 922.66 498.37"/><polygon class="b" points="1118.15 668.39 1122.79 678.72 1130.48 674.55 1118.15 668.39"/><polygon class="b" points="1208.18 724.8 1205.22 736.53 1211.52 745.73 1208.18 724.8"/><polygon class="b" points="1123.06 690.47 1125.31 699.16 1132.55 701.04 1123.06 690.47"/><polygon class="b" points="1208.37 696.34 1208.18 724.8 1211.52 745.73 1208.37 696.34"/><polygon class="ck" points="1148.98 702.64 1152.16 706.02 1164.99 702.39 1148.98 702.64"/><polygon class="fc" points="1121.06 869.96 1132.07 901.64 1133.13 901.86 1121.06 869.96"/><polygon class="fd" points="935.16 296.15 922.13 398.4 1136.07 660.64 935.16 296.15"/><polygon class="fe" points="1143.8 705.06 1137.56 713.22 1144.81 721.73 1143.8 705.06"/><polygon class="ff" points="922.13 398.4 922.66 498.37 1136.07 660.64 922.13 398.4"/><polygon class="b" points="1138.91 703.16 1143.8 705.06 1144.14 700.79 1138.91 703.16"/><polygon class="b" points="1144.14 700.79 1143.8 705.06 1148.98 702.64 1144.14 700.79"/><polygon class="fg" points="1133.35 709.97 1119.16 707.36 1137.56 713.22 1133.35 709.97"/><polygon class="fh" points="1133.35 709.97 1137.56 713.22 1138.91 703.16 1133.35 709.97"/><polygon class="fi" points="1132.55 701.04 1138.91 703.16 1144.14 700.79 1132.55 701.04"/><polygon class="fj" points="1132.55 701.04 1133.35 709.97 1138.91 703.16 1132.55 701.04"/><polygon class="b" points="1130.48 674.55 1132.55 701.04 1144.14 700.79 1130.48 674.55"/><polygon class="fk" points="1138.91 703.16 1137.56 713.22 1143.8 705.06 1138.91 703.16"/><polygon class="fl" points="1144.81 721.73 1119.16 707.36 1163.58 765.4 1144.81 721.73"/><polygon class="fm" points="1155.9 707.71 1152.16 706.02 1156.51 710.11 1155.9 707.71"/><polygon class="fn" points="1152.16 706.02 1144.81 721.73 1156.51 710.11 1152.16 706.02"/><polygon class="fo" points="1137.56 713.22 1119.16 707.36 1144.81 721.73 1137.56 713.22"/><polygon class="fp" points="1119.16 707.36 1067.24 814.66 1163.58 765.4 1119.16 707.36"/><polygon class="b" points="1191.28 726.9 1205.22 736.53 1208.18 724.8 1191.28 726.9"/><polygon class="b" points="1148.98 702.64 1143.8 705.06 1152.16 706.02 1148.98 702.64"/><polygon class="fq" points="1143.8 705.06 1144.81 721.73 1152.16 706.02 1143.8 705.06"/><polygon class="fr" points="1127.11 855.54 1165.71 844.7 1167.05 819.12 1127.11 855.54"/><polygon class="b" points="1168.65 714.04 1169.83 716.78 1169.98 712.41 1168.65 714.04"/><polygon class="fs" points="1067.24 814.66 1104.85 833.51 1163.58 765.4 1067.24 814.66"/><polygon class="b" points="1167.37 711.21 1168.65 714.04 1169.98 712.41 1167.37 711.21"/><polygon class="b" points="1167.06 706.98 1167.37 711.21 1169.98 712.41 1167.06 706.98"/><polygon class="ft" points="1156.51 710.11 1144.81 721.73 1169.83 716.78 1156.51 710.11"/><polygon class="fu" points="1104.85 833.51 1127.11 855.54 1167.05 819.12 1104.85 833.51"/><polygon class="fv" points="1178.58 795.84 1180.8 828.38 1204.19 774.5 1178.58 795.84"/><polygon class="b" points="1136.07 660.64 1130.48 674.55 1167.04 688.05 1136.07 660.64"/><polygon class="fw" points="1166.5 844.71 1165.71 844.7 1174.8 875.96 1166.5 844.71"/><polygon class="b" points="1130.48 674.55 1144.14 700.79 1167.04 688.05 1130.48 674.55"/><polygon class="b" points="1144.14 700.79 1148.98 702.64 1167.04 688.05 1144.14 700.79"/><polygon class="b" points="1148.98 702.64 1164.99 702.39 1167.04 688.05 1148.98 702.64"/><polygon class="fx" points="1169.83 716.78 1144.81 721.73 1171.46 729.52 1169.83 716.78"/><polygon class="fy" points="1127.11 855.54 1121.42 867.86 1174.8 875.96 1127.11 855.54"/><polygon class="b" points="1167.04 688.05 1164.99 702.39 1167.06 706.98 1167.04 688.05"/><polygon class="ck" points="1164.99 702.39 1155.9 707.71 1167.06 706.98 1164.99 702.39"/><polygon class="fz" points="1155.9 707.71 1156.51 710.11 1167.06 706.98 1155.9 707.71"/><polygon class="b" points="1167.06 706.98 1156.51 710.11 1167.37 711.21 1167.06 706.98"/><polygon class="b" points="1167.37 711.21 1156.51 710.11 1168.65 714.04 1167.37 711.21"/><polygon class="ga" points="1204.19 774.5 1180.8 828.38 1230.99 898.7 1204.19 774.5"/><polygon class="b" points="1168.65 714.04 1156.51 710.11 1169.83 716.78 1168.65 714.04"/><polygon class="gb" points="1205.22 736.53 1191.3 746.33 1211.52 745.73 1205.22 736.53"/><polygon class="gc" points="1191.3 746.33 1194.45 759.48 1211.52 745.73 1191.3 746.33"/><polygon class="gd" points="1144.81 721.73 1163.58 765.4 1171.46 729.52 1144.81 721.73"/><polygon class="ge" points="1194.45 759.48 1204.19 774.5 1211.52 745.73 1194.45 759.48"/><polygon class="gf" points="1121.06 869.96 1170.27 889.66 1174.8 875.96 1121.06 869.96"/><polygon class="gg" points="1167.05 819.12 1165.71 844.7 1174.1 828.14 1167.05 819.12"/><polygon class="gh" points="1167.05 819.12 1174.1 828.14 1180.8 828.38 1167.05 819.12"/><polygon class="gi" points="1166.5 844.71 1174.8 875.96 1180.8 828.38 1166.5 844.71"/><polygon class="gj" points="1163.58 765.4 1104.85 833.51 1172.38 791.76 1163.58 765.4"/><polygon class="gk" points="1104.85 833.51 1167.05 819.12 1172.38 791.76 1104.85 833.51"/><polygon class="gl" points="1165.71 844.7 1166.5 844.71 1174.1 828.14 1165.71 844.7"/><polygon class="gm" points="1165.71 844.7 1127.11 855.54 1174.8 875.96 1165.71 844.7"/><polygon class="gn" points="1174.1 828.14 1166.5 844.71 1180.8 828.38 1174.1 828.14"/><polygon class="go" points="1121.42 867.86 1121.06 869.96 1174.8 875.96 1121.42 867.86"/><polygon class="gp" points="1172.38 791.76 1167.05 819.12 1178.58 795.84 1172.38 791.76"/><polygon class="gq" points="1188.03 742.96 1189.9 742.15 1191.28 726.9 1188.03 742.96"/><polygon class="gr" points="1171.46 729.52 1188.03 742.96 1191.28 726.9 1171.46 729.52"/><polygon class="gs" points="1169.83 716.78 1171.46 729.52 1185.16 720.91 1169.83 716.78"/><polygon points="1169.98 712.41 1169.83 716.78 1185.16 720.91 1169.98 712.41"/><polygon class="b" points="1185.16 720.91 1191.28 726.9 1208.18 724.8 1185.16 720.91"/><polygon class="b" points="1167.06 706.98 1169.98 712.41 1185.16 720.91 1167.06 706.98"/><polygon class="ff" points="1185.16 720.91 1171.46 729.52 1191.28 726.9 1185.16 720.91"/><polygon class="b" points="1136.07 660.64 1167.04 688.05 1208.37 696.34 1136.07 660.64"/><polygon class="gt" points="1171.46 729.52 1163.58 765.4 1188.03 742.96 1171.46 729.52"/><polygon class="gu" points="1194.45 759.48 1172.38 791.76 1204.19 774.5 1194.45 759.48"/><polygon class="gv" points="1189.9 742.15 1188.03 742.96 1191.3 746.33 1189.9 742.15"/><polygon class="gw" points="1172.38 791.76 1178.58 795.84 1204.19 774.5 1172.38 791.76"/><polygon class="gx" points="1191.3 746.33 1163.58 765.4 1194.45 759.48 1191.3 746.33"/><polygon class="gy" points="1163.58 765.4 1172.38 791.76 1194.45 759.48 1163.58 765.4"/><polygon class="gz" points="1243.07 993 1273.53 1002.9 1274.64 1001.6 1243.07 993"/><polygon class="b" points="1185.16 720.91 1208.18 724.8 1208.37 696.34 1185.16 720.91"/><polygon class="ha" points="1241.29 973.15 1243.07 993 1274.64 1001.6 1241.29 973.15"/><polygon class="hb" points="1189.9 742.15 1191.3 746.33 1205.22 736.53 1189.9 742.15"/><polygon class="b" points="1191.28 726.9 1189.9 742.15 1205.22 736.53 1191.28 726.9"/><polygon class="ck" points="1167.06 706.98 1185.16 720.91 1208.37 696.34 1167.06 706.98"/><polygon class="b" points="1167.04 688.05 1167.06 706.98 1208.37 696.34 1167.04 688.05"/><polygon class="hc" points="1132.07 901.64 1031.99 917.16 1218.95 987.37 1132.07 901.64"/><polygon class="hd" points="1133.13 901.86 1132.07 901.64 1218.95 987.37 1133.13 901.86"/><polygon class="hd" points="1218.95 987.37 882.8 1166 1226.64 991.1 1218.95 987.37"/><polygon class="he" points="1170.27 889.66 1133.13 901.86 1218.95 987.37 1170.27 889.66"/><polygon class="hf" points="1031.99 917.16 882.8 1166 1218.95 987.37 1031.99 917.16"/><polygon class="hg" points="1233.23 987.91 1226.64 991.1 1243.07 993 1233.23 987.91"/><polygon class="hh" points="1174.8 875.96 1227.79 905.44 1230.99 898.7 1174.8 875.96"/><polygon class="dg" points="1174.8 875.96 1170.27 889.66 1227.79 905.44 1174.8 875.96"/><polygon class="hi" points="1227.79 905.44 1170.27 889.66 1227.81 907.9 1227.79 905.44"/><polygon class="hj" points="1170.27 889.66 1218.95 987.37 1227.81 907.9 1170.27 889.66"/><polygon class="hk" points="1241.29 973.15 1233.23 987.91 1243.07 993 1241.29 973.15"/><polygon class="hl" points="1227.81 907.9 1218.95 987.37 1241.29 973.15 1227.81 907.9"/><polygon class="hm" points="1227.79 905.44 1227.81 907.9 1230.99 898.7 1227.79 905.44"/><polygon class="hn" points="1180.8 828.38 1174.8 875.96 1230.99 898.7 1180.8 828.38"/><polygon class="ho" points="1211.52 745.73 1204.19 774.5 1230.99 898.7 1211.52 745.73"/><polygon class="hp" points="1218.95 987.37 1226.64 991.1 1233.23 987.91 1218.95 987.37"/><polygon class="hc" points="1230.99 898.7 1227.81 907.9 1241.29 973.15 1230.99 898.7"/><polygon class="hq" points="1218.95 987.37 1233.23 987.91 1241.29 973.15 1218.95 987.37"/><polygon class="b" points="1665.71 141.81 941.96 252.13 1670.93 187.72 1665.71 141.81"/><polygon class="hr" points="1243.07 993 1226.64 991.1 1273.53 1002.9 1243.07 993"/><polygon class="hs" points="1226.64 991.1 882.8 1166 1273.53 1002.9 1226.64 991.1"/><polygon class="ht" points="1230.99 898.7 1241.29 973.15 1274.64 1001.6 1230.99 898.7"/><polygon class="hu" points="1665.71 141.81 1670.93 187.72 1682.8 99 1665.71 141.81"/><polygon class="b" points="882.8 99 1665.71 141.81 1682.8 99 882.8 99"/><polygon class="b" points="1136.07 660.64 1208.37 696.34 1670.93 187.72 1136.07 660.64"/><polygon class="b" points="882.8 99 941.96 252.13 1665.71 141.81 882.8 99"/><polygon class="b" points="941.96 252.13 1136.07 660.64 1670.93 187.72 941.96 252.13"/></svg>